<svg width="24" height="24" viewBox="0 0 24 24" fill="none" xmlns="http://www.w3.org/2000/svg">
<rect width="24" height="24" fill="none"/>
<g id="&#208;&#154;&#208;&#190;&#208;&#188;&#208;&#191;&#208;&#190;&#208;&#189;&#208;&#181;&#208;&#189;&#209;&#130;&#209;&#139;">
<path d="M-353 -451C-353 -452.105 -352.105 -453 -351 -453H510C511.105 -453 512 -452.105 512 -451V290C512 291.105 511.105 292 510 292H-351C-352.105 292 -353 291.105 -353 290V-451Z" fill="none"/>
<path d="M-351 -452H510V-454H-351V-452ZM511 -451V290H513V-451H511ZM510 291H-351V293H510V291ZM-352 290V-451H-354V290H-352ZM-351 291C-351.552 291 -352 290.552 -352 290H-354C-354 291.657 -352.657 293 -351 293V291ZM511 290C511 290.552 510.552 291 510 291V293C511.657 293 513 291.657 513 290H511ZM510 -452C510.552 -452 511 -451.552 511 -451H513C513 -452.657 511.657 -454 510 -454V-452ZM-351 -454C-352.657 -454 -354 -452.657 -354 -451H-352C-352 -451.552 -351.552 -452 -351 -452V-454Z" fill="black" fill-opacity="0.1"/>
<g id="check_24dp_FILL0_wght400_GRAD0_opsz24 1">
<path id="Vector" d="M9.5501 18.0016L3.8501 12.3016L5.2751 10.8766L9.5501 15.1516L18.7251 5.97656L20.1501 7.40156L9.5501 18.0016Z" fill="#B73A34"/>
</g>
</g>
</svg>
