<svg width="394" height="100" viewBox="0 0 394 100" fill="none" xmlns="http://www.w3.org/2000/svg">
<path fill-rule="evenodd" clip-rule="evenodd" d="M32.5581 39.3979C32.5581 39.6426 35.8279 43.1048 39.8244 47.0915L47.0907 54.3403L41.7255 59.7281L36.3604 65.1159H39.5511H42.7424L55.3831 52.4659C62.3349 45.5083 68.0232 39.6217 68.0232 39.3845C68.0232 39.1473 66.8069 38.9531 65.3203 38.9531C62.6686 38.9531 62.4982 39.07 56.4325 45.0473L50.2488 51.1409L44.1755 45.0473C38.1593 39.0107 38.0761 38.9531 35.3302 38.9531C33.8058 38.9531 32.5581 39.1531 32.5581 39.3979ZM193.865 39.695C193.708 40.1031 193.651 45.924 193.738 52.631L193.895 64.8252L196.076 65.0054L198.256 65.1862V61.081V56.9763H205.109C211.073 56.9763 212.294 56.8066 214.514 55.6682C217.93 53.9165 219.333 51.2903 219.027 47.2194C218.723 43.167 216.272 40.4601 212.096 39.5641C207.874 38.6589 194.225 38.7566 193.865 39.695ZM198.69 43.9455C198.451 44.1839 198.256 46.167 198.256 48.3525V52.3252H204.863C210.668 52.3252 211.658 52.1787 213.003 51.12C214.947 49.5909 215.098 46.62 213.313 45.0025C212.298 44.0822 210.994 43.8624 205.608 43.7031C202.041 43.5979 198.928 43.7066 198.69 43.9455ZM225.576 48.4008C222.291 50.6362 221.221 52.5862 221.221 56.3374C221.221 60.5589 223.126 63.363 226.998 64.842C230.756 66.2775 240.571 65.8717 242.826 64.188C247.022 61.0554 248.28 55.7124 245.809 51.5136C243.683 47.899 241.522 47.0926 233.961 47.0926C228.215 47.0926 227.284 47.238 225.576 48.4008ZM256.686 48.195C255.407 48.7868 253.576 50.1066 252.616 51.1275C251.075 52.767 250.872 53.392 250.872 56.4996C250.872 59.8955 250.956 60.0903 253.299 62.1705C256.184 64.7304 259.063 65.6973 263.802 65.6973C267.823 65.6973 271.745 64.4827 273.723 62.6252L275.095 61.3368L272.876 60.3566C270.733 59.4101 270.587 59.4194 268.634 60.6264C265.895 62.3188 261.124 62.3444 258.881 60.6781C255.18 57.9293 254.965 54.5973 258.327 52.0938C260.643 50.37 266.435 50.37 268.895 52.0938C270.576 53.2717 270.719 53.2804 272.817 52.338L274.995 51.3601L273.681 50.1264C271.419 48.0014 268.365 47.092 263.536 47.1054C260.379 47.1141 258.309 47.4438 256.686 48.195ZM283.862 48.3508C273.151 53.5455 277.935 65.6798 290.698 65.6886C295.474 65.6915 298.305 64.9077 300.653 62.931L302.506 61.3723L300.244 60.374C298.049 59.406 297.922 59.413 295.959 60.6269C293.283 62.2804 288.369 62.2833 286.146 60.6333C283.547 58.7031 282.796 56.8822 283.701 54.7002C285.341 50.7403 292.567 49.317 296.452 52.1886C297.993 53.3281 298.153 53.338 300.241 52.4159L302.421 51.4531L301.057 50.1729C298.733 47.9897 295.727 47.0903 290.862 47.1217C287.521 47.1432 285.689 47.4647 283.862 48.3508ZM58.2773 55.9665C53.725 60.5269 50 64.4513 50 64.6874C50 64.9229 51.2471 65.1159 52.7715 65.1159C55.525 65.1159 55.5849 65.074 61.9186 58.7205L68.2942 52.3252H71.6471H75V58.7205V65.1159H77.3256H79.6511V56.395V47.674H73.1029H66.5546L58.2773 55.9665ZM83.7209 56.395V65.1159H85.9471C87.8633 65.1159 89.2593 64.3013 95.9761 59.2647L103.779 53.4136L104.07 59.1194L104.36 64.8252L106.541 65.0054L108.721 65.1862V56.4298V47.674H106.354C104.249 47.674 103.143 48.3211 96.325 53.545L88.6628 59.4165L88.4971 53.545L88.3314 47.674H86.0261H83.7209V56.395ZM113.372 56.395V65.1159H125H136.628V66.5694C136.628 67.7967 136.899 68.0229 138.372 68.0229H140.116V64.2438V60.4647H138.372H136.628V54.0694V47.674H134.302H131.977V54.0694V60.4647H125H118.023V54.0694V47.674H115.698H113.372V56.395ZM143.023 56.4368V65.1996L151.708 65.0124C160.353 64.8258 160.4 64.8176 162.119 63.1694C164.255 61.1205 164.863 58.3043 163.745 55.6293C162.341 52.2705 161.012 51.7438 153.94 51.7438H147.674V49.7089C147.674 47.7223 147.619 47.674 145.349 47.674H143.023V56.4368ZM167.442 56.395V65.1159H169.767H172.093V56.395V47.674H169.767H167.442V56.395ZM305.814 56.395V65.1159H308.15C310.205 65.1159 311.417 64.4165 318.229 59.3019C322.488 56.1043 326.146 53.488 326.359 53.488C326.57 53.488 326.744 56.12 326.744 59.3368V65.1862L328.924 65.0054L331.105 64.8252L331.266 56.2496L331.426 47.674H328.867C326.52 47.674 325.682 48.1543 318.719 53.488C314.544 56.6857 310.979 59.3019 310.797 59.3019C310.615 59.3019 310.465 56.6857 310.465 53.488V47.674H308.14H305.814V56.395ZM335.465 56.395V65.1159H337.691C339.608 65.1159 341.004 64.3014 347.72 59.2659L355.523 53.4159L355.689 59.2659L355.855 65.1159H358.16H360.465V56.395V47.674H358.103C356.01 47.674 354.872 48.3351 348.074 53.4967L340.407 59.3194L340.241 53.4967L340.076 47.674H337.77H335.465V56.395ZM227.856 52.4891C225.47 54.3211 225.198 57.1746 227.194 59.4473C227.935 60.2915 229.097 60.4647 234.012 60.4647C240.824 60.4647 242.093 59.7636 242.093 56.0002C242.093 52.5996 240.47 51.7403 234.092 51.7624C230.835 51.7734 228.422 52.0548 227.856 52.4891ZM147.674 58.1391V60.4647H153.081C158.4 60.4647 159.884 60.0048 159.884 58.3548C159.884 56.4612 158.095 55.8136 152.866 55.8136H147.674V58.1391Z" fill="#222222"/>
</svg>
