<svg width="382" height="84" viewBox="0 0 382 84" fill="none" xmlns="http://www.w3.org/2000/svg">
<path fill-rule="evenodd" clip-rule="evenodd" d="M26.9995 15.4623C26.9995 15.7071 30.2693 19.1693 34.2658 23.1559L41.5321 30.4048L36.167 35.7925L30.8018 41.1803H33.9925H37.1838L49.8245 28.5303C56.7763 21.5728 62.4646 15.6861 62.4646 15.4489C62.4646 15.2117 61.2483 15.0175 59.7617 15.0175C57.11 15.0175 56.9396 15.1344 50.8739 21.1117L44.6902 27.2053L38.617 21.1117C32.6007 15.0751 32.5175 15.0175 29.7716 15.0175C28.2472 15.0175 26.9995 15.2175 26.9995 15.4623ZM188.306 15.7594C188.15 16.1675 188.093 21.9885 188.179 28.6955L188.337 40.8896L190.517 41.0699L192.697 41.2507V37.1455V33.0408H199.551C205.515 33.0408 206.736 32.871 208.955 31.7327C212.371 29.9809 213.774 27.3548 213.469 23.2838C213.164 19.2315 210.713 16.5245 206.537 15.6286C202.316 14.7234 188.666 14.821 188.306 15.7594ZM193.131 20.01C192.893 20.2484 192.697 22.2315 192.697 24.417V28.3896H199.305C205.109 28.3896 206.099 28.2431 207.444 27.1844C209.388 25.6553 209.539 22.6844 207.754 21.067C206.739 20.1466 205.436 19.9268 200.049 19.7675C196.483 19.6623 193.37 19.771 193.131 20.01ZM220.017 24.4652C216.732 26.7007 215.662 28.6507 215.662 32.4018C215.662 36.6234 217.567 39.4274 221.439 40.9065C225.198 42.342 235.012 41.9362 237.268 40.2524C241.463 37.1199 242.721 31.7768 240.251 27.578C238.124 23.9635 235.963 23.1571 228.402 23.1571C222.656 23.1571 221.726 23.3024 220.017 24.4652ZM251.127 24.2594C249.848 24.8513 248.017 26.171 247.058 27.192C245.516 28.8315 245.313 29.4565 245.313 32.5641C245.313 35.96 245.397 36.1548 247.741 38.235C250.626 40.7949 253.505 41.7617 258.244 41.7617C262.264 41.7617 266.186 40.5472 268.164 38.6896L269.537 37.4013L267.318 36.421C265.174 35.4745 265.029 35.4838 263.075 36.6908C260.337 38.3832 255.566 38.4088 253.322 36.7425C249.621 33.9937 249.406 30.6617 252.769 28.1582C255.084 26.4344 260.876 26.4344 263.337 28.1582C265.018 29.3362 265.16 29.3449 267.258 28.4024L269.436 27.4245L268.123 26.1908C265.861 24.0658 262.806 23.1565 257.977 23.1699C254.82 23.1786 252.75 23.5082 251.127 24.2594ZM278.304 24.4152C267.593 29.61 272.377 41.7443 285.139 41.753C289.916 41.7559 292.746 40.9722 295.095 38.9955L296.947 37.4367L294.686 36.4385C292.49 35.4705 292.363 35.4774 290.4 36.6914C287.725 38.3449 282.811 38.3478 280.588 36.6978C277.988 34.7675 277.238 32.9466 278.142 30.7646C279.782 26.8048 287.009 25.3815 290.893 28.253C292.434 29.3925 292.595 29.4024 294.682 28.4803L296.862 27.5175L295.498 26.2373C293.174 24.0542 290.168 23.1548 285.303 23.1862C281.963 23.2077 280.13 23.5292 278.304 24.4152ZM52.7187 32.0309C48.1664 36.5914 44.4414 40.5158 44.4414 40.7519C44.4414 40.9873 45.6885 41.1803 47.2129 41.1803C49.9664 41.1803 50.0263 41.1385 56.36 34.785L62.7356 28.3896H66.0885H69.4414V34.785V41.1803H71.767H74.0925V32.4594V23.7385H67.5443H60.996L52.7187 32.0309ZM78.1623 32.4594V41.1803H80.3885C82.3047 41.1803 83.7007 40.3658 90.4175 35.3292L98.2204 29.478L98.5111 35.1838L98.8018 40.8896L100.982 41.0699L103.162 41.2507V32.4943V23.7385H100.795C98.6902 23.7385 97.5844 24.3856 90.7664 29.6094L83.1042 35.4809L82.9385 29.6094L82.7728 23.7385H80.4675H78.1623V32.4594ZM107.813 32.4594V41.1803H119.441H131.069V42.6338C131.069 43.8612 131.341 44.0873 132.813 44.0873H134.558V40.3082V36.5292H132.813H131.069V30.1338V23.7385H128.744H126.418V30.1338V36.5292H119.441H112.465V30.1338V23.7385H110.139H107.813V32.4594ZM137.465 32.5013V41.2641L146.149 41.0768C154.794 40.8902 154.841 40.8821 156.56 39.2338C158.697 37.185 159.304 34.3687 158.186 31.6937C156.783 28.335 155.453 27.8082 148.381 27.8082H142.116V25.7734C142.116 23.7867 142.061 23.7385 139.79 23.7385H137.465V32.5013ZM161.883 32.4594V41.1803H164.209H166.534V32.4594V23.7385H164.209H161.883V32.4594ZM300.255 32.4594V41.1803H302.591C304.646 41.1803 305.858 40.4809 312.67 35.3664C316.93 32.1687 320.588 29.5524 320.8 29.5524C321.012 29.5524 321.186 32.1844 321.186 35.4013V41.2507L323.366 41.0699L325.546 40.8896L325.707 32.3141L325.868 23.7385H323.309C320.962 23.7385 320.123 24.2187 313.16 29.5524C308.986 32.7501 305.42 35.3664 305.238 35.3664C305.056 35.3664 304.906 32.7501 304.906 29.5524V23.7385H302.581H300.255V32.4594ZM329.906 32.4594V41.1803H332.133C334.049 41.1803 335.445 40.3658 342.162 35.3303L349.965 29.4803L350.13 35.3303L350.296 41.1803H352.601H354.906V32.4594V23.7385H352.545C350.452 23.7385 349.313 24.3995 342.516 29.5612L334.848 35.3838L334.683 29.5612L334.517 23.7385H332.212H329.906V32.4594ZM222.298 28.5536C219.912 30.3856 219.64 33.2391 221.635 35.5117C222.376 36.3559 223.538 36.5292 228.453 36.5292C235.265 36.5292 236.534 35.828 236.534 32.0646C236.534 28.6641 234.912 27.8048 228.534 27.8268C225.277 27.8379 222.863 28.1193 222.298 28.5536ZM142.116 34.2036V36.5292H147.523C152.841 36.5292 154.325 36.0693 154.325 34.4193C154.325 32.5257 152.536 31.878 147.307 31.878H142.116V34.2036Z" fill="white"/>
<path d="M52.3828 67.1172C51.6901 67.1172 51.0859 66.974 50.5703 66.6875C50.0599 66.401 49.6667 65.9948 49.3906 65.4688C49.1146 64.9375 48.9766 64.3125 48.9766 63.5938V59.0391C48.9766 58.3203 49.1146 57.6979 49.3906 57.1719C49.6667 56.6406 50.0599 56.2344 50.5703 55.9531C51.0859 55.6667 51.6901 55.5234 52.3828 55.5234C53.0755 55.5234 53.6771 55.6667 54.1875 55.9531C54.7031 56.2344 55.099 56.6406 55.375 57.1719C55.651 57.6979 55.7891 58.3203 55.7891 59.0391V63.5938C55.7891 64.3125 55.651 64.9375 55.375 65.4688C55.099 65.9948 54.7031 66.401 54.1875 66.6875C53.6771 66.974 53.0755 67.1172 52.3828 67.1172ZM52.3828 65.6094C52.7578 65.6094 53.0833 65.5312 53.3594 65.375C53.6406 65.2135 53.8568 64.9844 54.0078 64.6875C54.1589 64.3906 54.2344 64.0443 54.2344 63.6484V58.9922C54.2344 58.5911 54.1589 58.2448 54.0078 57.9531C53.8568 57.6562 53.6406 57.4297 53.3594 57.2734C53.0833 57.112 52.7578 57.0312 52.3828 57.0312C52.0078 57.0312 51.6797 57.112 51.3984 57.2734C51.1224 57.4297 50.9089 57.6562 50.7578 57.9531C50.612 58.2448 50.5391 58.5911 50.5391 58.9922V63.6484C50.5391 64.0443 50.612 64.3906 50.7578 64.6875C50.9089 64.9844 51.1224 65.2135 51.3984 65.375C51.6797 65.5312 52.0078 65.6094 52.3828 65.6094ZM60.6562 67.1172C60.0625 67.1172 59.5521 67.0026 59.125 66.7734C58.7031 66.5391 58.3802 66.2031 58.1562 65.7656C57.9323 65.3229 57.8203 64.7917 57.8203 64.1719V61.9844L58.9062 60.6406C59.0677 60.1302 59.3281 59.7422 59.6875 59.4766C60.0469 59.2057 60.5 59.0703 61.0469 59.0703C61.5625 59.0703 62.0026 59.1849 62.3672 59.4141C62.737 59.638 63.0156 59.9688 63.2031 60.4062C63.3958 60.8385 63.4922 61.362 63.4922 61.9766V64.1953C63.4922 64.8099 63.3802 65.3359 63.1562 65.7734C62.9375 66.2109 62.6146 66.5443 62.1875 66.7734C61.7656 67.0026 61.2552 67.1172 60.6562 67.1172ZM60.6484 65.6328C61.0599 65.6328 61.3802 65.5052 61.6094 65.25C61.8385 64.9948 61.9531 64.6328 61.9531 64.1641V62.0078C61.9531 61.5443 61.8385 61.1875 61.6094 60.9375C61.3802 60.6823 61.0599 60.5547 60.6484 60.5547C60.2422 60.5547 59.9245 60.6823 59.6953 60.9375C59.4714 61.1875 59.3594 61.5443 59.3594 62.0078V64.1641C59.3594 64.6328 59.4714 64.9948 59.6953 65.25C59.9245 65.5052 60.2422 65.6328 60.6484 65.6328ZM57.8203 59.4531C57.8203 58.849 57.9219 58.3438 58.125 57.9375C58.3333 57.526 58.638 57.2031 59.0391 56.9688C59.4453 56.7344 59.9557 56.5781 60.5703 56.5C60.8411 56.4583 61.0651 56.401 61.2422 56.3281C61.4193 56.2552 61.5495 56.1615 61.6328 56.0469C61.7214 55.9323 61.7656 55.7969 61.7656 55.6406H63.25C63.25 56.0573 63.1693 56.4089 63.0078 56.6953C62.8464 56.9766 62.6042 57.2031 62.2812 57.375C61.9583 57.5417 61.5495 57.6589 61.0547 57.7266C60.6641 57.7839 60.3411 57.8802 60.0859 58.0156C59.8307 58.151 59.638 58.3359 59.5078 58.5703C59.3828 58.7995 59.3203 59.0859 59.3203 59.4297V62.6719H57.8203V59.4531ZM66.3516 65.5781H72.6562V67H66.3516V65.5781ZM68.6328 58.8906H70.1719V67H68.6328V58.8906ZM65.4141 58.8906H66.9531V67H65.4141V58.8906ZM73.1406 65.5781H74.6797V69.0391H73.1406V65.5781ZM71.8438 58.8906H73.3438V67H71.8438V58.8906ZM78.7188 67.1172C78.0833 67.1172 77.5391 66.9948 77.0859 66.75C76.638 66.5052 76.2943 66.1458 76.0547 65.6719C75.8203 65.1979 75.7031 64.625 75.7031 63.9531V62.0859C75.7031 61.3828 75.8177 60.7839 76.0469 60.2891C76.276 59.7943 76.6068 59.4167 77.0391 59.1562C77.4766 58.8958 78.0026 58.7656 78.6172 58.7656C79.2109 58.7656 79.7188 58.901 80.1406 59.1719C80.5625 59.4427 80.8828 59.8359 81.1016 60.3516C81.3255 60.8672 81.4375 61.4896 81.4375 62.2188V63.5547H76.8047V62.2969H79.9609V61.8594C79.9609 61.3229 79.8411 60.9062 79.6016 60.6094C79.362 60.3073 79.0339 60.1562 78.6172 60.1562C78.1589 60.1562 77.8021 60.3177 77.5469 60.6406C77.2969 60.9583 77.1719 61.4115 77.1719 62V63.9922C77.1719 64.5234 77.3047 64.9349 77.5703 65.2266C77.8411 65.5182 78.224 65.6641 78.7188 65.6641C79.0365 65.6641 79.2969 65.5911 79.5 65.4453C79.7083 65.2995 79.8542 65.0885 79.9375 64.8125L81.3438 65.2656C81.1927 65.875 80.8958 66.3359 80.4531 66.6484C80.0104 66.9609 79.4323 67.1172 78.7188 67.1172ZM83.3203 58.8906H84.8594V70.2969H83.3203V58.8906ZM86.6328 67.1172C86.1849 67.1172 85.7969 66.9948 85.4688 66.75C85.1406 66.5052 84.901 66.1641 84.75 65.7266L84.8594 64.25C84.8594 64.5573 84.9089 64.8203 85.0078 65.0391C85.112 65.2578 85.2578 65.4271 85.4453 65.5469C85.638 65.6615 85.8672 65.7188 86.1328 65.7188C86.5443 65.7188 86.8646 65.5807 87.0938 65.3047C87.3229 65.0286 87.4375 64.6406 87.4375 64.1406V61.7344C87.4375 61.2396 87.3229 60.8542 87.0938 60.5781C86.8646 60.2969 86.5443 60.1562 86.1328 60.1562C85.8672 60.1562 85.638 60.2135 85.4453 60.3281C85.2578 60.4375 85.112 60.6016 85.0078 60.8203C84.9089 61.0339 84.8594 61.2891 84.8594 61.5859L84.6953 60.2422C84.9036 59.7682 85.1823 59.4036 85.5312 59.1484C85.8854 58.888 86.276 58.7578 86.7031 58.7578C87.1823 58.7578 87.5911 58.8724 87.9297 59.1016C88.2734 59.3307 88.5339 59.6667 88.7109 60.1094C88.888 60.5469 88.9766 61.0781 88.9766 61.7031V64.1641C88.9766 64.7839 88.8854 65.3151 88.7031 65.7578C88.5208 66.2005 88.2526 66.5391 87.8984 66.7734C87.5495 67.0026 87.1276 67.1172 86.6328 67.1172ZM93.5469 67.1172C92.9531 67.1172 92.4427 67.0026 92.0156 66.7734C91.5885 66.5391 91.263 66.2031 91.0391 65.7656C90.8151 65.3229 90.7031 64.7917 90.7031 64.1719V61.6641C90.7031 61.0495 90.8151 60.526 91.0391 60.0938C91.263 59.6562 91.5885 59.3255 92.0156 59.1016C92.4427 58.8724 92.9531 58.7578 93.5469 58.7578C94.1458 58.7578 94.6562 58.8724 95.0781 59.1016C95.5 59.3255 95.8203 59.6562 96.0391 60.0938C96.263 60.526 96.375 61.0495 96.375 61.6641V64.1953C96.375 64.8099 96.263 65.3359 96.0391 65.7734C95.8203 66.2109 95.5 66.5443 95.0781 66.7734C94.6562 67.0026 94.1458 67.1172 93.5469 67.1172ZM93.5391 65.6328C93.9505 65.6328 94.2682 65.5052 94.4922 65.25C94.7214 64.9948 94.8359 64.6328 94.8359 64.1641V61.6953C94.8359 61.2318 94.7214 60.875 94.4922 60.625C94.2682 60.3698 93.9505 60.2422 93.5391 60.2422C93.1328 60.2422 92.8151 60.3698 92.5859 60.625C92.3568 60.875 92.2422 61.2318 92.2422 61.6953V64.1641C92.2422 64.6276 92.3542 64.9896 92.5781 65.25C92.8073 65.5052 93.1276 65.6328 93.5391 65.6328ZM101.078 67.1172C100.448 67.1172 99.9089 67.0026 99.4609 66.7734C99.0182 66.5391 98.6797 66.2005 98.4453 65.7578C98.2109 65.3151 98.0938 64.7786 98.0938 64.1484V61.7734C98.0938 61.138 98.2109 60.5964 98.4453 60.1484C98.6797 59.6953 99.0182 59.3516 99.4609 59.1172C99.9089 58.8828 100.448 58.7656 101.078 58.7656C101.594 58.7656 102.039 58.8438 102.414 59C102.789 59.1562 103.091 59.3932 103.32 59.7109C103.549 60.0234 103.703 60.4141 103.781 60.8828L102.367 61.3281C102.289 60.9635 102.141 60.6875 101.922 60.5C101.708 60.3073 101.435 60.2109 101.102 60.2109C100.633 60.2109 100.271 60.349 100.016 60.625C99.7656 60.8958 99.6406 61.2786 99.6406 61.7734V64.1484C99.6406 64.6328 99.7656 65.0078 100.016 65.2734C100.271 65.5391 100.633 65.6719 101.102 65.6719C101.44 65.6719 101.716 65.5807 101.93 65.3984C102.148 65.2109 102.294 64.9375 102.367 64.5781L103.789 65.0547C103.716 65.5078 103.565 65.8906 103.336 66.2031C103.107 66.5104 102.802 66.7396 102.422 66.8906C102.042 67.0417 101.594 67.1172 101.078 67.1172ZM108.078 67.1172C107.448 67.1172 106.909 67.0026 106.461 66.7734C106.018 66.5391 105.68 66.2005 105.445 65.7578C105.211 65.3151 105.094 64.7786 105.094 64.1484V61.7734C105.094 61.138 105.211 60.5964 105.445 60.1484C105.68 59.6953 106.018 59.3516 106.461 59.1172C106.909 58.8828 107.448 58.7656 108.078 58.7656C108.594 58.7656 109.039 58.8438 109.414 59C109.789 59.1562 110.091 59.3932 110.32 59.7109C110.549 60.0234 110.703 60.4141 110.781 60.8828L109.367 61.3281C109.289 60.9635 109.141 60.6875 108.922 60.5C108.708 60.3073 108.435 60.2109 108.102 60.2109C107.633 60.2109 107.271 60.349 107.016 60.625C106.766 60.8958 106.641 61.2786 106.641 61.7734V64.1484C106.641 64.6328 106.766 65.0078 107.016 65.2734C107.271 65.5391 107.633 65.6719 108.102 65.6719C108.44 65.6719 108.716 65.5807 108.93 65.3984C109.148 65.2109 109.294 64.9375 109.367 64.5781L110.789 65.0547C110.716 65.5078 110.565 65.8906 110.336 66.2031C110.107 66.5104 109.802 66.7396 109.422 66.8906C109.042 67.0417 108.594 67.1172 108.078 67.1172ZM116.484 66.9922V61.3594L116.672 61.5625L113.578 66.9922H112.289V58.8906H113.773V64.5859L113.586 64.3828L116.695 58.8906H117.969V66.9922H116.484ZM124.281 66.9922V61.3594L124.469 61.5625L121.375 66.9922H120.086V58.8906H121.57V64.5859L121.383 64.3828L124.492 58.8906H125.766V66.9922H124.281ZM122.805 57.3281C122.122 57.3281 121.602 57.1276 121.242 56.7266C120.888 56.3203 120.711 55.7292 120.711 54.9531V54.6797H121.953V54.9609C121.953 55.3411 122.026 55.6302 122.172 55.8281C122.318 56.026 122.529 56.125 122.805 56.125H122.945C123.227 56.125 123.438 56.026 123.578 55.8281C123.724 55.6302 123.797 55.3411 123.797 54.9609V54.6797H125.039V54.9531C125.039 55.7292 124.859 56.3203 124.5 56.7266C124.146 57.1276 123.628 57.3281 122.945 57.3281H122.805ZM130.672 67.1172C130.042 67.1172 129.503 67.0026 129.055 66.7734C128.612 66.5391 128.273 66.2005 128.039 65.7578C127.805 65.3151 127.688 64.7786 127.688 64.1484V61.7734C127.688 61.138 127.805 60.5964 128.039 60.1484C128.273 59.6953 128.612 59.3516 129.055 59.1172C129.503 58.8828 130.042 58.7656 130.672 58.7656C131.188 58.7656 131.633 58.8438 132.008 59C132.383 59.1562 132.685 59.3932 132.914 59.7109C133.143 60.0234 133.297 60.4141 133.375 60.8828L131.961 61.3281C131.883 60.9635 131.734 60.6875 131.516 60.5C131.302 60.3073 131.029 60.2109 130.695 60.2109C130.227 60.2109 129.865 60.349 129.609 60.625C129.359 60.8958 129.234 61.2786 129.234 61.7734V64.1484C129.234 64.6328 129.359 65.0078 129.609 65.2734C129.865 65.5391 130.227 65.6719 130.695 65.6719C131.034 65.6719 131.31 65.5807 131.523 65.3984C131.742 65.2109 131.888 64.9375 131.961 64.5781L133.383 65.0547C133.31 65.5078 133.159 65.8906 132.93 66.2031C132.701 66.5104 132.396 66.7396 132.016 66.8906C131.635 67.0417 131.188 67.1172 130.672 67.1172ZM137.227 62.3672L138.969 58.8906H140.688L138.117 63.6094L137.227 62.3672ZM134.883 58.8906H136.422V67H134.883V58.8906ZM137.258 63.6016L138.422 62.6641L141.07 67H139.211L137.258 63.6016ZM135.656 62.2266H138.492V63.6875H135.656V62.2266ZM146.055 61.4609C146.055 61.0339 145.94 60.7031 145.711 60.4688C145.482 60.2292 145.159 60.1094 144.742 60.1094C144.445 60.1094 144.18 60.1797 143.945 60.3203C143.716 60.4557 143.542 60.651 143.422 60.9062L142.117 60.5078C142.268 59.9505 142.573 59.5208 143.031 59.2188C143.49 58.9115 144.06 58.7578 144.742 58.7578C145.331 58.7578 145.833 58.8646 146.25 59.0781C146.672 59.2865 146.992 59.5911 147.211 59.9922C147.43 60.388 147.539 60.8672 147.539 61.4297V67H146.055V61.4609ZM144.328 67.1172C143.495 67.1172 142.87 66.9193 142.453 66.5234C142.042 66.1276 141.836 65.5286 141.836 64.7266C141.836 63.8672 142.052 63.2266 142.484 62.8047C142.922 62.3776 143.578 62.1641 144.453 62.1641H146.125L146.234 63.4688H144.461C144.07 63.4688 143.779 63.5729 143.586 63.7812C143.393 63.9896 143.297 64.3047 143.297 64.7266C143.297 65.0911 143.404 65.362 143.617 65.5391C143.836 65.7161 144.164 65.8047 144.602 65.8047C145.091 65.8047 145.456 65.7214 145.695 65.5547C145.935 65.3828 146.055 65.125 146.055 64.7812L146.219 65.7266C146.146 66.0391 146.026 66.2995 145.859 66.5078C145.698 66.7109 145.49 66.8646 145.234 66.9688C144.979 67.0677 144.677 67.1172 144.328 67.1172ZM151.789 64.2656C151.284 64.2656 150.844 64.1693 150.469 63.9766C150.099 63.7786 149.812 63.5 149.609 63.1406C149.411 62.7812 149.312 62.3568 149.312 61.8672V61.2812C149.312 60.7917 149.414 60.3672 149.617 60.0078C149.826 59.6484 150.122 59.3724 150.508 59.1797C150.893 58.987 151.346 58.8906 151.867 58.8906H154.195V60.3516H151.883C151.581 60.3516 151.341 60.4453 151.164 60.6328C150.987 60.8151 150.898 61.0651 150.898 61.3828V61.7656C150.898 61.9792 150.938 62.1641 151.016 62.3203C151.099 62.4714 151.214 62.5911 151.359 62.6797C151.51 62.763 151.685 62.8047 151.883 62.8047H154.195V64.2656H151.789ZM153.43 67V58.8906H154.969V67H153.43ZM149.266 67L151.094 63.4766L152.602 63.8359L151 67H149.266ZM162.281 67.1172C161.688 67.1172 161.177 67.0026 160.75 66.7734C160.323 66.5391 159.997 66.2031 159.773 65.7656C159.549 65.3229 159.438 64.7917 159.438 64.1719V61.6641C159.438 61.0495 159.549 60.526 159.773 60.0938C159.997 59.6562 160.323 59.3255 160.75 59.1016C161.177 58.8724 161.688 58.7578 162.281 58.7578C162.88 58.7578 163.391 58.8724 163.812 59.1016C164.234 59.3255 164.555 59.6562 164.773 60.0938C164.997 60.526 165.109 61.0495 165.109 61.6641V64.1953C165.109 64.8099 164.997 65.3359 164.773 65.7734C164.555 66.2109 164.234 66.5443 163.812 66.7734C163.391 67.0026 162.88 67.1172 162.281 67.1172ZM162.273 65.6328C162.685 65.6328 163.003 65.5052 163.227 65.25C163.456 64.9948 163.57 64.6328 163.57 64.1641V61.6953C163.57 61.2318 163.456 60.875 163.227 60.625C163.003 60.3698 162.685 60.2422 162.273 60.2422C161.867 60.2422 161.549 60.3698 161.32 60.625C161.091 60.875 160.977 61.2318 160.977 61.6953V64.1641C160.977 64.6276 161.089 64.9896 161.312 65.25C161.542 65.5052 161.862 65.6328 162.273 65.6328ZM169.859 67.1172C169.266 67.1172 168.755 67.0026 168.328 66.7734C167.906 66.5391 167.583 66.2031 167.359 65.7656C167.135 65.3229 167.023 64.7917 167.023 64.1719V61.9844L168.109 60.6406C168.271 60.1302 168.531 59.7422 168.891 59.4766C169.25 59.2057 169.703 59.0703 170.25 59.0703C170.766 59.0703 171.206 59.1849 171.57 59.4141C171.94 59.638 172.219 59.9688 172.406 60.4062C172.599 60.8385 172.695 61.362 172.695 61.9766V64.1953C172.695 64.8099 172.583 65.3359 172.359 65.7734C172.141 66.2109 171.818 66.5443 171.391 66.7734C170.969 67.0026 170.458 67.1172 169.859 67.1172ZM169.852 65.6328C170.263 65.6328 170.583 65.5052 170.812 65.25C171.042 64.9948 171.156 64.6328 171.156 64.1641V62.0078C171.156 61.5443 171.042 61.1875 170.812 60.9375C170.583 60.6823 170.263 60.5547 169.852 60.5547C169.445 60.5547 169.128 60.6823 168.898 60.9375C168.674 61.1875 168.562 61.5443 168.562 62.0078V64.1641C168.562 64.6328 168.674 64.9948 168.898 65.25C169.128 65.5052 169.445 65.6328 169.852 65.6328ZM167.023 59.4531C167.023 58.849 167.125 58.3438 167.328 57.9375C167.536 57.526 167.841 57.2031 168.242 56.9688C168.648 56.7344 169.159 56.5781 169.773 56.5C170.044 56.4583 170.268 56.401 170.445 56.3281C170.622 56.2552 170.753 56.1615 170.836 56.0469C170.924 55.9323 170.969 55.7969 170.969 55.6406H172.453C172.453 56.0573 172.372 56.4089 172.211 56.6953C172.049 56.9766 171.807 57.2031 171.484 57.375C171.161 57.5417 170.753 57.6589 170.258 57.7266C169.867 57.7839 169.544 57.8802 169.289 58.0156C169.034 58.151 168.841 58.3359 168.711 58.5703C168.586 58.7995 168.523 59.0859 168.523 59.4297V62.6719H167.023V59.4531ZM175.555 65.5781H181.859V67H175.555V65.5781ZM177.836 58.8906H179.375V67H177.836V58.8906ZM174.617 58.8906H176.156V67H174.617V58.8906ZM182.344 65.5781H183.883V69.0391H182.344V65.5781ZM181.047 58.8906H182.547V67H181.047V58.8906ZM187.922 67.1172C187.286 67.1172 186.742 66.9948 186.289 66.75C185.841 66.5052 185.497 66.1458 185.258 65.6719C185.023 65.1979 184.906 64.625 184.906 63.9531V62.0859C184.906 61.3828 185.021 60.7839 185.25 60.2891C185.479 59.7943 185.81 59.4167 186.242 59.1562C186.68 58.8958 187.206 58.7656 187.82 58.7656C188.414 58.7656 188.922 58.901 189.344 59.1719C189.766 59.4427 190.086 59.8359 190.305 60.3516C190.529 60.8672 190.641 61.4896 190.641 62.2188V63.5547H186.008V62.2969H189.164V61.8594C189.164 61.3229 189.044 60.9062 188.805 60.6094C188.565 60.3073 188.237 60.1562 187.82 60.1562C187.362 60.1562 187.005 60.3177 186.75 60.6406C186.5 60.9583 186.375 61.4115 186.375 62V63.9922C186.375 64.5234 186.508 64.9349 186.773 65.2266C187.044 65.5182 187.427 65.6641 187.922 65.6641C188.24 65.6641 188.5 65.5911 188.703 65.4453C188.911 65.2995 189.057 65.0885 189.141 64.8125L190.547 65.2656C190.396 65.875 190.099 66.3359 189.656 66.6484C189.214 66.9609 188.635 67.1172 187.922 67.1172ZM195.312 67.1172C194.682 67.1172 194.143 67.0026 193.695 66.7734C193.253 66.5391 192.914 66.2005 192.68 65.7578C192.445 65.3151 192.328 64.7786 192.328 64.1484V61.7734C192.328 61.138 192.445 60.5964 192.68 60.1484C192.914 59.6953 193.253 59.3516 193.695 59.1172C194.143 58.8828 194.682 58.7656 195.312 58.7656C195.828 58.7656 196.273 58.8438 196.648 59C197.023 59.1562 197.326 59.3932 197.555 59.7109C197.784 60.0234 197.938 60.4141 198.016 60.8828L196.602 61.3281C196.523 60.9635 196.375 60.6875 196.156 60.5C195.943 60.3073 195.669 60.2109 195.336 60.2109C194.867 60.2109 194.505 60.349 194.25 60.625C194 60.8958 193.875 61.2786 193.875 61.7734V64.1484C193.875 64.6328 194 65.0078 194.25 65.2734C194.505 65.5391 194.867 65.6719 195.336 65.6719C195.674 65.6719 195.951 65.5807 196.164 65.3984C196.383 65.2109 196.529 64.9375 196.602 64.5781L198.023 65.0547C197.951 65.5078 197.799 65.8906 197.57 66.2031C197.341 66.5104 197.036 66.7396 196.656 66.8906C196.276 67.0417 195.828 67.1172 195.312 67.1172ZM200.375 59.3125H201.914V67H200.375V59.3125ZM198.469 58.8906H203.812V60.3125H198.469V58.8906ZM206.43 65.5781H208.789C209.039 65.5781 209.232 65.5052 209.367 65.3594C209.508 65.2083 209.578 64.9974 209.578 64.7266V64.4219C209.578 64.1094 209.495 63.8672 209.328 63.6953C209.161 63.5234 208.93 63.4375 208.633 63.4375H206.43V62.0156H208.633C208.888 62.0156 209.083 61.9505 209.219 61.8203C209.359 61.6849 209.43 61.4948 209.43 61.25V61.0234C209.43 60.7995 209.367 60.625 209.242 60.5C209.117 60.375 208.945 60.3125 208.727 60.3125H206.43V58.8906H208.859C209.531 58.8906 210.052 59.0521 210.422 59.375C210.792 59.6979 210.977 60.1536 210.977 60.7422V61.0859C210.977 61.5286 210.846 61.8958 210.586 62.1875C210.326 62.474 209.961 62.6589 209.492 62.7422C210.008 62.8359 210.409 63.0469 210.695 63.375C210.982 63.6979 211.125 64.112 211.125 64.6172V65.0312C211.125 65.6562 210.927 66.1406 210.531 66.4844C210.141 66.8281 209.589 67 208.875 67H206.43V65.5781ZM205.492 58.8906H207.031V67H205.492V58.8906ZM215.703 67.1172C215.068 67.1172 214.523 66.9948 214.07 66.75C213.622 66.5052 213.279 66.1458 213.039 65.6719C212.805 65.1979 212.688 64.625 212.688 63.9531V62.0859C212.688 61.3828 212.802 60.7839 213.031 60.2891C213.26 59.7943 213.591 59.4167 214.023 59.1562C214.461 58.8958 214.987 58.7656 215.602 58.7656C216.195 58.7656 216.703 58.901 217.125 59.1719C217.547 59.4427 217.867 59.8359 218.086 60.3516C218.31 60.8672 218.422 61.4896 218.422 62.2188V63.5547H213.789V62.2969H216.945V61.8594C216.945 61.3229 216.826 60.9062 216.586 60.6094C216.346 60.3073 216.018 60.1562 215.602 60.1562C215.143 60.1562 214.786 60.3177 214.531 60.6406C214.281 60.9583 214.156 61.4115 214.156 62V63.9922C214.156 64.5234 214.289 64.9349 214.555 65.2266C214.826 65.5182 215.208 65.6641 215.703 65.6641C216.021 65.6641 216.281 65.5911 216.484 65.4453C216.693 65.2995 216.839 65.0885 216.922 64.8125L218.328 65.2656C218.177 65.875 217.88 66.3359 217.438 66.6484C216.995 66.9609 216.417 67.1172 215.703 67.1172ZM224.461 58.8906H226V67H224.461V58.8906ZM220.305 58.8906H221.844V67H220.305V58.8906ZM221.242 62.3047H225.344V63.7266H221.242V62.3047ZM232.273 58.8906H233.812V67H232.273V58.8906ZM228.117 58.8906H229.656V67H228.117V58.8906ZM229.055 62.3047H233.156V63.7266H229.055V62.3047ZM239.898 61.4609C239.898 61.0339 239.784 60.7031 239.555 60.4688C239.326 60.2292 239.003 60.1094 238.586 60.1094C238.289 60.1094 238.023 60.1797 237.789 60.3203C237.56 60.4557 237.385 60.651 237.266 60.9062L235.961 60.5078C236.112 59.9505 236.417 59.5208 236.875 59.2188C237.333 58.9115 237.904 58.7578 238.586 58.7578C239.174 58.7578 239.677 58.8646 240.094 59.0781C240.516 59.2865 240.836 59.5911 241.055 59.9922C241.273 60.388 241.383 60.8672 241.383 61.4297V67H239.898V61.4609ZM238.172 67.1172C237.339 67.1172 236.714 66.9193 236.297 66.5234C235.885 66.1276 235.68 65.5286 235.68 64.7266C235.68 63.8672 235.896 63.2266 236.328 62.8047C236.766 62.3776 237.422 62.1641 238.297 62.1641H239.969L240.078 63.4688H238.305C237.914 63.4688 237.622 63.5729 237.43 63.7812C237.237 63.9896 237.141 64.3047 237.141 64.7266C237.141 65.0911 237.247 65.362 237.461 65.5391C237.68 65.7161 238.008 65.8047 238.445 65.8047C238.935 65.8047 239.299 65.7214 239.539 65.5547C239.779 65.3828 239.898 65.125 239.898 64.7812L240.062 65.7266C239.99 66.0391 239.87 66.2995 239.703 66.5078C239.542 66.7109 239.333 66.8646 239.078 66.9688C238.823 67.0677 238.521 67.1172 238.172 67.1172ZM245.633 64.2656C245.128 64.2656 244.688 64.1693 244.312 63.9766C243.943 63.7786 243.656 63.5 243.453 63.1406C243.255 62.7812 243.156 62.3568 243.156 61.8672V61.2812C243.156 60.7917 243.258 60.3672 243.461 60.0078C243.669 59.6484 243.966 59.3724 244.352 59.1797C244.737 58.987 245.19 58.8906 245.711 58.8906H248.039V60.3516H245.727C245.424 60.3516 245.185 60.4453 245.008 60.6328C244.831 60.8151 244.742 61.0651 244.742 61.3828V61.7656C244.742 61.9792 244.781 62.1641 244.859 62.3203C244.943 62.4714 245.057 62.5911 245.203 62.6797C245.354 62.763 245.529 62.8047 245.727 62.8047H248.039V64.2656H245.633ZM247.273 67V58.8906H248.812V67H247.273ZM243.109 67L244.938 63.4766L246.445 63.8359L244.844 67H243.109ZM256.125 67.1172C255.531 67.1172 255.021 67.0026 254.594 66.7734C254.167 66.5391 253.841 66.2031 253.617 65.7656C253.393 65.3229 253.281 64.7917 253.281 64.1719V61.6641C253.281 61.0495 253.393 60.526 253.617 60.0938C253.841 59.6562 254.167 59.3255 254.594 59.1016C255.021 58.8724 255.531 58.7578 256.125 58.7578C256.724 58.7578 257.234 58.8724 257.656 59.1016C258.078 59.3255 258.398 59.6562 258.617 60.0938C258.841 60.526 258.953 61.0495 258.953 61.6641V64.1953C258.953 64.8099 258.841 65.3359 258.617 65.7734C258.398 66.2109 258.078 66.5443 257.656 66.7734C257.234 67.0026 256.724 67.1172 256.125 67.1172ZM256.117 65.6328C256.529 65.6328 256.846 65.5052 257.07 65.25C257.299 64.9948 257.414 64.6328 257.414 64.1641V61.6953C257.414 61.2318 257.299 60.875 257.07 60.625C256.846 60.3698 256.529 60.2422 256.117 60.2422C255.711 60.2422 255.393 60.3698 255.164 60.625C254.935 60.875 254.82 61.2318 254.82 61.6953V64.1641C254.82 64.6276 254.932 64.9896 255.156 65.25C255.385 65.5052 255.706 65.6328 256.117 65.6328ZM260.867 58.8906H262.406V70.2969H260.867V58.8906ZM264.18 67.1172C263.732 67.1172 263.344 66.9948 263.016 66.75C262.688 66.5052 262.448 66.1641 262.297 65.7266L262.406 64.25C262.406 64.5573 262.456 64.8203 262.555 65.0391C262.659 65.2578 262.805 65.4271 262.992 65.5469C263.185 65.6615 263.414 65.7188 263.68 65.7188C264.091 65.7188 264.411 65.5807 264.641 65.3047C264.87 65.0286 264.984 64.6406 264.984 64.1406V61.7344C264.984 61.2396 264.87 60.8542 264.641 60.5781C264.411 60.2969 264.091 60.1562 263.68 60.1562C263.414 60.1562 263.185 60.2135 262.992 60.3281C262.805 60.4375 262.659 60.6016 262.555 60.8203C262.456 61.0339 262.406 61.2891 262.406 61.5859L262.242 60.2422C262.451 59.7682 262.729 59.4036 263.078 59.1484C263.432 58.888 263.823 58.7578 264.25 58.7578C264.729 58.7578 265.138 58.8724 265.477 59.1016C265.82 59.3307 266.081 59.6667 266.258 60.1094C266.435 60.5469 266.523 61.0781 266.523 61.7031V64.1641C266.523 64.7839 266.432 65.3151 266.25 65.7578C266.068 66.2005 265.799 66.5391 265.445 66.7734C265.096 67.0026 264.674 67.1172 264.18 67.1172ZM268.445 58.8906H269.984V67H268.445V58.8906ZM269.289 58.8906H272.938V60.3516H269.289V58.8906ZM278.289 61.4609C278.289 61.0339 278.174 60.7031 277.945 60.4688C277.716 60.2292 277.393 60.1094 276.977 60.1094C276.68 60.1094 276.414 60.1797 276.18 60.3203C275.951 60.4557 275.776 60.651 275.656 60.9062L274.352 60.5078C274.503 59.9505 274.807 59.5208 275.266 59.2188C275.724 58.9115 276.294 58.7578 276.977 58.7578C277.565 58.7578 278.068 58.8646 278.484 59.0781C278.906 59.2865 279.227 59.5911 279.445 59.9922C279.664 60.388 279.773 60.8672 279.773 61.4297V67H278.289V61.4609ZM276.562 67.1172C275.729 67.1172 275.104 66.9193 274.688 66.5234C274.276 66.1276 274.07 65.5286 274.07 64.7266C274.07 63.8672 274.286 63.2266 274.719 62.8047C275.156 62.3776 275.812 62.1641 276.688 62.1641H278.359L278.469 63.4688H276.695C276.305 63.4688 276.013 63.5729 275.82 63.7812C275.628 63.9896 275.531 64.3047 275.531 64.7266C275.531 65.0911 275.638 65.362 275.852 65.5391C276.07 65.7161 276.398 65.8047 276.836 65.8047C277.326 65.8047 277.69 65.7214 277.93 65.5547C278.169 65.3828 278.289 65.125 278.289 64.7812L278.453 65.7266C278.38 66.0391 278.26 66.2995 278.094 66.5078C277.932 66.7109 277.724 66.8646 277.469 66.9688C277.214 67.0677 276.911 67.1172 276.562 67.1172ZM286.008 58.8906H287.547V67H286.008V58.8906ZM281.852 58.8906H283.391V67H281.852V58.8906ZM282.789 62.3047H286.891V63.7266H282.789V62.3047ZM293.859 66.9922V61.3594L294.047 61.5625L290.953 66.9922H289.664V58.8906H291.148V64.5859L290.961 64.3828L294.07 58.8906H295.344V66.9922H293.859ZM299.57 67.1172C299.023 67.1172 298.557 67.0234 298.172 66.8359C297.792 66.6432 297.497 66.3594 297.289 65.9844C297.081 65.6094 296.964 65.1458 296.938 64.5938H298.414C298.435 64.9583 298.542 65.237 298.734 65.4297C298.932 65.6172 299.206 65.7109 299.555 65.7109C299.909 65.7109 300.185 65.6224 300.383 65.4453C300.581 65.2682 300.68 65.0208 300.68 64.7031V64.2656C300.68 64.0208 300.602 63.8307 300.445 63.6953C300.289 63.5599 300.065 63.4922 299.773 63.4922H298.664V62.1562H299.773C299.992 62.1562 300.159 62.0964 300.273 61.9766C300.393 61.8516 300.453 61.6771 300.453 61.4531V61.0625C300.453 60.7812 300.365 60.5625 300.188 60.4062C300.016 60.25 299.776 60.1719 299.469 60.1719C299.146 60.1719 298.893 60.2604 298.711 60.4375C298.529 60.6094 298.419 60.8672 298.383 61.2109H296.914C296.971 60.4089 297.219 59.8021 297.656 59.3906C298.099 58.974 298.714 58.7656 299.5 58.7656C300.281 58.7656 300.885 58.9427 301.312 59.2969C301.74 59.651 301.953 60.1536 301.953 60.8047V61.3125C301.953 61.6458 301.872 61.9375 301.711 62.1875C301.549 62.4323 301.302 62.6198 300.969 62.75C301.37 62.8385 301.672 63.0078 301.875 63.2578C302.078 63.5026 302.18 63.8255 302.18 64.2266V64.8281C302.18 65.5521 301.951 66.1146 301.492 66.5156C301.039 66.9167 300.398 67.1172 299.57 67.1172ZM307.867 61.4609C307.867 61.0339 307.753 60.7031 307.523 60.4688C307.294 60.2292 306.971 60.1094 306.555 60.1094C306.258 60.1094 305.992 60.1797 305.758 60.3203C305.529 60.4557 305.354 60.651 305.234 60.9062L303.93 60.5078C304.081 59.9505 304.385 59.5208 304.844 59.2188C305.302 58.9115 305.872 58.7578 306.555 58.7578C307.143 58.7578 307.646 58.8646 308.062 59.0781C308.484 59.2865 308.805 59.5911 309.023 59.9922C309.242 60.388 309.352 60.8672 309.352 61.4297V67H307.867V61.4609ZM306.141 67.1172C305.307 67.1172 304.682 66.9193 304.266 66.5234C303.854 66.1276 303.648 65.5286 303.648 64.7266C303.648 63.8672 303.865 63.2266 304.297 62.8047C304.734 62.3776 305.391 62.1641 306.266 62.1641H307.938L308.047 63.4688H306.273C305.883 63.4688 305.591 63.5729 305.398 63.7812C305.206 63.9896 305.109 64.3047 305.109 64.7266C305.109 65.0911 305.216 65.362 305.43 65.5391C305.648 65.7161 305.977 65.8047 306.414 65.8047C306.904 65.8047 307.268 65.7214 307.508 65.5547C307.747 65.3828 307.867 65.125 307.867 64.7812L308.031 65.7266C307.958 66.0391 307.839 66.2995 307.672 66.5078C307.51 66.7109 307.302 66.8646 307.047 66.9688C306.792 67.0677 306.49 67.1172 306.141 67.1172ZM315.469 58.8906H317.008V67H315.469V58.8906ZM312.367 65.5781H316.312V67H312.367V65.5781ZM311.43 58.8906H312.969V67H311.43V58.8906ZM316.805 65.5781H318.344V69.0391H316.805V65.5781ZM323.984 66.9922V61.3594L324.172 61.5625L321.078 66.9922H319.789V58.8906H321.273V64.5859L321.086 64.3828L324.195 58.8906H325.469V66.9922H323.984ZM329.758 64.2656C329.253 64.2656 328.812 64.1693 328.438 63.9766C328.068 63.7786 327.781 63.5 327.578 63.1406C327.38 62.7812 327.281 62.3568 327.281 61.8672V61.2812C327.281 60.7917 327.383 60.3672 327.586 60.0078C327.794 59.6484 328.091 59.3724 328.477 59.1797C328.862 58.987 329.315 58.8906 329.836 58.8906H332.164V60.3516H329.852C329.549 60.3516 329.31 60.4453 329.133 60.6328C328.956 60.8151 328.867 61.0651 328.867 61.3828V61.7656C328.867 61.9792 328.906 62.1641 328.984 62.3203C329.068 62.4714 329.182 62.5911 329.328 62.6797C329.479 62.763 329.654 62.8047 329.852 62.8047H332.164V64.2656H329.758ZM331.398 67V58.8906H332.938V67H331.398ZM327.234 67L329.062 63.4766L330.57 63.8359L328.969 67H327.234Z" fill="white"/>
</svg>
