<svg width="351" height="62" fill="none" xmlns="http://www.w3.org/2000/svg"><path fill-rule="evenodd" clip-rule="evenodd" d="M11.5.525c0 .277 3.27 4.205 7.268 8.728l7.269 8.224-5.367 6.113-5.367 6.112h6.384L34.331 15.35C41.285 7.457 46.975.778 46.975.51c0-.27-1.217-.49-2.703-.49-2.653 0-2.823.132-8.89 6.914l-6.186 6.913-6.075-6.913C17.103.085 17.02.02 14.273.02 12.748.02 11.5.247 11.5.525Zm161.353.337c-.157.463-.214 7.067-.128 14.676l.158 13.834 2.181.205 2.181.205v-9.314h6.855c5.966 0 7.187-.193 9.407-1.485 3.417-1.987 4.82-4.966 4.515-9.585-.305-4.597-2.756-7.668-6.933-8.685-4.223-1.027-17.876-.916-18.236.149Zm4.826 4.822c-.239.27-.434 2.52-.434 5v4.507h6.609c5.806 0 6.796-.167 8.142-1.368 1.945-1.734 2.095-5.105.31-6.94-1.015-1.044-2.319-1.293-7.708-1.474-3.567-.12-6.68.004-6.919.275Zm26.893 5.054c-3.286 2.537-4.356 4.749-4.356 9.005 0 4.789 1.905 7.97 5.779 9.648 3.759 1.629 13.577 1.169 15.833-.742 4.197-3.554 5.455-9.615 2.984-14.38-2.128-4.1-4.289-5.015-11.852-5.015-5.748 0-6.679.165-8.388 1.484Zm31.119-.233c-1.279.671-3.111 2.169-4.07 3.327-1.542 1.86-1.745 2.57-1.745 6.095 0 3.852.084 4.073 2.428 6.433 2.886 2.905 5.765 4.002 10.506 4.002 4.021 0 7.944-1.378 9.923-3.486l1.373-1.461-2.22-1.113c-2.144-1.073-2.289-1.063-4.243.306-2.74 1.92-7.512 1.95-9.756.06-3.702-3.12-3.917-6.9-.554-9.74 2.317-1.956 8.11-1.956 10.571 0 1.682 1.337 1.824 1.346 3.923.277l2.178-1.11-1.313-1.399c-2.263-2.41-5.318-3.442-10.149-3.427-3.157.01-5.228.384-6.852 1.236Zm27.184.177c-10.714 5.893-5.928 19.66 6.838 19.67 4.778.003 7.609-.886 9.958-3.129l1.853-1.768-2.262-1.133c-2.196-1.098-2.323-1.09-4.287.287-2.676 1.876-7.591 1.88-9.815.007-2.6-2.19-3.351-4.255-2.446-6.73 1.64-4.493 8.869-6.108 12.754-2.85 1.542 1.293 1.703 1.304 3.79.258l2.181-1.093-1.364-1.452c-2.325-2.477-5.332-3.497-10.198-3.462-3.341.025-5.174.39-7.002 1.395Zm-225.649 8.64c-4.553 5.174-8.28 9.626-8.28 9.894 0 .267 1.248.486 2.773.486 2.754 0 2.814-.048 9.15-7.256l6.377-7.255h6.708v14.511h4.652V9.914h-13.1l-8.28 9.408Zm25.451.486v9.894h2.227c1.917 0 3.313-.924 10.032-6.638l7.805-6.639.29 6.474.292 6.473 2.18.205 2.181.205V9.914h-2.367c-2.106 0-3.212.734-10.032 6.66l-7.664 6.662-.166-6.661-.166-6.661h-4.612v9.894Zm29.66 0v9.894h23.262v1.649c0 1.392.272 1.649 1.745 1.649h1.745v-8.575h-3.49V9.914h-4.652v14.511H96.989V9.914h-4.652v9.894Zm29.659.047v9.942l8.687-.212c8.648-.212 8.695-.221 10.414-2.091 2.137-2.325 2.745-5.52 1.627-8.555-1.404-3.81-2.734-4.408-9.808-4.408h-6.267v-2.309c0-2.253-.055-2.308-2.326-2.308h-2.327v9.941Zm24.426-.047v9.894h4.652V9.914h-4.652v9.894Zm138.411 0v9.894h2.337c2.055 0 3.268-.794 10.082-6.596 4.26-3.628 7.92-6.596 8.132-6.596.212 0 .386 2.986.386 6.635v6.637l2.18-.205 2.181-.205.161-9.729.161-9.73h-2.56c-2.347 0-3.186.546-10.151 6.597-4.176 3.628-7.742 6.596-7.924 6.596-.183 0-.332-2.968-.332-6.596V9.914H284.833v9.894Zm29.66 0v9.894h2.227c1.917 0 3.313-.924 10.032-6.637l7.805-6.637.165 6.637.166 6.637h4.612V9.914h-2.362c-2.094 0-3.233.75-10.032 6.606l-7.67 6.606-.166-6.606-.165-6.606h-4.612v9.894Zm-107.639-4.431c-2.387 2.078-2.659 5.315-.663 7.894.741.958 1.904 1.154 6.82 1.154 6.814 0 8.083-.795 8.083-5.065 0-3.858-1.623-4.833-8.003-4.808-3.257.013-5.671.332-6.237.825Zm-80.205 6.41v2.638h5.408c5.321 0 6.805-.522 6.805-2.393 0-2.149-1.79-2.884-7.02-2.884h-5.193v2.639Z" fill="#fff"/><path d="M3.686 59.088c-.524 0-.977-.108-1.36-.322a2.194 2.194 0 0 1-.885-.914c-.207-.395-.31-.864-.31-1.407V53.03c0-.543.103-1.011.31-1.406.207-.395.502-.697.885-.908.383-.215.836-.322 1.36-.322.527 0 .98.107 1.359.322.383.21.678.513.885.908.207.395.31.863.31 1.406v3.416c0 .543-.103 1.012-.31 1.407-.207.394-.502.699-.885.914-.379.215-.832.322-1.36.322Zm0-1.131c.425 0 .763-.133 1.013-.398.25-.266.375-.623.375-1.073v-3.492c0-.453-.125-.81-.375-1.072-.25-.266-.588-.399-1.013-.399-.426 0-.764.133-1.014.399-.246.262-.37.619-.37 1.072v3.492c0 .45.124.807.37 1.073.25.265.588.398 1.014.398Zm6.205 1.13c-.676 0-1.2-.193-1.57-.58-.372-.386-.557-.929-.557-1.628v-1.64l.814-1.008c.121-.383.317-.674.586-.874.27-.203.61-.304 1.02-.304.582 0 1.033.19 1.353.568.32.379.48.916.48 1.611v1.665c0 .695-.185 1.234-.556 1.617-.371.383-.895.574-1.57.574Zm-.006-1.112c.308 0 .549-.096.72-.288.172-.19.258-.462.258-.814v-1.617c0-.348-.086-.615-.258-.803-.171-.191-.412-.287-.72-.287-.305 0-.543.096-.715.287-.168.188-.252.455-.252.803v1.617c0 .352.084.623.252.815.172.19.41.287.715.287Zm-2.121-2.221V53.34c0-.684.173-1.201.521-1.553.348-.355.861-.576 1.541-.662.301-.047.526-.121.674-.223a.484.484 0 0 0 .223-.422h1.113c0 .47-.137.829-.41 1.079-.274.246-.686.408-1.236.486-.434.062-.76.195-.98.398-.214.2-.321.492-.321.88v2.43H7.764ZM14.162 59v-1.066h4.729V59h-4.729Zm1.711 0v-6.082h1.154V59h-1.154Zm-2.414 0v-6.082h1.154V59H13.46Zm5.795 1.53v-2.596h1.154v2.595h-1.154ZM18.28 59v-6.082h1.125V59h-1.125Zm5.157.088c-.715 0-1.272-.205-1.67-.615-.395-.414-.592-1-.592-1.758v-1.4c0-.797.19-1.41.568-1.84.383-.434.922-.65 1.617-.65.668 0 1.188.226 1.559.679.371.45.557 1.086.557 1.91v1.002h-3.48v-.943h2.372v-.328c0-.407-.092-.721-.275-.944-.18-.223-.424-.334-.733-.334-.343 0-.611.12-.802.358-.188.238-.282.58-.282 1.025v1.494c0 .399.102.707.305.926.203.219.488.328.855.328.239 0 .434-.055.586-.164a.86.86 0 0 0 .329-.475l1.054.34c-.113.457-.338.803-.674 1.037-.332.235-.763.352-1.294.352Zm3.45 2.385v-8.555h1.155v8.555h-1.154Zm2.485-2.385c-.332 0-.623-.09-.873-.27a1.563 1.563 0 0 1-.54-.773l.083-1.108c0 .231.037.428.111.592a.897.897 0 0 0 .328.381.991.991 0 0 0 .516.13c.309 0 .549-.105.72-.312.173-.206.259-.498.259-.873v-1.804c0-.371-.086-.66-.258-.867-.172-.211-.412-.317-.721-.317-.2 0-.371.043-.516.13a.827.827 0 0 0-.328.362c-.074.16-.111.354-.111.58l-.123-1.007c.156-.36.367-.635.633-.827.265-.19.556-.287.873-.287.547 0 .967.194 1.26.58.296.383.445.926.445 1.63v1.845c0 .703-.154 1.248-.463 1.635-.305.386-.736.58-1.295.58Zm5.186 0c-.676 0-1.202-.194-1.577-.58-.37-.387-.556-.93-.556-1.63v-1.88c0-.695.185-1.232.556-1.611.375-.38.9-.569 1.577-.569.675 0 1.197.19 1.564.569.371.379.557.916.557 1.611v1.899c0 .695-.186 1.234-.557 1.617-.367.383-.889.574-1.564.574Zm-.006-1.113c.308 0 .547-.096.715-.288.172-.19.257-.462.257-.814v-1.851c0-.348-.085-.616-.257-.803-.168-.192-.407-.287-.715-.287-.305 0-.543.095-.715.287-.172.187-.258.455-.258.803v1.851c0 .352.086.623.258.815.172.19.41.287.715.287Zm5.648 1.113c-.707 0-1.256-.194-1.646-.58-.39-.39-.586-.94-.586-1.647v-1.78c0-.72.195-1.274.586-1.665.39-.394.94-.592 1.646-.592.582 0 1.045.133 1.389.399.344.265.556.662.638 1.19l-1.054.333c-.059-.277-.17-.486-.334-.627a.92.92 0 0 0-.621-.21c-.348 0-.617.103-.809.31-.187.203-.281.49-.281.861v1.781c0 .364.094.645.281.844.192.2.461.299.809.299a.946.946 0 0 0 .627-.205c.164-.14.273-.346.328-.615l1.066.357c-.086.516-.303.902-.65 1.16-.344.258-.807.387-1.389.387Zm5.25 0c-.707 0-1.256-.194-1.646-.58-.39-.39-.586-.94-.586-1.647v-1.78c0-.72.195-1.274.586-1.665.39-.394.94-.592 1.646-.592.582 0 1.045.133 1.389.399.344.265.556.662.638 1.19l-1.054.333c-.059-.277-.17-.486-.334-.627a.92.92 0 0 0-.621-.21c-.348 0-.617.103-.809.31-.187.203-.281.49-.281.861v1.781c0 .364.094.645.281.844.192.2.461.299.809.299a.946.946 0 0 0 .627-.205c.164-.14.273-.346.328-.615l1.066.357c-.086.516-.303.902-.65 1.16-.344.258-.807.387-1.389.387Zm7.424-.094h-1.113V54.77l.14.152-2.32 4.072h-.967v-6.076h1.113v4.272l-.14-.153 2.332-4.119h.955v6.076Zm5.848 0h-1.114V54.77l.141.152-2.32 4.072h-.967v-6.076h1.113v4.272l-.14-.153 2.332-4.119h.955v6.076Zm-2.221-7.248c-.512 0-.902-.15-1.172-.451-.265-.305-.398-.748-.398-1.33v-.205h.931v.21c0 .583.213.874.639.874h.105c.426 0 .64-.291.64-.873v-.211h.93v.205c0 .582-.134 1.025-.404 1.33-.265.3-.654.451-1.166.451h-.105Zm5.895 7.342c-.707 0-1.256-.194-1.647-.58-.39-.39-.586-.94-.586-1.647v-1.78c0-.72.195-1.274.586-1.665.39-.394.94-.592 1.647-.592.581 0 1.044.133 1.388.399.344.265.557.662.639 1.19l-1.055.333c-.059-.277-.17-.486-.334-.627a.92.92 0 0 0-.62-.21c-.349 0-.618.103-.81.31-.187.203-.28.49-.28.861v1.781c0 .364.093.645.28.844.192.2.461.299.81.299a.946.946 0 0 0 .626-.205c.164-.14.274-.346.328-.615l1.067.357c-.086.516-.303.902-.65 1.16-.345.258-.808.387-1.39.387Zm5.59-2.631-.669-.932 1.307-2.607h1.29l-1.929 3.539ZM65.56 59v-6.082h1.154V59H65.56Zm3.246 0-1.465-2.549.873-.703L70.2 59h-1.394Zm-2.666-2.484V55.42h2.127v1.096H66.14ZM73.939 59v-4.154c0-.32-.085-.569-.257-.744-.172-.18-.414-.27-.727-.27-.219 0-.416.053-.592.158a.97.97 0 0 0-.398.44l-.979-.3c.114-.417.342-.74.686-.966.344-.23.771-.346 1.283-.346.664 0 1.18.176 1.547.528.367.347.55.84.55 1.476V59H73.94Zm-1.294.088c-.622 0-1.088-.148-1.4-.445-.313-.297-.47-.746-.47-1.348 0-.645.164-1.125.493-1.442.328-.32.818-.48 1.47-.48h1.254l.082.979h-1.33c-.289 0-.508.078-.656.234-.145.156-.217.392-.217.709 0 .273.08.477.24.61.164.132.41.198.739.198.363 0 .634-.062.814-.187.184-.129.275-.322.275-.58l.124.709c-.055.234-.145.43-.27.586a1.134 1.134 0 0 1-.469.346 1.878 1.878 0 0 1-.68.11Zm7.4-2.139H78.24c-.574 0-1.027-.16-1.36-.48-.331-.325-.497-.764-.497-1.319v-.44c0-.554.172-.991.515-1.312.344-.32.811-.48 1.4-.48h1.747v1.096H78.31c-.227 0-.407.068-.54.205-.132.136-.199.326-.199.568v.287c0 .239.067.428.2.569.132.14.312.21.538.21h1.735v1.096Zm.58 2.051h-1.154v-6.082h1.154V59Zm-2.977 0h-1.3l1.37-2.643 1.132.27L77.648 59Zm9.375.088c-.675 0-1.2-.194-1.576-.58-.37-.387-.556-.93-.556-1.63v-1.88c0-.695.185-1.232.556-1.611.375-.38.9-.569 1.576-.569s1.198.19 1.565.569c.371.379.556.916.556 1.611v1.899c0 .695-.185 1.234-.556 1.617-.367.383-.889.574-1.565.574Zm-.005-1.113c.308 0 .546-.096.714-.288.172-.19.258-.462.258-.814v-1.851c0-.348-.086-.616-.258-.803-.168-.192-.406-.287-.714-.287-.305 0-.543.095-.715.287-.172.187-.258.455-.258.803v1.851c0 .352.086.623.258.815.172.19.41.287.715.287Zm5.689 1.113c-.676 0-1.2-.194-1.57-.58-.371-.387-.557-.93-.557-1.63v-1.64l.814-1.008c.122-.382.317-.673.587-.873.269-.203.609-.304 1.019-.304.582 0 1.033.19 1.353.568.32.379.481.916.481 1.611v1.665c0 .695-.186 1.234-.557 1.617-.37.383-.894.574-1.57.574Zm-.006-1.113c.309 0 .549-.096.72-.288.173-.19.259-.462.259-.814v-1.617c0-.348-.086-.615-.258-.803-.172-.191-.412-.287-.72-.287-.305 0-.544.096-.716.287-.168.188-.252.455-.252.803v1.617c0 .352.084.623.252.815.172.19.41.287.715.287Zm-2.12-2.221V53.34c0-.684.173-1.201.52-1.553.348-.355.862-.576 1.542-.662.3-.047.525-.121.673-.223a.484.484 0 0 0 .223-.422h1.113c0 .47-.136.829-.41 1.079-.273.246-.685.408-1.236.486-.434.062-.76.195-.979.398-.215.2-.322.492-.322.88v2.43H90.58ZM96.977 59v-1.066h4.729V59h-4.728Zm1.712 0v-6.082h1.154V59H98.69Zm-2.415 0v-6.082h1.155V59h-1.155Zm5.795 1.53v-2.596h1.155v2.595h-1.155Zm-.972-1.53v-6.082h1.125V59h-1.125Zm5.156.088c-.715 0-1.272-.205-1.67-.615-.395-.414-.592-1-.592-1.758v-1.4c0-.797.19-1.41.569-1.84.382-.434.921-.65 1.617-.65.668 0 1.187.226 1.558.679.371.45.557 1.086.557 1.91v1.002h-3.481v-.943h2.374v-.328c0-.407-.092-.721-.276-.944-.18-.223-.424-.334-.732-.334-.344 0-.612.12-.803.358-.187.238-.281.58-.281 1.025v1.494c0 .399.101.707.304.926.204.219.489.328.856.328.238 0 .434-.055.586-.164a.864.864 0 0 0 .328-.475l1.055.34c-.114.457-.338.803-.674 1.037-.332.235-.764.352-1.295.352Zm5.537 0c-.707 0-1.256-.194-1.646-.58-.391-.39-.586-.94-.586-1.647v-1.78c0-.72.195-1.274.586-1.665.39-.394.939-.592 1.646-.592.582 0 1.045.133 1.389.399.343.265.556.662.638 1.19l-1.054.333c-.059-.277-.17-.486-.334-.627a.92.92 0 0 0-.621-.21c-.348 0-.618.103-.809.31-.188.203-.281.49-.281.861v1.781c0 .364.093.645.281.844.191.2.461.299.809.299a.95.95 0 0 0 .627-.205c.164-.14.273-.346.328-.615l1.066.357c-.086.516-.303.902-.65 1.16-.344.258-.807.387-1.389.387Zm3.803-.088v-5.766h1.154V59h-1.154Zm-1.43-5.016v-1.066h4.008v1.066h-4.008ZM120.135 59v-1.066h1.769c.188 0 .332-.055.434-.164.105-.114.158-.272.158-.475v-.229c0-.234-.062-.416-.187-.544-.125-.13-.299-.194-.522-.194h-1.652v-1.066h1.652c.399 0 .598-.192.598-.575v-.17c0-.355-.176-.533-.528-.533h-1.722v-1.066h1.822c.504 0 .895.121 1.172.363.277.242.416.584.416 1.026v.258c0 .332-.098.607-.293.826-.195.218-.469.357-.82.416.386.07.687.228.902.474.215.242.322.553.322.932v.31c0 .47-.148.832-.445 1.09-.293.258-.707.387-1.242.387h-1.834Zm-.703 0v-6.082h1.154V59h-1.154Zm7.658.088c-.715 0-1.272-.205-1.67-.615-.395-.414-.592-1-.592-1.758v-1.4c0-.797.19-1.41.568-1.84.383-.434.922-.65 1.618-.65.668 0 1.187.226 1.558.679.371.45.557 1.086.557 1.91v1.002h-3.481v-.943h2.373v-.328c0-.407-.091-.721-.275-.944-.18-.223-.424-.334-.732-.334-.344 0-.612.12-.803.358-.188.238-.281.58-.281 1.025v1.494c0 .399.101.707.304.926.204.219.489.328.856.328.238 0 .433-.055.586-.164a.864.864 0 0 0 .328-.475l1.055.34c-.114.457-.338.803-.674 1.037-.332.235-.764.352-1.295.352Zm6.568-.088v-6.082h1.154V59h-1.154Zm-3.117 0v-6.082h1.154V59h-1.154Zm.703-2.455v-1.067h3.076v1.067h-3.076ZM139.518 59v-6.082h1.154V59h-1.154Zm-3.118 0v-6.082h1.155V59H136.4Zm.704-2.455v-1.067h3.076v1.067h-3.076ZM145.236 59v-4.154c0-.32-.086-.569-.257-.744-.172-.18-.415-.27-.727-.27a1.13 1.13 0 0 0-.592.158.968.968 0 0 0-.398.44l-.979-.3c.113-.417.342-.74.686-.966.343-.23.771-.346 1.283-.346.664 0 1.18.176 1.547.528.367.347.551.84.551 1.476V59h-1.114Zm-1.295.088c-.621 0-1.087-.148-1.4-.445-.312-.297-.469-.746-.469-1.348 0-.645.164-1.125.492-1.442.329-.32.819-.48 1.471-.48h1.254l.082.979h-1.33c-.289 0-.508.078-.656.234-.145.156-.217.392-.217.709 0 .273.08.477.24.61.164.132.41.198.738.198.364 0 .635-.062.815-.187.184-.129.275-.322.275-.58l.123.709c-.054.234-.144.43-.269.586a1.137 1.137 0 0 1-.469.346 1.877 1.877 0 0 1-.68.11Zm7.401-2.139h-1.805c-.574 0-1.027-.16-1.359-.48-.332-.325-.498-.764-.498-1.319v-.44c0-.554.172-.991.515-1.312.344-.32.811-.48 1.401-.48h1.746v1.096h-1.735c-.226 0-.406.068-.539.205-.132.136-.199.326-.199.568v.287c0 .239.067.428.199.569.133.14.313.21.539.21h1.735v1.096Zm.58 2.051h-1.154v-6.082h1.154V59Zm-2.977 0h-1.3l1.371-2.643 1.13.27L148.945 59Zm9.375.088c-.675 0-1.201-.194-1.576-.58-.371-.387-.556-.93-.556-1.63v-1.88c0-.695.185-1.232.556-1.611.375-.38.901-.569 1.576-.569.676 0 1.198.19 1.565.569.371.379.556.916.556 1.611v1.899c0 .695-.185 1.234-.556 1.617-.367.383-.889.574-1.565.574Zm-.006-1.113c.309 0 .547-.096.715-.288.172-.19.258-.462.258-.814v-1.851c0-.348-.086-.616-.258-.803-.168-.192-.406-.287-.715-.287-.304 0-.543.095-.714.287-.172.187-.258.455-.258.803v1.851c0 .352.086.623.258.815.171.19.41.287.714.287Zm3.563 3.498v-8.555h1.154v8.555h-1.154Zm2.484-2.385c-.332 0-.623-.09-.873-.27a1.561 1.561 0 0 1-.539-.773l.082-1.108c0 .231.037.428.112.592a.893.893 0 0 0 .328.381.988.988 0 0 0 .515.13c.309 0 .549-.105.721-.312.172-.206.258-.498.258-.873v-1.804c0-.371-.086-.66-.258-.867-.172-.211-.412-.317-.721-.317a.988.988 0 0 0-.515.13.823.823 0 0 0-.328.362 1.36 1.36 0 0 0-.112.58l-.123-1.007c.156-.36.367-.635.633-.827.266-.19.557-.287.873-.287.547 0 .967.194 1.26.58.297.383.445.926.445 1.63v1.845c0 .703-.154 1.248-.463 1.635-.304.386-.736.58-1.295.58Zm3.2-.088v-6.082h1.154V59h-1.154Zm.632-4.986v-1.096h2.737v1.096h-2.737Zm6.75 4.986v-4.154c0-.32-.086-.569-.257-.744-.172-.18-.415-.27-.727-.27a1.13 1.13 0 0 0-.592.158.968.968 0 0 0-.398.44l-.979-.3c.114-.417.342-.74.686-.966.344-.23.771-.346 1.283-.346.664 0 1.18.176 1.547.528.367.347.551.84.551 1.476V59h-1.114Zm-1.295.088c-.621 0-1.087-.148-1.4-.445-.312-.297-.469-.746-.469-1.348 0-.645.164-1.125.492-1.442.329-.32.819-.48 1.471-.48h1.254l.082.979h-1.33c-.289 0-.508.078-.656.234-.145.156-.217.392-.217.709 0 .273.08.477.24.61.164.132.41.198.739.198.363 0 .634-.062.814-.187.184-.129.275-.322.275-.58l.123.709c-.054.234-.144.43-.269.586a1.13 1.13 0 0 1-.469.346 1.877 1.877 0 0 1-.68.11Zm7.084-.088v-6.082h1.155V59h-1.155Zm-3.117 0v-6.082h1.155V59h-1.155Zm.703-2.455v-1.067h3.077v1.067h-3.077Zm9.416 2.45h-1.113V54.77l.141.152-2.321 4.072h-.966v-6.076h1.113v4.272l-.141-.153 2.332-4.119h.955v6.076Zm3.17.093c-.617 0-1.093-.16-1.429-.48-.332-.32-.514-.792-.545-1.413h1.107c.016.274.096.483.24.627.149.14.354.211.616.211.265 0 .472-.066.621-.199.148-.133.222-.318.222-.557v-.328a.536.536 0 0 0-.175-.427c-.118-.102-.286-.153-.504-.153h-.832v-1.002h.832c.164 0 .289-.045.375-.135a.548.548 0 0 0 .134-.392v-.293c0-.211-.064-.375-.193-.492-.129-.117-.311-.176-.545-.176-.238 0-.428.066-.568.2-.137.128-.219.321-.246.58h-1.102c.043-.602.229-1.057.557-1.366.332-.313.793-.469 1.383-.469.586 0 1.039.133 1.359.399.32.265.48.642.48 1.13v.381c0 .239-.058.453-.175.645-.118.187-.305.332-.563.434.301.066.527.193.68.38.152.184.228.426.228.727v.451c0 .543-.17.965-.509 1.266-.34.3-.823.45-1.448.45Zm6.223-.088v-4.154c0-.32-.086-.569-.258-.744-.172-.18-.414-.27-.726-.27a1.13 1.13 0 0 0-.592.158.97.97 0 0 0-.399.44l-.978-.3c.113-.417.342-.74.685-.966.344-.23.772-.346 1.284-.346.664 0 1.179.176 1.546.528.368.347.551.84.551 1.476V59h-1.113Zm-1.295.088c-.621 0-1.088-.148-1.4-.445-.313-.297-.469-.746-.469-1.348 0-.645.164-1.125.492-1.442.328-.32.818-.48 1.471-.48h1.254l.082.979h-1.33c-.289 0-.508.078-.657.234-.144.156-.216.392-.216.709 0 .273.08.477.24.61.164.132.41.198.738.198.363 0 .635-.062.815-.187.183-.129.275-.322.275-.58l.123.709c-.055.234-.145.43-.27.586a1.134 1.134 0 0 1-.468.346 1.881 1.881 0 0 1-.68.11Zm6.996-.088v-6.082h1.154V59h-1.154Zm-2.326 0v-1.066h2.959V59h-2.959Zm-.703 0v-6.082h1.154V59h-1.154Zm4.031 1.53v-2.596h1.154v2.595h-1.154Zm6.498-1.536h-1.113V54.77l.14.152-2.32 4.072h-.967v-6.076h1.114v4.272l-.141-.153 2.332-4.119h.955v6.076Zm5.022-2.045h-1.805c-.574 0-1.027-.16-1.359-.48-.332-.325-.498-.764-.498-1.319v-.44c0-.554.171-.991.515-1.312.344-.32.811-.48 1.401-.48h1.746v1.096h-1.735c-.226 0-.406.068-.539.205-.133.136-.199.326-.199.568v.287c0 .239.066.428.199.569.133.14.313.21.539.21h1.735v1.096Zm.58 2.051h-1.155v-6.082h1.155V59Zm-2.977 0h-1.301l1.371-2.643 1.131.27L212.953 59Zm10.459-6.082h1.172l-2.209 7.506c-.117.394-.316.678-.598.85-.277.175-.66.263-1.148.263h-.205v-1.102h.205c.25 0 .445-.052.586-.158.14-.101.248-.265.322-.492l1.875-6.867Zm-1.447 6.568-2.151-6.568h1.172l1.588 5.267-.609 1.301Zm3.123-.433v-1.078a.631.631 0 0 0 .562-.293c.129-.196.194-.477.194-.844v-3.92h1.154v4.055c0 .675-.154 1.191-.463 1.547-.305.355-.748.533-1.33.533h-.117Zm3.416-.053v-6.082h1.154V59h-1.154Zm-1.916-4.986v-1.096h2.508v1.096h-2.508Zm8.912 4.98h-1.113V54.77l.14.152-2.32 4.072h-.967v-6.076h1.114v4.272l-.141-.153 2.332-4.119h.955v6.076Zm4.623.006v-6.082h1.154V59h-1.154Zm-1.201-1.846c-.594 0-1.053-.174-1.377-.521-.324-.352-.486-.848-.486-1.489v-2.226h1.154v2.238c0 .285.074.506.223.662.152.157.365.235.638.235.336 0 .594-.088.774-.264.183-.18.275-.43.275-.75v-.838h.375v.826c0 .676-.139 1.2-.416 1.57-.273.372-.66.557-1.16.557Zm7.06 1.846v-6.082h1.155V59h-1.155Zm-3.117 0v-6.082h1.155V59h-1.155Zm.703-2.455v-1.067h3.077v1.067h-3.077Zm7.143 2.543c-.676 0-1.201-.194-1.576-.58-.371-.387-.557-.93-.557-1.63v-1.88c0-.695.186-1.232.557-1.611.375-.38.9-.569 1.576-.569s1.197.19 1.564.569c.371.379.557.916.557 1.611v1.899c0 .695-.186 1.234-.557 1.617-.367.383-.888.574-1.564.574Zm-.006-1.113c.309 0 .547-.096.715-.288.172-.19.258-.462.258-.814v-1.851c0-.348-.086-.616-.258-.803-.168-.192-.406-.287-.715-.287-.305 0-.543.095-.715.287-.172.187-.258.455-.258.803v1.851c0 .352.086.623.258.815.172.19.41.287.715.287Zm7.822 1.02h-1.113V54.77l.141.152-2.321 4.072h-.966v-6.076h1.113v4.272l-.141-.153 2.332-4.119h.955v6.076Zm-2.22-7.249c-.512 0-.903-.15-1.172-.451-.266-.305-.399-.748-.399-1.33v-.205h.932v.21c0 .583.213.874.639.874h.105c.426 0 .639-.291.639-.873v-.211h.931v.205c0 .582-.134 1.025-.404 1.33-.266.3-.654.451-1.166.451h-.105Zm9.058 4.711-.668-.932 1.307-2.607h1.289l-1.928 3.539ZM262.939 59v-6.082h1.155V59h-1.155Zm3.247 0-1.465-2.549.873-.703L267.58 59h-1.394Zm-2.666-2.484V55.42h2.126v1.096h-2.126Zm7.892-3.598h1.172l-2.209 7.506c-.117.394-.316.678-.598.85-.277.175-.66.263-1.148.263h-.205v-1.102h.205c.25 0 .445-.052.586-.158.14-.101.248-.265.322-.492l1.875-6.867Zm-1.447 6.568-2.151-6.568h1.172l1.588 5.267-.609 1.301Zm3.123-.433v-1.078a.631.631 0 0 0 .562-.293c.129-.196.194-.477.194-.844v-3.92h1.154v4.055c0 .675-.154 1.191-.463 1.547-.305.355-.748.533-1.33.533h-.117Zm3.416-.053v-6.082h1.154V59h-1.154Zm-1.916-4.986v-1.096h2.508v1.096h-2.508ZM279.82 59v-1.096h1.705c.227 0 .407-.068.539-.205.133-.14.2-.33.2-.568v-.229c0-.242-.067-.431-.2-.568-.132-.14-.312-.211-.539-.211h-1.705v-1.096h1.776c.574 0 1.027.163 1.359.487.332.32.498.758.498 1.312v.381c0 .55-.172.988-.515 1.313-.34.32-.807.48-1.401.48h-1.717Zm-.58 0v-6.082h1.155V59h-1.155Zm6.147 0v-5.766h1.154V59h-1.154Zm-1.43-5.016v-1.066h4.008v1.066h-4.008Zm8.338-1.066h1.172l-2.209 7.506c-.117.394-.317.678-.598.85-.277.175-.66.263-1.148.263h-.205v-1.102h.205c.25 0 .445-.052.586-.158.14-.101.248-.265.322-.492l1.875-6.867Zm-1.447 6.568-2.151-6.568h1.172l1.588 5.267-.609 1.301Zm3.533 1.987v-8.555h1.154v8.555h-1.154Zm2.484-2.385c-.332 0-.623-.09-.873-.27a1.561 1.561 0 0 1-.539-.773l.082-1.108c0 .231.037.428.111.592a.902.902 0 0 0 .329.381.988.988 0 0 0 .515.13c.309 0 .549-.105.721-.312.172-.206.258-.498.258-.873v-1.804c0-.371-.086-.66-.258-.867-.172-.211-.412-.317-.721-.317a.988.988 0 0 0-.515.13.831.831 0 0 0-.329.362c-.074.16-.111.354-.111.58l-.123-1.007c.156-.36.367-.635.633-.827.266-.19.557-.287.873-.287.547 0 .967.194 1.26.58.297.383.445.926.445 1.63v1.845c0 .703-.154 1.248-.463 1.635-.305.386-.736.58-1.295.58Zm7.864-.088v-6.082h1.154V59h-1.154Zm-4.038 0v-1.096h1.436c.23 0 .41-.068.539-.205.133-.14.199-.33.199-.568v-.229c0-.242-.066-.431-.199-.568-.129-.14-.309-.211-.539-.211h-1.436v-1.096h1.512c.57 0 1.022.163 1.354.487.332.32.5.758.504 1.312v.381c0 .55-.172.988-.516 1.313-.34.32-.807.48-1.4.48h-1.454Zm-.627 0v-6.082h1.155V59h-1.155Zm14.456-.006h-1.114V54.77l.141.152-2.32 4.072h-.967v-6.076h1.113v4.272l-.141-.153 2.332-4.119h.956v6.076Zm6.498.094c-.707 0-1.256-.194-1.647-.58-.391-.39-.586-.94-.586-1.647v-1.78c0-.72.195-1.274.586-1.665.391-.394.94-.592 1.647-.592.582 0 1.044.133 1.388.399.344.265.557.662.639 1.19l-1.055.333c-.058-.277-.17-.486-.334-.627a.92.92 0 0 0-.621-.21c-.347 0-.617.103-.808.31-.188.203-.282.49-.282.861v1.781c0 .364.094.645.282.844.191.2.461.299.808.299a.946.946 0 0 0 .627-.205c.164-.14.274-.346.328-.615l1.067.357c-.086.516-.303.902-.651 1.16-.344.258-.806.387-1.388.387Zm6.281-.088v-6.082h1.154V59h-1.154Zm-3.117 0v-6.082h1.154V59h-1.154Zm.703-4.986v-1.096h3.047v1.096h-3.047Zm7.142 5.074c-.675 0-1.201-.194-1.576-.58-.371-.387-.556-.93-.556-1.63v-1.88c0-.695.185-1.232.556-1.611.375-.38.901-.569 1.576-.569.676 0 1.198.19 1.565.569.371.379.556.916.556 1.611v1.899c0 .695-.185 1.234-.556 1.617-.367.383-.889.574-1.565.574Zm-.006-1.113c.309 0 .547-.096.715-.288.172-.19.258-.462.258-.814v-1.851c0-.348-.086-.616-.258-.803-.168-.192-.406-.287-.715-.287-.304 0-.542.095-.714.287-.172.187-.258.455-.258.803v1.851c0 .352.086.623.258.815.172.19.41.287.714.287Zm3.563 3.498v-8.555h1.154v8.555h-1.154Zm2.484-2.385c-.332 0-.623-.09-.873-.27a1.568 1.568 0 0 1-.539-.773l.082-1.108c0 .231.037.428.112.592a.893.893 0 0 0 .328.381.988.988 0 0 0 .515.13c.309 0 .549-.105.721-.312.172-.206.258-.498.258-.873v-1.804c0-.371-.086-.66-.258-.867-.172-.211-.412-.317-.721-.317a.988.988 0 0 0-.515.13.823.823 0 0 0-.328.362 1.36 1.36 0 0 0-.112.58l-.123-1.007c.156-.36.367-.635.633-.827.266-.19.557-.287.873-.287.547 0 .967.194 1.26.58.297.383.445.926.445 1.63v1.845c0 .703-.154 1.248-.463 1.635-.304.386-.736.58-1.295.58Zm3.838-.088v-5.766h1.155V59h-1.155Zm-1.429-5.016v-1.066h4.007v1.066h-4.007ZM348.721 59v-4.154c0-.32-.086-.569-.258-.744-.172-.18-.414-.27-.727-.27-.218 0-.416.053-.591.158a.97.97 0 0 0-.399.44l-.978-.3a1.62 1.62 0 0 1 .685-.966c.344-.23.772-.346 1.283-.346.664 0 1.18.176 1.547.528.367.347.551.84.551 1.476V59h-1.113Zm-1.295.088c-.621 0-1.088-.148-1.401-.445-.312-.297-.468-.746-.468-1.348 0-.645.164-1.125.492-1.442.328-.32.818-.48 1.471-.48h1.253l.082.979h-1.33c-.289 0-.507.078-.656.234-.144.156-.217.392-.217.709 0 .273.08.477.241.61.164.132.41.198.738.198.363 0 .635-.062.814-.187.184-.129.276-.322.276-.58l.123.709c-.055.234-.145.43-.27.586a1.13 1.13 0 0 1-.469.346 1.872 1.872 0 0 1-.679.11Z" fill="#fff"/></svg>