<svg width="48" height="49" viewBox="0 0 48 49" fill="none" xmlns="http://www.w3.org/2000/svg">
<g id="ri:vk-line">
<path id="Vector" d="M11.6596 12.1616C10.9719 12.8593 10.5201 13.8389 10.2682 15.7C10.0104 17.6291 10.0084 20.184 10.0084 23.8603V25.1397C10.0084 28.81 10.0104 31.3628 10.2682 33.2899C10.5181 35.1531 10.9719 36.1386 11.6616 36.8423C12.3613 37.528 13.3408 37.9818 15.1999 38.2317C17.129 38.4896 19.6838 38.4935 23.3601 38.4935H24.6395C28.3098 38.4935 30.8626 38.4896 32.7917 38.2317C34.6528 37.9818 35.6384 37.528 36.342 36.8383C37.0277 36.1406 37.4815 35.1611 37.7314 33.2999C37.9912 31.3708 37.9932 28.816 37.9932 25.1397V23.8603C37.9932 20.1899 37.9893 17.6371 37.7334 15.71C37.4815 13.8469 37.0277 12.8613 36.338 12.1576C35.6404 11.4719 34.6608 11.0182 32.7997 10.7683C30.8706 10.5104 28.3158 10.5064 24.6395 10.5064H23.3601C19.6898 10.5064 17.137 10.5104 15.2099 10.7683C13.3468 11.0182 12.3633 11.4719 11.6596 12.1616ZM23.3601 6.50823H24.6395C27.5281 6.50823 30.4608 6.42227 33.3294 6.80609C35.6404 7.11595 37.5974 7.77764 39.1607 9.32493L39.1767 9.34293C40.722 10.9102 41.3857 12.8673 41.6955 15.1802C42.0773 18.0449 41.9914 20.9756 41.9914 23.8603V25.1397C41.9914 28.0264 42.0793 30.959 41.6935 33.8297C41.3857 36.1406 40.722 38.0977 39.1747 39.661L39.1567 39.677C37.5914 41.2223 35.6344 41.884 33.3194 42.1959C30.4548 42.5777 27.5242 42.4917 24.6395 42.4917H23.3601C20.4735 42.4917 17.5408 42.5777 14.6722 42.1939C12.3593 41.884 10.4022 41.2223 8.8409 39.675L8.82291 39.657C7.27963 38.0897 6.61594 36.1326 6.30609 33.8197C5.92227 30.957 6.00823 28.0264 6.00823 25.1397V23.8603C6.00823 20.9736 5.92227 18.0409 6.30809 15.1703C6.61594 12.8593 7.27963 10.9022 8.82691 9.33893L8.8429 9.32294C10.4102 7.77764 12.3672 7.11595 14.6802 6.80409C17.5468 6.42426 20.4775 6.50823 23.3601 6.50823ZM12.0774 17.4592C12.2693 26.8149 16.9471 32.4283 25.1513 32.4283H25.631V27.0788C28.6416 27.3787 30.9206 29.5856 31.8321 32.4283H36.0901C35.6533 30.8131 34.8791 29.3087 33.8184 28.0145C32.7578 26.7202 31.435 25.6655 29.937 24.9198C31.2795 24.1024 32.4389 23.0169 33.3428 21.7312C34.2467 20.4454 34.8758 18.9871 35.1906 17.4472H31.3284C30.4888 20.4218 27.9939 23.1206 25.631 23.3725V17.4592H21.7569V27.8224C19.358 27.2227 16.3354 24.3201 16.2035 17.4592H12.0774Z" fill="white"/>
</g>
</svg>
