<svg width="48" height="49" viewBox="0 0 48 49" fill="none" xmlns="http://www.w3.org/2000/svg">
<g id="ant-design:youtube-outlined">
<path id="Vector" d="M45 24.3707C45 24.2692 45 24.1537 44.9953 24.0199C44.9906 23.6459 44.9813 23.2258 44.9719 22.7779C44.9344 21.4898 44.8688 20.2064 44.7656 18.9968C44.625 17.3301 44.4187 15.9404 44.1375 14.897C43.8407 13.8082 43.2589 12.8151 42.4503 12.0171C41.6417 11.219 40.6346 10.644 39.5297 10.3495C38.2031 9.99861 35.6062 9.78162 31.95 9.64774C30.2109 9.5831 28.35 9.54155 26.4891 9.51847C25.8375 9.50923 25.2328 9.50462 24.6891 9.5H23.3109C22.7672 9.50462 22.1625 9.50923 21.5109 9.51847C19.65 9.54155 17.7891 9.5831 16.05 9.64774C12.3937 9.78624 9.79219 10.0032 8.47031 10.3495C7.365 10.6433 6.35751 11.2181 5.5488 12.0162C4.74009 12.8143 4.15856 13.8078 3.8625 14.897C3.57656 15.9404 3.375 17.3301 3.23438 18.9968C3.13125 20.2064 3.06562 21.4898 3.02812 22.7779C3.01406 23.2258 3.00937 23.6459 3.00469 24.0199C3.00469 24.1537 3 24.2692 3 24.3707V24.6293C3 24.7308 3 24.8463 3.00469 24.9801C3.00937 25.3541 3.01875 25.7742 3.02812 26.2221C3.06562 27.5102 3.13125 28.7936 3.23438 30.0032C3.375 31.6699 3.58125 33.0596 3.8625 34.103C4.4625 36.3144 6.225 38.0596 8.47031 38.6505C9.79219 39.0014 12.3937 39.2184 16.05 39.3523C17.7891 39.4169 19.65 39.4584 21.5109 39.4815C22.1625 39.4908 22.7672 39.4954 23.3109 39.5H24.6891C25.2328 39.4954 25.8375 39.4908 26.4891 39.4815C28.35 39.4584 30.2109 39.4169 31.95 39.3523C35.6062 39.2138 38.2078 38.9968 39.5297 38.6505C41.775 38.0596 43.5375 36.319 44.1375 34.103C44.4234 33.0596 44.625 31.6699 44.7656 30.0032C44.8688 28.7936 44.9344 27.5102 44.9719 26.2221C44.9859 25.7742 44.9906 25.3541 44.9953 24.9801C44.9953 24.8463 45 24.7308 45 24.6293V24.3707ZM41.625 24.6108C41.625 24.7078 41.625 24.8139 41.6203 24.9386C41.6156 25.2987 41.6063 25.6958 41.5969 26.1251C41.5641 27.3532 41.4984 28.5813 41.4 29.7216C41.2734 31.2082 41.0953 32.4271 40.875 33.2442C40.5844 34.3107 39.7312 35.1556 38.6531 35.4372C37.6687 35.6958 35.1891 35.9035 31.8187 36.0282C30.1125 36.0928 28.275 36.1343 26.4422 36.1574C25.8 36.1667 25.2047 36.1713 24.6703 36.1713H23.3297L21.5578 36.1574C19.725 36.1343 17.8922 36.0928 16.1813 36.0282C12.8109 35.8989 10.3266 35.6958 9.34687 35.4372C8.26875 35.151 7.41563 34.3107 7.125 33.2442C6.90469 32.4271 6.72656 31.2082 6.6 29.7216C6.50156 28.5813 6.44063 27.3532 6.40313 26.1251C6.38906 25.6958 6.38438 25.2941 6.37969 24.9386C6.37969 24.8139 6.375 24.7031 6.375 24.6108V24.3892C6.375 24.2922 6.375 24.1861 6.37969 24.0614C6.38438 23.7013 6.39375 23.3042 6.40313 22.8749C6.43594 21.6468 6.50156 20.4187 6.6 19.2784C6.72656 17.7918 6.90469 16.5729 7.125 15.7558C7.41563 14.6893 8.26875 13.8444 9.34687 13.5628C10.3312 13.3042 12.8109 13.0965 16.1813 12.9718C17.8875 12.9072 19.725 12.8657 21.5578 12.8426C22.2 12.8333 22.7953 12.8287 23.3297 12.8287H24.6703L26.4422 12.8426C28.275 12.8657 30.1078 12.9072 31.8187 12.9718C35.1891 13.1011 37.6734 13.3042 38.6531 13.5628C39.7312 13.849 40.5844 14.6893 40.875 15.7558C41.0953 16.5729 41.2734 17.7918 41.4 19.2784C41.4984 20.4187 41.5594 21.6468 41.5969 22.8749C41.6109 23.3042 41.6156 23.7059 41.6203 24.0614C41.6203 24.1861 41.625 24.2969 41.625 24.3892V24.6108ZM19.8281 30.6865L30.7031 24.4538L19.8281 18.3135V30.6865Z" fill="white"/>
</g>
</svg>
