<svg width="257" height="196" viewBox="0 0 257 196" fill="none" xmlns="http://www.w3.org/2000/svg">
<g clip-path="url(#clip0_727_1807)">
<path d="M158.051 0.595648C150.576 2.37074 144.089 7.32621 138.838 15.2402C136.593 18.6424 136.223 20.3066 137.273 22.5255C137.726 23.487 137.953 23.6719 138.694 23.6719C139.518 23.6719 139.744 23.45 141 21.416C147.796 10.5436 158.504 5.18131 168.801 7.58508C175.288 9.10131 180.662 13.2062 185.152 20.0847C185.914 21.2311 186.758 22.2666 187.067 22.4145C188.22 22.9323 189.456 21.0462 189.456 18.7164C189.456 15.8319 183.69 8.28772 178.871 4.84848C176.091 2.88848 172.652 1.29829 169.542 0.558668C166.659 -0.106993 160.893 -0.106993 158.051 0.595648Z" fill="#1540EC"/>
<path d="M98.6405 1.29637C86.7172 4.25487 77.2651 16.0518 72.5081 34.0247C69.2544 46.3024 68.4101 60.7251 70.1399 74.6669C71.499 85.5764 74.2173 94.4888 78.6654 102.477C82.9899 110.28 88.0352 115.346 94.2954 118.194C98.6199 120.191 104.86 120.745 109.637 119.636C117.112 117.861 123.97 112.388 128.686 104.437C130.477 101.404 130.704 100.48 129.942 99.1115C129.715 98.7047 129.345 98.3718 129.118 98.3718C128.912 98.3718 127.903 99.6292 126.915 101.182C120.346 111.352 112.047 116.271 102.656 115.642C91.2889 114.828 82.0014 105.805 76.359 90.0141C71.8903 77.5145 70.5929 59.2088 73.1259 43.8986C75.8441 27.553 82.8869 14.5726 92.1949 8.76656C101.318 3.03448 111.882 4.25487 120.469 12.0209C124.897 16.0149 126.75 19.0103 135.193 35.7998C137.355 40.0526 139.353 43.7877 139.662 44.0096C140.485 44.6752 141.268 43.7137 141.268 42.0496C141.268 40.9401 140.609 39.5349 135.543 29.55C132.392 23.3741 129.221 17.3462 128.5 16.1628C123.723 8.39675 116.845 3.03448 109.493 1.29637C106.589 0.630714 101.379 0.630714 98.6405 1.29637Z" fill="#1540EC"/>
<path d="M193.574 4.075C193.162 4.81462 193.162 5.29537 193.162 60.4712C193.162 115.647 193.162 116.128 193.574 116.867C194.068 117.755 194.871 117.829 195.304 117.015C195.592 116.498 195.633 110.876 195.633 60.5082C195.633 6.77462 195.613 4.51877 195.263 3.96405C194.748 3.11349 194.068 3.18745 193.574 4.075Z" fill="#1540EC"/>
<path d="M199.34 4.07491C198.928 4.81452 198.928 5.29528 198.928 60.5821C198.928 114.168 198.948 116.424 199.298 116.978C199.793 117.792 200.637 117.755 201.049 116.941C201.378 116.313 201.399 111.838 201.399 60.3972C201.399 6.77453 201.378 4.51868 201.028 3.96396C200.513 3.1134 199.834 3.18736 199.34 4.07491Z" fill="#1540EC"/>
<path d="M205.147 3.92696L204.694 4.48168V60.4341C204.694 114.168 204.715 116.424 205.065 116.978C205.559 117.792 206.404 117.755 206.815 116.941C207.145 116.313 207.165 111.838 207.165 60.3602V4.48168L206.712 3.92696C206.465 3.59414 206.115 3.33527 205.93 3.33527C205.745 3.33527 205.394 3.59414 205.147 3.92696Z" fill="#1540EC"/>
<path d="M210.81 3.99942C210.481 4.6281 210.46 9.10281 210.46 60.5436C210.46 114.166 210.481 116.422 210.831 116.977C211.366 117.864 212.231 117.753 212.602 116.792C212.89 116.052 212.931 113.501 212.931 96.4523V76.9262H215.67L218.388 76.9632L224.772 96.3783C228.293 107.066 231.362 116.2 231.609 116.718C231.959 117.384 232.268 117.605 232.947 117.605C234.224 117.568 234.966 116.274 234.966 114.055C234.966 112.983 221.683 72.3036 220.818 70.7134C220.386 69.9368 220.221 69.8998 216.638 69.8998C213.055 69.8998 212.931 69.8628 212.931 69.1602C212.931 68.4206 213.034 68.4206 217.4 68.4945L221.868 68.6055L229.859 92.4583C234.245 105.587 238.055 116.607 238.281 116.94C238.775 117.679 239.928 117.827 240.567 117.199C241.102 116.681 241.576 114.647 241.411 113.501C241.349 113.02 237.499 101.297 232.886 87.4289C226.687 68.9013 224.319 62.1338 223.928 61.8379C223.578 61.5421 221.704 61.3941 218.182 61.3941C213.652 61.3941 212.931 61.3202 212.931 60.8394C212.931 60.3587 213.755 60.2847 219.171 60.2847H225.41L234.78 88.0575C239.908 103.294 244.335 116.2 244.582 116.718C244.933 117.421 245.241 117.605 245.962 117.605C246.724 117.605 246.951 117.421 247.424 116.422C247.857 115.535 247.96 114.943 247.898 113.944C247.836 112.983 245.015 104.329 238.075 83.7677C232.721 67.9028 228.129 54.5526 227.902 54.0719L227.49 53.2583H220.2C213.075 53.2583 212.931 53.2583 212.931 52.5187C212.931 51.779 213.075 51.779 220.921 51.779H228.891L239.887 84.1745C245.942 101.962 251.09 116.792 251.316 117.088C251.811 117.716 252.943 117.753 253.54 117.199C254.138 116.644 254.549 114.61 254.344 113.316C254.096 111.836 231.753 46.1949 231.238 45.3813C230.826 44.7896 230.085 44.7526 221.868 44.7526H212.931V24.7828C212.931 5.29376 212.931 4.813 212.519 4.07338C212.004 3.14886 211.242 3.11187 210.81 3.99942Z" fill="#1540EC"/>
<path d="M233.668 3.96184C233.504 4.33165 231.3 10.6184 228.808 17.9407C224.216 31.3649 223.846 32.7701 224.505 33.9535C224.875 34.6192 226.008 34.5083 226.358 33.7317C227.12 32.1415 235.789 6.29165 235.789 5.58901C235.789 3.73995 234.348 2.6675 233.668 3.96184Z" fill="#1540EC"/>
<path d="M239.661 3.77732C239.105 4.5909 230.023 31.5132 230.023 32.3637C230.023 33.5841 230.703 34.4717 231.486 34.3237C232.124 34.2128 232.33 33.695 236.84 20.5298C241.7 6.40298 241.988 5.29354 241.226 3.92524C240.835 3.2226 240.114 3.14864 239.661 3.77732Z" fill="#1540EC"/>
<path d="M245.508 3.95992C245.282 4.32973 243.037 10.6165 240.545 17.9758C235.809 31.8437 235.48 33.138 236.386 34.0256C237.003 34.5803 237.745 34.4694 238.095 33.7297C238.28 33.3969 240.463 27.1101 242.975 19.7878C245.941 11.1343 247.526 6.14181 247.526 5.47615C247.526 4.44067 246.888 3.33124 246.27 3.33124C246.085 3.33124 245.735 3.62709 245.508 3.95992Z" fill="#1540EC"/>
<path d="M251.893 3.96129C251.398 4.7379 241.946 30.8836 241.802 31.882C241.761 32.2519 241.864 32.9545 242.049 33.5092C242.337 34.2858 242.543 34.4337 243.161 34.3228C243.902 34.2119 243.923 34.1379 248.907 20.3439C252.304 10.9507 253.911 6.14318 253.911 5.47752C253.911 4.44205 253.272 3.33261 252.654 3.33261C252.469 3.33261 252.119 3.62846 251.893 3.96129Z" fill="#1540EC"/>
<path d="M27.9858 4.66424C27.6564 5.29292 27.5122 5.99556 27.5122 6.95707C27.5122 7.91858 29.6539 16.979 34.9463 38.465L42.4009 68.6046L27.8005 68.7895C15.177 68.9375 13.1589 69.0484 12.8912 69.5292C12.4794 70.3427 1.64746 114.609 1.64746 115.571C1.64746 117.346 3.08897 118.27 3.76853 116.939C3.99506 116.495 13.406 78.8114 14.5592 73.671C14.6416 73.3382 17.7511 73.2273 29.139 73.2273H43.6159L43.8218 74.2258C43.9248 74.8175 44.0895 75.5571 44.1719 75.8899C44.3161 76.5186 43.5953 76.5556 30.7453 76.5556C20.2017 76.5556 17.0922 76.6665 16.8451 76.9993C16.392 77.665 7.61942 114.128 7.61942 115.386C7.61942 117.272 8.69025 118.27 9.53456 117.124C9.7199 116.902 11.7998 108.692 14.168 98.9292L18.4513 81.1782L31.9397 81.0673L45.4281 80.9933L45.7781 82.2876C45.9635 83.0273 46.1282 83.7669 46.1282 83.9518C46.1282 84.1737 41.4742 84.3216 33.5048 84.3216C21.7256 84.3216 20.8401 84.3586 20.5518 84.9503C20.1811 85.7639 13.3854 114.609 13.3854 115.386C13.3854 117.235 14.7034 118.27 15.4447 117.05C15.6507 116.717 17.2775 110.245 19.0691 102.627L22.3228 88.7593H34.8639H47.3844L47.6933 90.0537C47.8374 90.7563 47.9816 91.422 47.9816 91.5329C47.9816 91.6439 42.7922 91.7178 36.4701 91.7178C25.803 91.7178 24.9381 91.7548 24.5468 92.3465C24.0526 93.1601 19.3574 114.054 19.3574 115.46C19.3574 117.383 20.6136 118.344 21.3755 116.939C21.5608 116.606 22.7346 111.762 23.9908 106.214L26.2354 96.1556L37.7469 96.2295L49.2378 96.3405L51.6883 106.251C53.0269 111.725 54.283 116.495 54.4684 116.865C55.5804 119.084 57.8662 117.346 57.8662 114.313C57.8662 113.685 32.4545 10.0635 31.2807 5.84763C30.8071 4.18349 30.354 3.70273 29.2832 3.70273C28.7066 3.70273 28.3565 3.96159 27.9858 4.66424Z" fill="#1540EC"/>
<path d="M33.8958 4.84949C33.6075 5.47817 33.3604 6.4027 33.3604 6.92044C33.3604 8.06685 59.8429 115.645 60.3989 116.754C61.6757 119.306 64.2086 116.976 63.7555 113.722C63.4261 111.429 37.0259 4.96043 36.6346 4.33176C36.3669 3.96194 35.8521 3.70308 35.3167 3.70308C34.5753 3.70308 34.3282 3.88799 33.8958 4.84949Z" fill="#1540EC"/>
<path d="M39.9916 4.44426C39.4768 5.29483 39.2296 6.66313 39.3944 7.88351C39.6209 9.84351 65.9799 116.016 66.4329 116.867C67.4626 118.753 69.3777 117.644 69.7072 114.981C69.8102 114.093 67.4626 104.256 56.4248 59.4352C48.7848 28.3711 42.8334 4.70313 42.5863 4.33332C41.9891 3.44577 40.5682 3.48275 39.9916 4.44426Z" fill="#1540EC"/>
<path d="M45.8195 4.66084C45.49 5.28953 45.3047 6.10311 45.3047 6.87971C45.3047 7.65632 49.794 26.3318 58.5048 61.6488C65.7741 91.0857 71.8284 115.641 71.9931 116.159C72.8581 119.228 75.5763 117.934 75.5763 114.495C75.5763 113.311 72.6933 101.33 62.2939 59.171C55.004 29.5861 48.8467 4.99368 48.6202 4.51292C48.0024 3.29254 46.4991 3.36651 45.8195 4.66084Z" fill="#1540EC"/>
<path d="M159.595 8.91471C154.117 10.1721 148.804 13.7223 145.015 18.6777C143.182 21.0445 141.02 24.5947 140.67 25.7781C139.99 28.1449 140.938 31.0664 142.379 31.0664C142.997 31.0664 143.347 30.6596 144.706 28.4407C149.298 20.8966 154.529 16.9396 161.407 15.8302C169.273 14.5358 176.913 18.7517 181.938 27.0724C183.689 30.0309 184.286 30.5117 185.254 29.957C186.16 29.4023 186.572 28.2928 186.572 26.4438C186.572 25.0755 186.448 24.7426 185.006 22.2649C180.888 15.2385 175.184 10.5419 168.923 9.06263C166.535 8.47093 161.757 8.39697 159.595 8.91471Z" fill="#1540EC"/>
<path d="M101.543 9.65768C94.4801 10.6562 88.2816 15.4637 83.5246 23.6365C81.0947 27.8524 79.509 31.7354 78.0263 37.1716C76.6878 42.1271 75.9258 46.4539 75.4316 51.9271C75.0197 56.5867 75.1639 67.5701 75.6787 71.749C77.5527 86.9482 82.5156 98.7082 89.929 105.513C95.0979 110.246 101.193 112.317 107.248 111.356C114.558 110.209 120.757 105.587 125.328 97.8947C126.646 95.7128 126.852 95.1581 126.852 94.0856C126.852 93.1611 126.729 92.6803 126.337 92.2365C125.658 91.423 125.308 91.7188 123.496 94.6403C120.159 100.003 116.185 103.627 111.449 105.624C108.463 106.881 102.82 107.251 99.7725 106.4C89.6819 103.516 82.0008 92.3475 78.9942 76.1867C77.9851 70.7135 77.738 67.6071 77.738 60.4698C77.738 55.4033 77.841 53.0735 78.1293 50.6698C80.4975 31.1807 88.1786 18.1633 99.3606 14.7241C101.461 14.0954 102.388 14.0215 105.436 14.1694C111.387 14.5022 115.814 16.869 120.118 21.9354C122.404 24.672 123.949 27.1867 127.799 34.583C133.174 44.9007 132.927 44.4939 133.586 44.235C134.286 43.9392 134.678 43.0516 134.678 41.9052C134.678 40.389 125.884 23.7475 123.104 19.9754C117.4 12.2464 109.616 8.51126 101.543 9.65768Z" fill="#1540EC"/>
<path d="M160.46 17.4596C158.462 17.9034 155.559 19.2347 153.479 20.677C149.154 23.7094 144.15 31.2166 144.15 34.7668C144.15 37.3185 145.448 38.9826 146.766 38.0581C147.075 37.8732 147.816 36.7268 148.413 35.5064C151.584 29.2196 156.341 25.3366 162.128 24.3751C166.308 23.6355 170.571 24.9668 174.051 28.1102C176.193 30.0332 177.243 31.3645 179.282 34.8038C180.888 37.5404 181.053 37.7253 181.918 37.7253C182.7 37.7253 182.906 37.5404 183.38 36.5419C183.854 35.5434 183.915 35.0996 183.833 33.8423C183.73 32.5479 183.483 31.9562 181.959 29.3675C177.058 21.0468 171.045 16.9049 164.023 17.0528C162.89 17.0898 161.284 17.2747 160.46 17.4596Z" fill="#1540EC"/>
<path d="M101.73 18.3449C98.3317 19.1215 95.0368 20.8966 92.6686 23.1895C85.0904 30.5487 80.9307 43.8249 80.9307 60.6514C80.9307 76.9231 85.317 90.8649 92.5863 97.7065C96.0047 100.887 99.1966 102.366 103.48 102.699C110.749 103.217 117.401 99.0748 122.158 91.0499C123.311 89.0899 123.558 88.4612 123.558 87.4997C123.558 85.9834 123.229 85.4287 122.384 85.4287C121.828 85.4287 121.437 85.8355 120.407 87.5736C117.298 92.751 113.365 96.2272 108.937 97.6695C106.548 98.4461 101.833 98.2982 99.5055 97.3366C95.6546 95.7465 91.9891 92.2702 89.4561 87.7955C82.7017 75.8136 81.4249 55.1782 86.4908 39.868C87.5204 36.7616 90.0122 31.991 91.7626 29.7351C98.3523 21.2665 108.381 20.3789 115.712 27.5902C118.019 29.8461 119.625 32.2499 123.002 38.4257C124.794 41.717 126.4 44.3797 126.606 44.3797C127.306 44.3797 127.883 43.3072 127.883 41.9759C127.883 40.8665 127.553 40.0899 124.855 35.1344C121.581 29.0695 119.192 25.5932 116.762 23.3374C114.785 21.4883 112.088 19.7872 109.926 19.0476C108.258 18.4559 103.171 18.0121 101.73 18.3449Z" fill="#1540EC"/>
<path d="M162.273 25.7773C156.816 26.7758 151.935 31.1396 149.114 37.5004C147.796 40.4588 147.569 41.4943 147.858 43.1215C148.167 44.7487 148.784 45.4883 149.794 45.4883C150.494 45.4883 150.7 45.2664 151.338 43.9351C154.056 38.166 156.363 35.4664 159.966 33.8022C161.532 33.0626 162.499 32.8407 164.435 32.8407C169.398 32.8038 172.713 35.3924 176.564 42.3449C178.191 45.2664 178.356 45.4883 179.159 45.4883C180.374 45.4883 181.012 44.2679 181.012 41.9381C181.012 40.2 180.992 40.126 178.912 36.4279C176.482 32.1381 174.237 29.4755 171.581 27.7373C168.842 25.9622 165.3 25.2226 162.273 25.7773Z" fill="#1540EC"/>
<path d="M101.461 27.3729C97.1987 28.7412 93.3067 32.6982 90.8149 38.2084C89.4558 41.1669 87.8907 46.9729 87.2935 51.2257C86.614 55.9593 86.614 64.8718 87.2729 69.6793C89.0233 82.2159 94.0892 91.0544 100.885 93.3472C103.109 94.1238 107.042 94.1238 109.081 93.3472C112.808 91.9789 116.247 88.8355 118.842 84.4348C120.366 81.8461 120.634 80.5887 119.892 79.4053C119.171 78.222 118.512 78.6287 116.947 81.1804C114.456 85.2853 111.758 87.7261 108.298 88.9835C106.074 89.797 102.285 89.5382 100.185 88.4287C95.819 86.1359 92.277 80.5148 90.609 73.2665C88.941 65.9442 88.7968 57.4016 90.2177 49.7835C92.2564 38.874 97.2193 32.2914 103.933 31.5518C107.145 31.2189 110.172 32.3284 113.055 34.954C114.765 36.5072 115.815 37.9125 117.812 41.2778C118.801 42.9789 119.769 44.3842 119.954 44.3842C120.325 44.3842 121.292 42.794 121.292 42.1653C121.292 40.6491 118.883 36.1374 116.536 33.2899C114.826 31.182 112.19 29.0001 110.234 28.0386C108.442 27.188 103.253 26.7812 101.461 27.3729Z" fill="#1540EC"/>
<path d="M126.605 76.0346C125.905 76.7003 125.493 78.8821 125.781 80.2505C126.132 81.7667 137.664 104.103 139.373 106.581C144.233 113.533 149.628 117.749 156.609 120.042C159.06 120.856 166.082 121.152 168.903 120.56C176.42 119.044 183.689 113.386 188.219 105.62C189.146 104.029 189.249 103.696 189.249 102.254C189.249 100.923 189.146 100.479 188.611 99.7025C187.54 98.0754 186.922 98.3712 184.801 101.404C182.433 104.806 181.197 106.211 178.664 108.393C174.669 111.795 170.448 113.496 165.135 113.792C157.206 114.273 149.958 110.834 144.171 103.918C141.576 100.775 140.67 99.2218 134.513 87.092C131.506 81.175 128.85 76.1825 128.623 75.9237C128.047 75.332 127.285 75.3689 126.605 76.0346Z" fill="#1540EC"/>
<path d="M134.162 75.8909C133.483 76.5936 133.256 77.4072 133.235 79.0343C133.235 80.8464 132.947 80.1807 137.992 90.0547C143.244 100.298 144.829 102.702 148.783 106.252C153.89 110.838 159.018 112.687 165.422 112.317C169.335 112.058 171.724 111.356 174.833 109.507C178.725 107.14 183.256 102.185 185.603 97.7098C186.818 95.343 186.921 93.7528 185.974 92.0517C185.006 90.3506 184.203 90.5355 182.638 92.9023C177.119 101.371 172.403 104.773 165.463 105.291C158.215 105.846 151.234 102.037 146.209 94.7883C145.509 93.8268 143.141 89.426 140.937 85.0623C138.734 80.6985 136.633 76.7415 136.283 76.2607C135.583 75.3732 134.801 75.2253 134.162 75.8909Z" fill="#1540EC"/>
<path d="M141.288 76.4056C140.752 77.2192 140.649 77.626 140.649 78.9943C140.649 80.5845 140.732 80.8064 143.429 86.1686C146.683 92.6034 147.816 94.4524 149.875 96.7822C154.323 101.775 159.842 104.252 165.649 103.809C172.198 103.328 177.367 99.4449 181.959 91.6418C182.762 90.2366 183.545 88.6094 183.689 88.0177C184.224 85.6879 183.277 83.2101 181.835 83.2101C181.053 83.2101 180.847 83.432 179.282 86.1317C177.305 89.5339 175.184 92.0856 173.001 93.7498C166.123 98.9641 157.474 97.4109 151.358 89.8298C149.875 88.0177 148.845 86.2426 146.107 80.6585C143.326 75.0373 142.606 74.4086 141.288 76.4056Z" fill="#1540EC"/>
<path d="M148.661 76.5184C148.208 77.369 148.063 77.9607 148.063 79.0701C148.063 80.2905 148.249 80.9931 149.196 83.138C154.365 94.972 165.485 98.966 173.496 91.7916C175.349 90.1644 177.408 87.3539 179.221 83.9886C180.93 80.8822 181.012 80.6233 181.012 79.1071C180.992 76.7033 180.291 75.446 178.932 75.446C178.356 75.446 178.026 75.8897 176.791 78.1826C173.475 84.4694 170.16 87.5018 165.876 88.2044C161.222 88.9811 155.498 85.209 152.862 79.6248C150.988 75.6678 150.823 75.446 150.02 75.446C149.464 75.446 149.114 75.7418 148.661 76.5184Z" fill="#1540EC"/>
<path d="M2.71843 144.12C2.61547 144.675 2.03887 147.042 1.48286 149.298L0.432617 153.477H1.42108C2.32717 153.477 2.43013 153.366 2.55369 152.552C2.67725 151.701 2.78021 151.628 3.80986 151.628C4.83951 151.628 4.96307 151.738 5.1484 152.552C5.31315 153.366 5.47789 153.477 6.28101 153.477C6.79584 153.477 7.2077 153.403 7.2077 153.329C7.2077 153.255 6.67228 150.999 5.99271 148.262L4.79832 143.307L3.87164 143.196C3.00674 143.085 2.90377 143.159 2.71843 144.12ZM4.32468 148.743C4.32468 148.928 4.09816 149.039 3.83045 149.039C3.35682 149.039 3.33622 148.965 3.56275 147.929L3.78927 146.82L4.05698 147.671C4.20113 148.114 4.30409 148.595 4.32468 148.743Z" fill="#1540EC"/>
<path d="M9.14344 143.489C8.91692 143.637 8.48446 144.302 8.17557 144.931C6.85762 147.779 7.45482 152.179 9.32877 153.437C10.5232 154.25 12.2942 153.659 12.9531 152.216C13.2208 151.625 13.1797 151.477 12.6442 150.7C12.15 149.997 11.9853 149.923 11.7381 150.293C11.2027 151.107 10.8115 151.181 10.1319 150.7C8.93751 149.776 9.06107 146.743 10.3378 145.929C10.8732 145.597 11.141 145.708 11.7793 146.521C12.0676 146.891 12.2118 146.817 12.6648 146.077C13.3238 144.968 13.3238 144.746 12.5207 143.859C11.7999 143.082 9.96716 142.86 9.14344 143.489Z" fill="#1540EC"/>
<path d="M15.1153 143.491C14.477 143.935 13.6327 145.932 13.4885 147.337C13.2826 149.297 13.715 151.479 14.5182 152.589C15.7537 154.29 17.9366 154.142 18.8633 152.33C19.2339 151.59 19.2133 151.553 18.6367 150.703C18.1219 150 17.9572 149.926 17.7101 150.296C17.1746 151.11 16.7834 151.184 16.1038 150.703C14.9094 149.778 15.033 146.746 16.3097 145.932C16.8452 145.599 17.1129 145.71 17.7512 146.524C18.0395 146.894 18.1837 146.82 18.6367 146.08C19.2957 144.971 19.2957 144.749 18.4926 143.861C17.7718 143.085 15.9391 142.863 15.1153 143.491Z" fill="#1540EC"/>
<path d="M20.778 143.97C18.2245 147.002 19.4807 153.881 22.5902 153.844C23.7434 153.807 25.0408 152.66 25.4526 151.181C25.9057 149.628 25.9057 146.743 25.4526 145.523C24.5466 143.082 22.1784 142.269 20.778 143.97ZM23.4139 146.262C24.1965 147.224 24.1759 149.665 23.3934 150.589C22.9609 151.107 22.0342 150.885 21.6224 150.145C21.0663 149.147 21.1075 147.705 21.7253 146.632C22.3019 145.56 22.7756 145.486 23.4139 146.262Z" fill="#1540EC"/>
<path d="M26.7705 148.295V153.473H29.0357H31.301V154.582C31.301 155.617 31.3421 155.691 32.1247 155.691H32.9484V153.288C32.9484 151.143 32.9072 150.884 32.5365 150.884C32.1453 150.884 32.1247 150.625 32.1247 147.001V143.118H31.301H30.4772V147.001V150.884H29.4476H28.4179V147.001V143.118H27.5942H26.7705V148.295Z" fill="#1540EC"/>
<path d="M33.7725 148.299V153.477H34.658C35.5435 153.477 35.5846 153.44 36.5731 150.851L37.5822 148.188L37.6439 150.851L37.7057 153.477H38.5088H39.3326V148.262V143.085L38.4677 143.196C37.6439 143.307 37.541 143.455 36.6555 145.711L35.7288 148.114L35.667 145.6L35.6052 143.122H34.6991H33.7725V148.299Z" fill="#1540EC"/>
<path d="M41.2475 148.299L39.9707 153.477H40.9798C41.8653 153.477 41.9682 153.366 42.0918 152.552C42.2153 151.701 42.3183 151.628 43.3274 151.628C44.2952 151.628 44.4394 151.738 44.6453 152.552C44.8512 153.329 45.016 153.477 45.8191 153.477C46.3339 153.477 46.7458 153.403 46.7458 153.329C46.7458 153.255 46.1898 150.962 45.5308 148.262L44.2952 143.307L43.4097 143.196L42.5036 143.085L41.2475 148.299ZM43.6362 147.929C43.8216 148.965 43.801 149.039 43.3479 149.039C42.8949 149.039 42.8743 148.965 43.1008 147.929C43.2244 147.301 43.3479 146.82 43.3685 146.82C43.3891 146.82 43.5127 147.301 43.6362 147.929Z" fill="#1540EC"/>
<path d="M47.3643 148.295V153.473H49.7324H52.1006V154.582C52.1006 155.617 52.1418 155.691 52.9244 155.691H53.7481V153.288C53.7481 151.143 53.7069 150.884 53.3362 150.884C52.9449 150.884 52.9244 150.625 52.9244 147.001V143.118H51.9977H51.071V147.001V150.884H50.1443H49.2176V147.001V143.118H48.2909H47.3643V148.295Z" fill="#1540EC"/>
<path d="M54.5713 148.334V153.512L55.4362 153.401C56.2599 153.29 56.3629 153.142 57.2484 150.886L58.1751 148.482L58.2368 150.96L58.2986 153.475H59.2047H60.1314V148.297V143.12H59.2459C58.3604 143.12 58.3192 143.157 57.3307 145.746L56.3217 148.408L56.2599 145.746L56.1981 143.12H55.395H54.5713V148.334Z" fill="#1540EC"/>
<path d="M62.2727 143.492C60.9754 144.416 60.5429 147.744 61.449 149.668C61.9021 150.629 61.9226 150.777 61.6343 151.443C60.8518 153.366 60.8724 153.477 61.9226 153.477C62.8081 153.477 62.9729 153.366 63.2818 152.367C63.4877 151.738 63.8378 151.258 64.0643 151.258C64.3526 151.258 64.4556 151.517 64.4556 152.367C64.4556 153.403 64.4968 153.477 65.2793 153.477H66.103V148.299V143.122L64.4144 143.159C63.4671 143.159 62.4992 143.307 62.2727 143.492ZM64.4556 147.19C64.4556 148.447 64.3938 148.669 64.0231 148.669C63.3847 148.669 62.8081 148.003 62.8081 147.264C62.8081 146.302 63.22 145.711 63.879 145.711C64.4144 145.711 64.4556 145.821 64.4556 147.19Z" fill="#1540EC"/>
<path d="M72.5493 143.825C71.6844 144.787 71.252 146.377 71.252 148.485C71.252 150.704 71.7462 152.183 72.7964 153.107C73.8261 153.995 74.9587 154.069 75.9266 153.218C76.8738 152.405 76.9768 151.776 76.3384 150.593C75.8236 149.668 75.7824 149.668 75.3911 150.297C74.4645 151.813 73.1053 150.667 73.1053 148.411C73.1053 146.155 74.2997 145.008 75.3294 146.303C75.7412 146.821 75.8236 146.784 76.2972 146.192C76.5649 145.822 76.812 145.341 76.812 145.119C76.8326 143.344 73.8055 142.42 72.5493 143.825Z" fill="#1540EC"/>
<path d="M77.0176 144.416C77.0176 145.71 77.0176 145.71 77.9443 145.71H78.8709V149.593V153.476H79.6947H80.5184V149.593V145.71H81.4245C82.207 145.71 82.3512 145.599 82.4129 144.897C82.4541 144.342 82.7424 145.045 83.4632 147.485C84.3693 150.592 84.4104 150.851 84.0398 151.073C83.8338 151.183 83.525 151.22 83.4014 151.183C83.1337 151.073 82.7218 152.996 82.9072 153.55C83.0719 154.031 84.3899 153.883 85.0282 153.328C85.4195 152.959 85.9755 151.516 86.861 148.595C88.6114 142.826 88.5702 143.122 87.4788 143.122C86.5727 143.122 86.5727 143.122 85.9549 145.377L85.3371 147.633L84.7399 145.377L84.1427 143.122H80.5802H77.0176V144.416Z" fill="#1540EC"/>
<path d="M89.497 146.076C89.3322 149.516 89.1057 150.884 88.6526 150.884C88.4055 150.884 88.3438 151.365 88.3438 153.288V155.691H89.1675C89.95 155.691 89.9912 155.617 89.9912 154.582V153.473H91.6386H93.2861V154.582C93.2861 155.654 93.3272 155.691 94.2127 155.691H95.1394V153.288C95.1394 151.143 95.0982 150.884 94.7276 150.884C94.3363 150.884 94.3157 150.625 94.3157 147.001V143.118H91.9681H89.6411L89.497 146.076ZM92.4623 148.295V150.884H91.618C90.8355 150.884 90.7737 150.81 90.8973 150.033C90.9591 149.59 91.0208 148.443 91.0208 147.445V145.707H91.7416H92.4623V148.295Z" fill="#1540EC"/>
<path d="M95.7568 148.299V153.477H98.125H100.493V152.182V150.888H99.0517C97.7544 150.888 97.6102 150.814 97.6102 150.148C97.6102 149.483 97.7544 149.409 98.8458 149.409H100.081V148.299V147.19H98.8458C97.7544 147.19 97.6102 147.116 97.6102 146.45C97.6102 145.784 97.7544 145.711 99.0517 145.711H100.493V144.416V143.122H98.125H95.7568V148.299Z" fill="#1540EC"/>
<path d="M101.523 148.299V153.477H102.45H103.377V151.628V149.778H104.303H105.23V151.628V153.477H106.157H107.084V148.299V143.122H106.157H105.23V144.971V146.82H104.303H103.377V144.971V143.122H102.45H101.523V148.299Z" fill="#1540EC"/>
<path d="M107.742 145.637C107.906 149.483 108.462 150.518 110.378 150.518H111.407V151.997V153.477H112.334H113.261V148.299V143.122H112.334H111.407V145.304C111.407 146.931 111.325 147.523 111.078 147.708C110.089 148.373 109.554 147.412 109.554 144.934V143.122H108.607H107.639L107.742 145.637Z" fill="#1540EC"/>
<path d="M114.497 148.299V153.477H116.762H119.028V152.182V150.888H117.586C116.289 150.888 116.145 150.814 116.145 150.148C116.145 149.483 116.289 149.409 117.38 149.409H118.616V148.299V147.19H117.38C116.289 147.19 116.145 147.116 116.145 146.45C116.145 145.784 116.289 145.711 117.586 145.711H119.028V144.416V143.122H116.762H114.497V148.299Z" fill="#1540EC"/>
<path d="M121.375 143.489C120.737 143.933 119.893 145.93 119.728 147.372C119.357 150.922 120.778 153.844 122.837 153.844C123.702 153.844 124.773 153.104 125.164 152.254C125.411 151.736 125.37 151.514 124.855 150.737C124.361 149.961 124.238 149.887 123.949 150.368C123.476 151.144 122.384 150.996 121.911 150.146C121.355 149.147 121.396 147.705 122.014 146.632C122.611 145.56 122.981 145.486 123.785 146.337C124.361 146.928 124.382 146.928 124.897 146.078C125.556 144.968 125.556 144.746 124.752 143.859C124.032 143.082 122.199 142.86 121.375 143.489Z" fill="#1540EC"/>
<path d="M126.029 148.299V153.477H126.956H127.883V151.628C127.883 150.37 127.965 149.778 128.15 149.778C128.295 149.778 128.686 150.592 129.015 151.628C129.612 153.44 129.633 153.477 130.601 153.477C131.136 153.477 131.589 153.366 131.589 153.181C131.569 153.033 131.219 151.849 130.786 150.555L129.983 148.225L130.786 145.969C131.219 144.749 131.589 143.603 131.589 143.418C131.589 143.27 131.178 143.122 130.683 143.122C129.798 143.122 129.757 143.159 129.118 145.156C128.768 146.265 128.336 147.19 128.171 147.19C127.965 147.19 127.883 146.672 127.883 145.156V143.122H126.956H126.029V148.299Z" fill="#1540EC"/>
<path d="M132.207 148.299V153.477H133.093C133.978 153.477 134.019 153.44 135.008 150.851L136.017 148.188L136.079 150.851L136.14 153.477H136.943H137.767V148.299V143.122H136.943C136.161 143.122 136.079 143.233 135.09 145.784L134.06 148.41V145.784V143.122H133.134H132.207V148.299Z" fill="#1540EC"/>
<path d="M138.591 143.344C138.591 143.455 138.961 144.527 139.414 145.711C139.868 146.894 140.238 148.077 140.238 148.336C140.238 148.558 139.826 149.815 139.291 151.11L138.364 153.477H139.497C140.568 153.477 140.629 153.403 141.062 152.145L141.515 150.851L142.03 152.145C142.483 153.366 142.606 153.477 143.533 153.477C144.11 153.477 144.563 153.403 144.563 153.255C144.563 153.144 144.213 152.108 143.78 150.962C143.348 149.815 142.936 148.669 142.854 148.447C142.771 148.225 142.977 147.375 143.286 146.598C143.615 145.784 144.027 144.712 144.233 144.12L144.604 143.122H143.492C142.483 143.122 142.359 143.233 142.03 144.231C141.824 144.823 141.597 145.341 141.515 145.341C141.433 145.341 141.185 144.823 141 144.231C140.671 143.233 140.527 143.122 139.6 143.122C139.044 143.122 138.591 143.196 138.591 143.344Z" fill="#1540EC"/>
<path d="M150.431 143.862C148.537 146.118 148.702 151.369 150.74 153.181C151.914 154.254 153.603 153.921 154.509 152.479C154.859 151.887 154.838 151.813 154.344 150.888C153.809 149.89 153.809 149.89 153.088 150.519C152.264 151.295 151.688 151.11 151.255 150.038C150.802 148.891 150.884 147.449 151.42 146.525C151.996 145.563 152.429 145.489 153.232 146.34C153.809 146.931 153.829 146.931 154.344 146.081C154.632 145.6 154.859 145.082 154.859 144.934C154.859 144.786 154.55 144.306 154.159 143.899C153.232 142.863 151.296 142.826 150.431 143.862Z" fill="#1540EC"/>
<path d="M155.477 148.299V153.477H156.403H157.33V149.594V145.711H158.257H159.183V149.594V153.477H160.11H161.037V148.299V143.122H158.257H155.477V148.299Z" fill="#1540EC"/>
<path d="M163.59 143.495C163.034 143.902 162.107 145.899 161.943 147.045C161.86 147.563 161.86 148.598 161.943 149.338C162.272 153.073 164.599 154.922 166.7 153.11C167.75 152.186 168.244 150.706 168.244 148.488C168.244 145.048 167.132 143.125 165.155 143.162C164.537 143.162 163.837 143.31 163.59 143.495ZM165.999 146.38C166.967 147.822 166.308 150.965 165.032 150.965C164.373 150.965 163.714 149.745 163.714 148.488C163.714 147.304 164.476 145.714 165.052 145.714C165.299 145.714 165.732 146.01 165.999 146.38Z" fill="#1540EC"/>
<path d="M169.274 148.299V153.477H170.098C170.901 153.477 170.922 153.44 170.922 152.219V150.962L172.199 150.814C173.764 150.592 174.423 149.52 174.423 147.153C174.423 144.12 173.558 143.122 170.922 143.122H169.274V148.299ZM172.322 146.043C172.487 146.191 172.569 146.746 172.528 147.227C172.487 147.966 172.322 148.151 171.704 148.225C170.942 148.336 170.922 148.336 170.922 147.042C170.922 145.821 170.984 145.711 171.498 145.711C171.807 145.711 172.178 145.858 172.322 146.043Z" fill="#1540EC"/>
<path d="M174.628 144.416C174.628 145.674 174.649 145.711 175.452 145.711H176.275V149.594V153.477H177.202H178.129V149.594V145.711H178.952C179.756 145.711 179.776 145.674 179.776 144.416V143.122H177.202H174.628V144.416Z" fill="#1540EC"/>
<path d="M180.601 148.299V153.477H181.486C182.33 153.477 182.372 153.403 183.278 151.036L184.204 148.558L184.266 151.036L184.328 153.477H185.234H186.161V148.299V143.122H185.296C184.431 143.159 184.39 143.196 183.339 146.006L182.248 148.854V145.969V143.122H181.424H180.601V148.299Z" fill="#1540EC"/>
<path d="M187.396 148.262V153.477H189.517C191.905 153.477 192.42 153.107 192.647 151.221C192.75 150.333 192.688 149.815 192.358 149.002C192.111 148.41 192.008 147.892 192.132 147.744C192.255 147.634 192.338 146.894 192.338 146.117C192.338 143.824 191.844 143.344 189.434 143.196L187.396 143.048V148.262ZM190.546 145.932C190.814 146.45 190.402 147.19 189.846 147.19C189.393 147.19 189.249 147.005 189.249 146.45C189.249 145.895 189.393 145.711 189.825 145.711C190.155 145.711 190.464 145.821 190.546 145.932ZM190.67 149.741C191.185 150.333 190.752 151.258 189.97 151.258C189.331 151.258 189.249 151.147 189.249 150.333C189.249 149.557 189.352 149.409 189.825 149.409C190.134 149.409 190.505 149.557 190.67 149.741Z" fill="#1540EC"/>
<path d="M193.573 148.299V153.477H194.5H195.427V151.628V149.778H196.353H197.28V151.628V153.477H198.207H199.133V148.299V143.122H198.207H197.28V144.971V146.82H196.353H195.427V144.971V143.122H194.5H193.573V148.299Z" fill="#1540EC"/>
<path d="M200.369 148.299V153.477H202.223C204.941 153.477 205.517 152.811 205.517 149.741C205.517 147.486 204.838 146.45 203.355 146.45H202.223V144.786V143.122H201.296H200.369V148.299ZM203.54 149.261C203.726 149.557 203.87 149.889 203.87 149.963C203.87 150.444 203.149 151.258 202.717 151.258C202.284 151.258 202.223 151.073 202.223 149.963C202.223 148.854 202.284 148.669 202.717 148.669C203.005 148.669 203.376 148.928 203.54 149.261Z" fill="#1540EC"/>
<path d="M205.93 148.299V153.477H206.856H207.783V148.299V143.122H206.856H205.93V148.299Z" fill="#1540EC"/>
<path d="M208.606 143.381C208.606 143.529 208.977 144.601 209.43 145.748C209.883 146.931 210.254 148.04 210.254 148.262C210.254 148.447 209.821 149.741 209.307 151.073L208.359 153.477H209.471C210.48 153.477 210.604 153.366 210.933 152.367C211.139 151.738 211.387 151.258 211.49 151.258C211.592 151.258 211.84 151.738 212.046 152.367C212.375 153.366 212.499 153.477 213.487 153.477C214.084 153.477 214.578 153.403 214.578 153.292C214.578 153.218 214.146 152.034 213.631 150.703L212.684 148.262L213.528 145.969C214.002 144.675 214.373 143.529 214.373 143.381C214.373 143.233 213.919 143.122 213.343 143.122C212.416 143.122 212.293 143.233 212.004 144.231C211.819 144.823 211.613 145.341 211.531 145.341C211.448 145.341 211.201 144.823 211.016 144.231C210.686 143.233 210.542 143.122 209.616 143.122C209.06 143.122 208.606 143.233 208.606 143.381Z" fill="#1540EC"/>
<path d="M219.314 148.299V153.477H220.241H221.168V151.628C221.168 150.37 221.25 149.778 221.436 149.778C221.58 149.778 221.971 150.592 222.3 151.628C222.898 153.44 222.918 153.477 223.886 153.477C224.422 153.477 224.875 153.366 224.875 153.181C224.854 153.033 224.504 151.849 224.071 150.555L223.268 148.225L223.968 146.228C225.06 143.159 225.06 143.122 223.989 143.122C223.104 143.122 223.062 143.159 222.383 145.156C222.012 146.265 221.58 147.19 221.436 147.19C221.25 147.19 221.168 146.561 221.168 145.156V143.122H220.241H219.314V148.299Z" fill="#1540EC"/>
<path d="M226.317 145.674C226.317 149.039 226.132 150.593 225.679 150.777C225.35 150.962 225.02 152.922 225.226 153.551C225.411 154.143 226.523 153.81 227.038 152.996C227.512 152.294 227.615 151.702 227.821 148.928L228.027 145.711H228.727H229.406V149.594V153.477H230.23H231.054V148.3V143.122H228.686H226.317V145.674Z" fill="#1540EC"/>
<path d="M232.701 146.632C233.792 150.257 233.895 151.514 233.092 151.144C232.783 150.996 232.618 151.181 232.474 151.921C232.165 153.363 232.371 153.844 233.298 153.844C234.492 153.844 235.172 152.586 236.613 147.779C237.293 145.449 237.849 143.489 237.849 143.341C237.849 143.23 237.458 143.119 236.963 143.119C236.098 143.119 236.078 143.156 235.46 145.375L234.842 147.631L234.245 145.375L233.648 143.119H232.639H231.65L232.701 146.632Z" fill="#1540EC"/>
<path d="M238.467 148.299V153.477H240.505C242.359 153.477 242.627 153.403 243.121 152.626C243.553 151.923 243.677 151.443 243.677 150.185C243.677 149.298 243.533 148.373 243.368 148.04C243.018 147.449 241.782 146.857 240.794 146.82C240.32 146.82 240.114 146.635 240.114 146.265C240.114 145.821 240.423 145.711 241.659 145.711H243.203V144.416V143.122H240.835H238.467V148.299ZM241.72 149.852C242.091 150.518 241.618 151.258 240.814 151.258C240.197 151.258 240.114 151.147 240.114 150.333C240.114 149.52 240.197 149.409 240.794 149.409C241.164 149.409 241.576 149.594 241.72 149.852Z" fill="#1540EC"/>
<path d="M245.571 143.859C243.059 146.817 244.336 153.844 247.383 153.844C249.195 153.844 250.431 151.958 250.575 148.925C250.74 145.153 249.628 143.119 247.424 143.119C246.539 143.119 246.004 143.341 245.571 143.859ZM248.351 146.448C248.887 147.409 248.887 149.443 248.351 150.331C247.445 151.81 246.086 150.663 246.086 148.408C246.086 146.928 246.704 145.708 247.424 145.708C247.713 145.708 248.125 146.041 248.351 146.448Z" fill="#1540EC"/>
<path d="M251.439 148.299V153.477H253.581C255.414 153.477 255.785 153.366 256.258 152.7C256.958 151.738 257.02 149.372 256.382 148.558C256.011 148.077 255.99 147.966 256.279 147.56C256.608 147.079 256.691 145.858 256.464 144.786C256.217 143.64 255.249 143.122 253.293 143.122H251.439V148.299ZM254.693 146.339C254.652 146.783 254.405 147.042 253.952 147.116C253.396 147.227 253.293 147.116 253.293 146.487C253.293 145.858 253.416 145.711 254.034 145.711C254.611 145.711 254.755 145.821 254.693 146.339ZM254.837 150.333C254.837 150.925 254.673 151.11 254.075 151.184C253.355 151.295 253.293 151.221 253.293 150.333C253.293 149.446 253.355 149.372 254.075 149.483C254.673 149.557 254.837 149.741 254.837 150.333Z" fill="#1540EC"/>
<path d="M52.8205 169.894C50.3699 170.967 48.3518 174.036 47.5693 177.808C47.1986 179.583 47.1368 180.508 47.1986 183.429C47.3016 187.386 47.7752 189.568 49.052 191.898C50.7818 195.078 52.5116 196.151 55.4564 195.929C57.9275 195.744 59.3279 194.783 60.8105 192.194C63.0552 188.237 63.5906 181.432 62.0255 176.292C60.4399 171.004 56.486 168.267 52.8205 169.894ZM56.7125 176.588C58.3188 177.956 59.1013 182.135 58.4012 185.426C57.7422 188.533 56.2389 190.049 54.3238 189.605C51.5437 188.94 50.3493 182.283 52.2439 178.215C53.3971 175.774 55.0445 175.183 56.7125 176.588Z" fill="#1540EC"/>
<path d="M103.212 169.749C100.782 170.673 98.826 173.373 97.8375 177.108C97.3639 178.92 97.3021 179.623 97.3227 182.877C97.3227 185.835 97.4257 186.945 97.7758 188.35C98.4347 190.939 99.8762 193.527 101.38 194.748C102.553 195.746 102.842 195.82 105.127 195.82C107.393 195.82 107.681 195.746 108.731 194.822C109.349 194.267 110.193 193.232 110.585 192.492L111.305 191.124L109.967 188.979C108.649 186.871 108.628 186.834 108.216 187.5C106.157 190.828 103.274 190.384 102.018 186.538C101.338 184.504 101.338 181.287 101.997 179.179C103.192 175.407 105.951 174.63 107.805 177.552C108.196 178.18 108.608 178.624 108.69 178.55C108.793 178.513 109.411 177.552 110.07 176.479C110.811 175.259 111.202 174.334 111.12 174.001C110.955 173.225 109.287 171.154 108.175 170.377C107.063 169.601 104.468 169.268 103.212 169.749Z" fill="#1540EC"/>
<path d="M150.802 169.747C146.704 171.301 144.151 178.216 144.974 185.538C145.469 189.865 146.848 192.971 149.072 194.821C149.999 195.597 150.638 195.819 152.203 195.93C154.55 196.115 155.971 195.486 157.433 193.674C159.06 191.677 159.081 191.455 157.557 188.941L156.239 186.759L155.539 187.905C155.127 188.534 154.591 189.199 154.303 189.384C153.624 189.828 152.141 189.791 151.42 189.31C149.464 187.979 148.537 183.171 149.526 179.473C150.576 175.553 153.479 174.592 155.353 177.513C155.724 178.142 156.115 178.623 156.198 178.623C156.465 178.623 158.772 174.814 158.772 174.333C158.772 173.519 157.104 171.264 155.93 170.487C154.633 169.599 152.1 169.23 150.802 169.747Z" fill="#1540EC"/>
<path d="M0 182.837V195.633H2.16226H4.32452V192.305V188.976H6.23966C9.36979 188.976 11.2232 187.534 12.294 184.28C12.7882 182.726 12.8706 182.135 12.8706 179.546C12.8706 175.219 12.1704 173.111 10.0905 171.188C9.20505 170.338 8.93734 170.301 4.59223 170.19L0 170.079V182.837ZM8.01066 176.994C8.50489 177.734 8.64904 178.252 8.64904 179.25C8.64904 181.95 7.78413 183.059 5.66306 183.059H4.32452V179.546V176.033H5.8484C7.20753 176.033 7.45465 176.144 8.01066 176.994Z" fill="#1540EC"/>
<path d="M193.573 182.874V195.633H195.612H197.651L200.41 188.569L203.149 181.506L203.211 188.569L203.252 195.633H205.311H207.371V182.874V170.116H205.352H203.334L200.554 177.216L197.795 184.354L197.733 177.216L197.692 170.116H195.633H193.573V182.874Z" fill="#1540EC"/>
<path d="M243.408 182.874V195.633H245.426L247.424 195.596L250.101 188.68L252.778 181.765L252.84 188.717L252.881 195.633H254.94H257V182.874V170.079L255.002 170.19L253.005 170.301L250.327 177.179L247.63 184.058L247.568 177.068L247.527 170.116H245.467H243.408V182.874Z" fill="#1540EC"/>
</g>
<defs>
<clipPath id="clip0_727_1807">
<rect width="257" height="196" fill="white"/>
</clipPath>
</defs>
</svg>
