<svg width="312" height="84" viewBox="0 0 312 84" fill="none" xmlns="http://www.w3.org/2000/svg">
<path d="M50.7974 6.06353C48.5038 7.58461 49.1109 13.1695 52.3996 20.8884L53.5126 23.5219L59.2636 24.7251C70.6136 27.1316 73.2783 28.176 75.6562 31.15C76.8536 32.6711 77.5957 34.4192 78.1185 36.9392C78.4895 38.6646 78.4895 39.1187 78.557 52.4678L78.6076 66.2257L77.5451 66.3619C76.9717 66.43 76.4657 66.4527 76.4489 66.43C76.4151 66.4073 76.179 64.5457 75.8923 62.2981C75.6056 60.0733 75.1165 56.5997 74.8298 54.6019L74.2733 50.9922L73.3626 51.0376C67.7466 51.3781 60.8826 53.7392 54.8956 57.3489C52.6525 58.7111 48.5375 61.7533 48.4532 62.1392C48.4195 62.2754 48.605 62.4343 48.8579 62.5024C54.7438 64.1824 59.9213 65.7489 61.0175 66.203C63.1256 67.0657 64.9302 68.4278 67.6285 71.1976C71.7773 75.4657 73.3963 76.7143 75.4707 77.2138C76.0778 77.35 76.6175 77.4181 76.6512 77.3727C76.7018 77.3273 76.4489 76.4419 76.1284 75.4203C75.7405 74.217 75.5213 73.1954 75.5213 72.5597C75.5213 71.2884 76.2296 69.3587 76.7693 69.1543C77.2752 68.9954 82.0986 68.9727 82.7563 69.1543C83.1442 69.2451 83.3466 69.5176 83.6164 70.2895C84.2742 72.083 84.2573 72.8095 83.5658 75.1251C83.2117 76.283 82.9756 77.2819 83.0262 77.35C83.0936 77.4181 83.6502 77.35 84.2742 77.1911C85.9944 76.737 87.9507 75.2614 91.3405 71.8333C94.9328 68.1781 95.8266 67.4743 98.1539 66.43C99.5537 65.817 108.543 63.0246 110.853 62.4797C111.106 62.4343 111.309 62.3208 111.309 62.23C111.309 62.0484 107.969 59.483 106.165 58.2797C101.561 55.2149 96.1639 52.8765 91.0201 51.7641C89.2999 51.4008 85.5053 50.856 85.3872 50.9695C85.2861 51.0376 84.2404 58.0981 83.7513 61.9803C83.2791 65.6581 83.1442 66.4073 82.9081 66.3846C82.7563 66.3846 82.2504 66.3619 81.7782 66.3392L80.9349 66.2938L81.0024 52.7176C81.0698 37.6657 81.0867 37.5522 82.2166 34.3284C83.6333 30.31 86.3823 28.176 92.2512 26.5641C94.3762 25.9965 105.322 23.6127 105.844 23.6127C106.232 23.6127 108.711 17.3922 109.504 14.3727C110.314 11.3533 110.381 8.3792 109.673 7.08515C109.066 5.97272 108.357 5.63218 106.839 5.76839C104.546 5.95001 101.696 7.5619 97.7661 10.8765L95.5905 12.6927L94.9833 12.2841C92.5211 10.6268 83.9369 9.69596 75.4201 10.1954C69.5174 10.536 66.077 11.217 64.4242 12.3749C63.952 12.7154 63.9014 12.67 62.1137 11.1035C59.702 8.99217 56.2279 6.6992 54.5751 6.13164C52.973 5.58677 51.5563 5.56407 50.7974 6.06353Z" fill="white"/>
<path d="M117.044 37.8025V64.0469L132.948 63.9788C150.875 63.888 149.559 64.0242 152.612 62.049C155.58 60.142 157.587 56.7366 158.565 51.8782C158.886 50.3117 158.936 49.449 158.936 45.5215C158.953 40.1409 158.768 38.8015 157.503 35.2371C156.019 31.1053 153.658 28.5398 150.015 27.2004C148.699 26.7009 148.429 26.7009 137.079 26.6101L125.476 26.542V19.0728V11.5809H121.26H117.044V37.8025ZM146.406 36.0317C147.671 36.5766 149.07 38.4382 149.576 40.2998C150.622 44.0231 150.487 48.1777 149.222 51.3561C148.615 52.9226 148.008 53.649 146.726 54.4663L145.799 55.0566L135.646 55.1247L125.476 55.1928V45.408V35.6458H135.494C144.483 35.6458 145.596 35.6912 146.406 36.0317Z" fill="white"/>
<path d="M237.798 19.0728V26.5647H235.488L233.16 26.5874L233.666 27.0869C234.695 28.0858 235.842 29.6523 236.364 30.7647C237.764 33.7161 237.967 35.8955 237.967 47.928C237.967 55.8512 237.984 56.6004 238.304 57.9171C238.928 60.5734 240.125 62.2534 242.149 63.3204L243.279 63.9107L255.219 63.9788L267.143 64.0469V59.6198V55.1928L258.002 55.1247C249.03 55.0566 248.828 55.0566 248.052 54.5571C247.462 54.1939 247.158 53.8307 246.871 53.0815C246.483 52.128 246.483 51.969 246.433 43.8642L246.382 35.6458H256.653H266.94L267.143 34.1701C267.548 31.2869 268.88 28.5398 270.6 27.0188C271.106 26.5647 271.089 26.5647 258.761 26.5647H246.399V19.0728V11.5809H242.099H237.798V19.0728Z" fill="white"/>
<path d="M10.0872 26.8137C8.04657 27.4721 5.78668 29.9921 4.67359 32.8526C3.49305 35.8948 3.375 37.0072 3.375 45.2937C3.375 51.764 3.40873 52.7856 3.69543 54.3067C4.55554 58.8018 6.84916 62.4342 9.56441 63.5694C10.6269 64.0007 11.116 64.0234 23.0226 64.0234C34.5075 64.0234 35.452 64.0007 36.3795 63.6148C39.4489 62.3207 41.8944 58.1434 42.4846 53.1034C42.7207 51.2191 42.7207 39.3683 42.4846 37.484C41.9618 33.0115 40.0392 29.3564 37.324 27.5402L36.0254 26.6775L23.3767 26.6321C16.3609 26.6094 10.4245 26.7002 10.0872 26.8137ZM33.0403 36.0764C33.8329 36.6213 34.5413 37.8699 34.8448 39.2321C35.199 40.7759 35.1653 49.9024 34.828 51.5142C34.4907 53.0126 33.4113 54.5564 32.4669 54.9197C32.0115 55.0786 28.7904 55.1694 22.6853 55.1694C12.4989 55.1694 12.8025 55.1921 11.7062 53.5348C10.6775 51.9456 10.5932 51.3553 10.6606 44.9305C10.7112 39.2548 10.7112 39.1413 11.1328 38.1424C11.3689 37.5975 11.8749 36.8029 12.2796 36.3942L13.0217 35.6451H22.7021C31.9609 35.6451 32.4332 35.6678 33.0403 36.0764Z" fill="white"/>
<path d="M154.654 26.6775C154.654 26.7456 154.974 27.0634 155.379 27.404C157.925 29.5607 159.848 33.4656 160.742 38.2105C161.248 40.8894 161.383 47.8364 160.995 50.8332C160.253 56.5088 158.6 60.3002 155.716 62.8883L154.451 64.0234H175.971H197.49L196.411 62.6159C195.821 61.8213 195.146 60.6634 194.927 60.0505C194.404 58.6883 193.949 56.6905 193.949 55.8051V55.1694H181.452C169.613 55.1694 168.955 55.1467 169.073 54.7607C169.377 53.7164 170.001 50.5153 170.001 50.0386V49.4937H178.349H186.697V45.1802V40.8667H178.366H170.034L169.916 39.8905C169.849 39.3683 169.613 38.2105 169.393 37.3478C169.174 36.4624 168.989 35.7359 168.989 35.6905C168.989 35.6678 174.875 35.6451 182.059 35.6451H195.129V31.1045V26.564H174.891C163.761 26.564 154.654 26.6094 154.654 26.6775Z" fill="white"/>
<path d="M197.829 31.1045V35.6451H211.153C225.724 35.6451 225.151 35.5997 226.213 36.9618C226.668 37.5521 227.174 39.3229 227.174 40.3218V40.844L215.167 40.9121C204.542 41.0029 203.024 41.0483 202.164 41.3888C199.836 42.297 197.931 44.2494 197.071 46.6332C196.194 49.0397 195.924 52.6948 196.396 55.6915C197.02 59.7099 199.229 62.7294 202.248 63.6829C203.142 63.9553 205.823 64.0234 219.551 64.0234H235.809L235.725 50.5607C235.657 35.8721 235.624 35.5542 234.629 33.0569C233.954 31.3315 232.335 29.311 230.868 28.3121C228.321 26.6094 229.316 26.7002 212.721 26.6094L197.829 26.5413V31.1045ZM227.174 52.3315V55.1694H217.19C211.692 55.1467 206.852 55.0559 206.431 54.9651C204.154 54.3521 204.154 50.3337 206.431 49.7434C206.852 49.6299 211.692 49.5391 217.19 49.5164L227.174 49.4937V52.3315Z" fill="white"/>
<path d="M275.085 27.018C272.117 28.0851 269.941 31.0591 269.351 34.9186C269.115 36.4624 269.115 39.5953 269.351 41.1391C269.958 44.9986 272.167 48.0407 275.152 49.1532C276.029 49.471 277.632 49.5391 287.464 49.6299C294.243 49.698 298.982 49.8342 299.303 49.9705C300.079 50.311 300.534 51.1737 300.534 52.3542C300.534 53.7164 299.944 54.6018 298.831 54.9197C298.274 55.0786 293.282 55.1694 283.754 55.1694H269.503V59.5964V64.0234H285.406C298.831 64.0234 301.462 63.9553 302.355 63.6829C306.858 62.2526 309.27 56.418 308.208 49.6072C307.702 46.4288 306.369 43.977 304.329 42.524C302.457 41.2072 302.878 41.2526 290.331 41.1164C279.504 40.9802 278.643 40.9575 278.07 40.5715C276.856 39.7542 276.62 37.6883 277.632 36.3942L278.121 35.7586L293.063 35.6905L308.005 35.6451L307.904 34.7824C307.584 32.217 305.779 29.084 303.856 27.8353C302.001 26.6094 301.647 26.564 288.476 26.5867C277.024 26.5867 276.266 26.6094 275.085 27.018Z" fill="white"/>
<path d="M49.7035 35.9194C49.2819 37.0772 48.4386 39.8696 47.8315 42.1172C47.2075 44.3648 46.4149 47.2253 46.0607 48.474C45.7065 49.7226 45.4704 50.7669 45.5379 50.8123C45.6222 50.8577 46.8365 50.5172 48.27 50.0632C57.6469 47.0891 63.9037 45.795 70.2618 45.4999L73.5336 45.341L73.4324 44.7507C73.3649 44.4329 73.1794 43.6156 73.0107 42.9572C72.1506 39.5518 70.7171 37.8037 67.9344 36.7821C66.7539 36.3507 60.0079 35.1929 54.2233 34.3983C52.7392 34.2167 51.2888 33.9896 51.0021 33.9215C50.4793 33.8307 50.4624 33.8534 49.7035 35.9194Z" fill="white"/>
<path d="M108.189 33.987C107.92 34.0325 105.896 34.3276 103.72 34.6454C97.4634 35.5308 92.9268 36.3254 91.8305 36.7114C88.8117 37.733 87.2096 39.9125 86.2989 44.1806L86.0459 45.3384L89.2165 45.4746C95.642 45.7925 100.499 46.746 109.927 49.6292C112.186 50.333 114.058 50.8552 114.092 50.8098C114.126 50.7643 113.704 49.107 113.148 47.1092C112.608 45.1114 111.883 42.4552 111.546 41.2065C110.652 37.9373 109.184 33.8281 108.915 33.8508C108.797 33.8735 108.476 33.9416 108.189 33.987Z" fill="white"/>
</svg>
