<svg width="375" height="130" viewBox="0 0 375 130" fill="none" xmlns="http://www.w3.org/2000/svg">
<g clip-path="url(#clip0_727_1162)">
<path d="M114.319 20.3672H105.369H94.3994H61.4895C56.0045 20.3672 51.3856 23.9258 49.3648 28.9672L28.8683 86.7948C27.1362 91.8362 22.2285 95.3948 17.0322 95.3948H25.9814H35.508H70.15C75.635 95.3948 80.2539 91.8362 82.2747 86.7948L102.771 28.9672C104.215 23.6293 109.122 20.3672 114.319 20.3672Z" fill="#D5AE75"/>
<path d="M45.612 27.4862C47.9215 20.6655 54.2725 16.2172 61.4896 16.2172H66.6859L69.8614 7.61724C71.3048 3.16897 75.3464 0.5 79.6767 0.5H72.1709H63.2217H36.3741C32.0439 0.5 28.0023 3.16897 26.5589 7.61724L9.81524 55.0655C8.37182 59.2172 4.33025 62.1828 0 62.1828H7.21709H15.0115H33.4873L45.612 27.4862Z" fill="#E6D4B6"/>
<path d="M129.042 46.1654H130.485C131.64 46.1654 132.506 46.4619 133.372 46.7585C134.238 47.055 135.104 47.6481 135.681 48.2412C136.259 48.8343 136.836 49.4274 137.125 50.3171C137.413 51.2068 137.702 52.0964 137.702 53.2826C137.702 54.4688 137.413 55.3585 137.125 56.2481C136.836 57.1378 136.259 57.7309 135.393 58.324C134.815 58.9171 133.949 59.5102 133.083 59.8068C132.217 60.1033 131.351 60.3999 130.196 60.3999H128.753V62.7723H124.711V60.3999H123.268C122.113 60.3999 121.247 60.1033 120.381 59.8068C119.515 59.5102 118.649 58.9171 118.072 58.324C117.494 57.7309 116.917 57.1378 116.628 56.2481C116.339 55.3585 116.051 54.4688 116.051 53.2826C116.051 52.0964 116.339 51.2068 116.628 50.3171C116.917 49.4274 117.494 48.8343 118.36 48.2412C118.938 47.6481 119.804 47.055 120.67 46.7585C121.536 46.4619 122.402 46.1654 123.557 46.1654H125V43.793H129.042V46.1654ZM123.557 49.724C122.402 49.724 121.536 50.0206 120.958 50.6137C120.381 51.2068 120.092 52.0964 120.092 53.2826C120.092 54.4688 120.381 55.0619 120.958 55.655C121.536 56.2481 122.402 56.5447 123.557 56.5447H125V49.724H123.557ZM130.485 56.8412C131.64 56.8412 132.506 56.5447 133.083 55.9516C133.66 55.3585 133.949 54.4688 133.949 53.2826C133.949 52.0964 133.66 51.5033 133.083 50.9102C132.506 50.3171 131.64 50.0206 130.485 50.0206H129.042V56.8412H130.485Z" fill="white"/>
<path d="M154.734 44.3861C155.889 44.9792 157.043 45.5723 157.621 46.4619C158.487 47.3516 159.064 48.2412 159.642 49.4275C160.219 50.6137 160.219 51.7999 160.219 53.2826C160.219 54.4688 159.93 55.9516 159.642 57.1378C159.064 58.324 158.487 59.2137 157.621 60.1033C156.755 60.993 155.889 61.5861 154.734 62.1792C153.579 62.7723 152.136 63.0688 150.981 63.0688C149.538 63.0688 148.383 62.7723 147.228 62.4757C146.073 61.8826 144.919 61.2895 144.341 60.3999C143.475 59.5102 142.898 58.6206 142.321 57.4343C141.743 56.2481 141.743 55.0619 141.743 53.5792C141.743 52.393 142.032 50.9102 142.321 49.724C142.898 48.5378 143.475 47.6481 144.341 46.7585C145.207 45.8688 146.073 45.2757 147.228 44.6826C148.383 44.0895 149.538 43.793 150.981 43.793C152.424 43.793 153.579 44.0895 154.734 44.3861ZM148.672 47.9447C148.094 48.2412 147.517 48.5378 146.939 49.1309C146.362 49.724 146.073 50.3171 145.785 50.9102C145.496 51.5033 145.496 52.393 145.496 53.2826C145.496 54.1723 145.496 54.7654 145.785 55.655C146.073 56.2481 146.362 57.1378 146.939 57.4343C147.517 58.0275 148.094 58.324 148.672 58.6206C149.249 58.9171 150.115 59.2137 150.981 59.2137C151.847 59.2137 152.713 58.9171 153.291 58.6206C153.868 58.324 154.445 58.0275 155.023 57.4343C155.6 56.8412 155.889 56.2481 156.177 55.655C156.466 55.0619 156.466 54.1723 156.466 53.2826C156.466 52.393 156.466 51.5033 156.177 50.9102C155.889 50.3171 155.6 49.4274 155.023 49.1309C154.445 48.5378 153.868 48.2412 153.291 47.9447C152.713 47.6481 151.847 47.6481 150.981 47.6481C150.115 47.3516 149.249 47.6481 148.672 47.9447Z" fill="white"/>
<path d="M168.59 51.5001H176.385V44.3828H180.426V62.769H176.385V55.3552H168.59V62.769H164.549V44.3828H168.59V51.5001Z" fill="white"/>
<path d="M202.077 58.9138H204.675V60.1001L204.387 66.6242H200.634V62.769H188.509L188.22 66.6242H184.467L184.179 60.1001V58.9138H185.045C185.333 58.9138 185.911 58.9138 186.199 58.6173C186.488 58.3207 186.777 58.0242 187.066 57.4311C187.643 56.2449 187.932 54.7621 188.22 53.2794C188.509 51.5001 188.509 49.7207 188.509 47.3483V44.3828H202.077V58.9138ZM191.973 54.4656C191.684 56.2449 191.396 57.7276 190.818 58.9138H198.036V47.9414H192.551C192.551 50.6104 192.262 52.6863 191.973 54.4656Z" fill="white"/>
<path d="M132.795 95.6909H128.753V81.1599H121.248V95.6909H117.206V77.3047H132.795V95.6909Z" fill="white"/>
<path d="M148.672 77.896C149.538 78.1925 150.404 78.7856 150.981 79.3787C151.558 79.9718 152.136 80.5649 152.424 81.4546C152.713 82.3442 153.002 83.2339 153.002 84.1235C153.002 85.3097 152.713 86.1994 152.424 87.0891C152.136 87.9787 151.558 88.5718 150.981 89.1649C150.404 89.758 149.538 90.0546 148.672 90.3511C147.805 90.6477 146.651 90.9442 145.785 90.9442H142.032V95.9856H137.99V77.5994H146.073C146.939 77.3028 147.805 77.5994 148.672 77.896ZM145.496 87.0891C146.651 87.0891 147.517 86.7925 148.094 86.1994C148.672 85.6063 148.96 85.0132 148.96 83.827C148.96 82.9373 148.672 82.0477 148.094 81.7511C147.517 81.158 146.651 80.8615 145.496 80.8615H141.743V86.7925H145.496V87.0891Z" fill="white"/>
<path d="M170.325 81.1602H160.798V84.7188H169.17V88.2774H160.798V92.1326H170.614V95.9878H156.757V77.6016H170.325V81.1602Z" fill="white"/>
<path d="M184.179 84.1247C184.468 83.8282 184.757 83.2351 184.757 82.9385C184.757 82.3454 184.468 81.7523 184.179 81.4558C183.602 80.8627 182.736 80.5661 181.87 80.5661C180.138 80.5661 178.695 81.1592 177.251 82.3454L175.23 79.3799C176.096 78.4902 177.251 77.8971 178.406 77.304C179.561 77.0075 180.715 76.7109 182.159 76.7109C183.313 76.7109 184.179 76.7109 185.046 77.0075C185.912 77.304 186.489 77.6006 187.066 78.1937C187.644 78.7868 188.221 79.0833 188.51 79.973C188.798 80.5661 189.087 81.4558 189.087 82.0489C189.087 82.9385 188.798 83.5316 188.51 84.1247C188.221 84.7178 187.644 85.3109 187.066 85.6075V85.904C187.932 86.2006 188.51 86.7937 189.087 87.3868C189.664 87.9799 189.953 88.8696 189.953 90.0558C189.953 90.9454 189.664 91.8351 189.376 92.4282C189.087 93.0213 188.51 93.9109 187.932 94.2075C187.355 94.8006 186.489 95.0971 185.623 95.3937C184.757 95.6902 183.602 95.9868 182.159 95.9868C181.293 95.9868 180.715 95.9868 179.849 95.6902C179.272 95.6902 178.406 95.3937 177.828 95.0971C177.251 94.8006 176.674 94.504 176.096 94.2075C175.519 93.9109 174.942 93.3178 174.364 93.0213L176.385 90.0558C177.251 90.9454 178.117 91.242 179.272 91.5385C180.138 91.8351 181.293 92.1316 182.447 92.1316C183.602 92.1316 184.468 91.8351 185.046 91.5385C185.623 90.9454 185.912 90.3523 185.912 89.7592C185.912 88.573 185.046 87.6833 183.602 87.6833H178.983V84.1247H183.025C183.313 84.4213 183.891 84.4213 184.179 84.1247Z" fill="white"/>
<path d="M197.748 89.7599L206.409 77.3047H209.873V95.6909H205.831V84.1254L197.46 95.6909H193.418V77.3047H197.46V89.7599H197.748Z" fill="white"/>
<path d="M231.525 92.1326H234.123V93.3188L233.835 99.8429H230.082L229.793 95.9878H217.669L217.38 99.8429H213.627V93.3188V92.1326H214.493C214.782 92.1326 215.359 92.1326 215.648 91.836C215.936 91.5395 216.225 91.2429 216.514 90.6498C217.091 89.4636 217.38 87.9809 217.669 86.4981C217.957 84.7188 217.957 82.9395 217.957 80.5671V77.6016H231.525V92.1326ZM221.421 87.6843C221.133 89.4636 220.844 90.9464 220.267 92.1326H227.484V81.1602H221.999C221.71 83.5326 221.71 85.905 221.421 87.6843Z" fill="white"/>
<path d="M251.444 81.1602H241.918V84.7188H250.289V88.2774H241.918V92.1326H251.733V95.9878H237.876V77.6016H251.444V81.1602Z" fill="white"/>
<path d="M260.105 84.4219H267.9V77.3047H271.941V95.6909H267.9V88.2771H260.105V95.6909H256.063V77.3047H260.105V84.4219Z" fill="white"/>
<path d="M292.147 81.1599H286.084V95.9874H282.043V81.1599H275.98V77.3047H292.435V81.1599H292.147Z" fill="white"/>
<path d="M307.159 81.1589C306.293 80.8623 305.427 80.5658 304.561 80.5658C303.695 80.5658 302.829 80.5658 302.251 80.8623C301.674 81.1589 300.808 81.4554 300.519 82.0485C299.942 82.6416 299.653 83.2348 299.364 83.8279C299.076 84.421 299.076 85.3106 299.076 86.2003C299.076 87.0899 299.076 87.9796 299.364 88.5727C299.653 89.1658 299.942 89.7589 300.519 90.352C301.097 90.9451 301.674 91.2417 302.251 91.5382C302.829 91.8348 303.695 91.8348 304.561 91.8348C305.715 91.8348 306.582 91.5382 307.448 91.2416C308.314 90.9451 309.18 90.352 309.757 89.7589L312.067 92.7244C310.046 94.8003 307.448 95.6899 304.272 95.6899C302.829 95.6899 301.674 95.3934 300.519 95.0968C299.364 94.5037 298.498 93.9106 297.632 93.021C296.766 92.1313 296.189 91.2417 295.612 90.0554C295.034 88.8692 295.034 87.683 295.034 86.2003C295.034 85.0141 295.323 83.5313 295.612 82.3451C296.189 81.1589 296.766 80.2692 297.632 79.3796C298.498 78.4899 299.653 77.8968 300.808 77.3037C301.963 76.7106 303.406 76.4141 304.849 76.4141C306.293 76.4141 307.448 76.7106 308.602 77.0072C309.757 77.3037 310.912 78.1934 311.778 78.7865L309.468 81.752C308.891 82.0485 308.025 81.4554 307.159 81.1589Z" fill="white"/>
<path d="M319.861 84.4219L321.882 84.1254L327.078 77.3047H331.986L325.346 85.9047L332.563 95.6909H327.367L321.882 87.684H319.861V95.6909H315.819V77.3047H319.861V84.4219Z" fill="white"/>
<path d="M340.07 89.7599L348.731 77.3047H352.195V95.6909H348.154V84.1254L339.782 95.6909H335.74V77.3047H339.782V89.7599H340.07Z" fill="white"/>
<path d="M365.185 83.8288L368.938 77.3047H373.845L368.072 86.4978L374.423 95.9874H369.226L365.185 88.8702H364.896L360.855 95.9874H355.658L362.009 86.4978L356.236 77.6012H361.143L365.185 83.8288Z" fill="white"/>
<path d="M130.774 114.371H121.248V129.199H117.206V110.812H130.774V114.371Z" fill="white"/>
<path d="M145.207 111.109C146.073 111.405 146.939 111.998 147.516 112.591C148.094 113.184 148.671 113.777 148.96 114.667C149.248 115.557 149.537 116.446 149.537 117.336C149.537 118.522 149.248 119.412 148.96 120.302C148.671 121.191 148.094 121.784 147.516 122.377C146.939 122.971 146.073 123.267 145.207 123.564C144.341 123.86 143.186 124.157 142.32 124.157H138.567V129.198H134.525V110.812H142.609C143.475 110.515 144.341 110.515 145.207 111.109ZM142.031 120.302C143.186 120.302 144.052 120.005 144.629 119.412C145.207 118.819 145.495 118.226 145.495 117.04C145.495 116.15 145.207 115.26 144.629 114.964C144.052 114.371 143.186 114.074 142.031 114.074H138.278V120.005H142.031V120.302Z" fill="white"/>
<path d="M170.036 128.902H165.706L164.262 125.343H156.468L155.025 128.902H150.694L158.2 110.516H162.53L170.036 128.902ZM162.819 121.785L160.51 114.667H160.221L157.911 121.785H162.819Z" fill="white"/>
<path d="M177.83 117.633H185.624V110.516H189.666V128.902H185.624V121.488H177.83V128.902H173.788V110.516H177.83V117.633Z" fill="white"/>
<path d="M209.873 114.371H203.811V129.198H199.769V114.371H193.418V110.516H209.873V114.371Z" fill="white"/>
<path d="M225.751 110.816C226.905 111.409 228.06 112.002 228.637 112.892C229.503 113.781 230.081 114.671 230.658 115.857C231.236 117.043 231.236 118.23 231.236 119.712C231.236 120.899 230.947 122.381 230.658 123.567C230.081 124.754 229.503 125.643 228.637 126.533C227.771 127.423 226.905 128.016 225.751 128.609C224.596 129.202 223.152 129.499 221.998 129.499C220.554 129.499 219.399 129.202 218.245 128.905C217.09 128.312 215.935 127.719 215.358 126.83C214.492 125.94 213.915 125.05 213.337 123.864C212.76 122.678 212.76 121.492 212.76 120.009C212.76 118.823 213.048 117.34 213.337 116.154C213.915 114.967 214.492 114.078 215.358 113.188C216.224 112.299 217.09 111.705 218.245 111.112C219.399 110.223 220.554 110.223 221.998 110.223C223.441 110.223 224.596 110.223 225.751 110.816ZM219.688 114.374C219.111 114.671 218.533 114.967 217.956 115.561C217.379 116.154 217.09 116.747 216.801 117.34C216.513 118.23 216.513 118.823 216.513 119.712C216.513 120.602 216.513 121.195 216.801 122.085C217.09 122.678 217.379 123.567 217.956 123.864C218.533 124.457 219.111 124.754 219.688 125.05C220.266 125.347 221.132 125.643 221.998 125.643C222.864 125.643 223.73 125.347 224.307 125.05C224.884 124.754 225.462 124.161 226.039 123.864C226.617 123.271 226.905 122.678 227.194 122.085C227.483 121.492 227.483 120.602 227.483 119.712C227.483 118.823 227.483 117.933 227.194 117.34C226.905 116.747 226.617 115.857 226.039 115.561C225.462 114.967 224.884 114.671 224.307 114.374C223.73 114.078 222.864 114.078 221.998 114.078C221.132 113.781 220.266 114.078 219.688 114.374Z" fill="white"/>
<path d="M248.267 111.705C249.422 112.595 249.999 113.781 249.999 115.264C249.999 116.154 249.711 116.747 249.422 117.34C249.133 117.933 248.556 118.526 248.267 118.823V119.119C249.133 119.416 249.711 120.009 250.288 120.602C250.865 121.492 251.154 122.381 251.154 123.271C251.154 124.161 251.154 124.754 250.865 125.347C250.577 125.94 250.288 126.533 249.711 127.126C249.133 127.719 248.556 128.016 247.69 128.312C246.824 128.609 245.958 128.609 244.803 128.609H236.143V110.223H244.226C245.669 110.519 247.113 110.816 248.267 111.705ZM243.648 117.636C244.226 117.636 244.803 117.34 245.38 117.043C245.669 116.747 245.958 116.154 245.958 115.561C245.958 114.374 245.092 113.781 243.648 113.781H239.607V117.636H243.648ZM244.226 125.347C245.958 125.347 246.824 124.754 246.824 123.271C246.824 122.678 246.535 122.085 246.247 121.788C245.669 121.492 245.092 121.195 244.226 121.195H239.607V125.643H244.226V125.347Z" fill="white"/>
</g>
<defs>
<clipPath id="clip0_727_1162">
<rect width="375" height="129" fill="white" transform="translate(0 0.5)"/>
</clipPath>
</defs>
</svg>
