<svg width="375" height="130" viewBox="0 0 375 130" fill="none" xmlns="http://www.w3.org/2000/svg">
<g clip-path="url(#clip0_900_4373)">
<rect width="375" height="129" transform="translate(0 0.5)" fill="white"/>
<path fill-rule="evenodd" clip-rule="evenodd" d="M-8 68.0001V136L89.2221 135.973L186.444 135.947L380.888 135.894L380.944 67.9469L381 0H186.5H-8V68.0001ZM-7.8905 68.106C-7.8905 105.506 -7.86501 120.806 -7.83376 102.106C-7.80251 83.4061 -7.80251 52.8061 -7.83376 34.106C-7.86501 15.4062 -7.8905 30.706 -7.8905 68.106ZM261.972 49.1169V51.3447H264.3H266.627V49.1169V46.8892H264.3H261.972V49.1169ZM271.947 49.1169V51.3447H274.274H276.601V49.1169V46.8892H274.274H271.947V49.1169ZM39.6552 54.7979C35.6395 56.1132 33.2641 58.6004 32.0745 62.7352C31.617 64.3258 31.5939 64.8986 31.5075 76.8579L31.4175 89.3228H33.6522H35.8871V81.4019C35.8871 77.0453 35.9505 73.4202 36.0283 73.3459C36.1059 73.2716 36.6591 73.6323 37.258 74.1477C38.5764 75.2824 40.2763 75.935 42.661 76.2218C48.8311 76.9642 54.6925 72.7306 55.6297 66.8548C56.5021 61.3858 52.9749 56.2765 47.2064 54.6537C45.3346 54.1271 41.4783 54.2007 39.6552 54.7979ZM68.4948 54.6399C63.1233 56.0699 59.4607 60.9517 59.9042 66.0904C60.2374 69.9482 62.582 73.2398 66.2454 74.9923C68.2071 75.9305 69.756 76.2636 72.1272 76.2573C77.452 76.2428 82.0732 73.1393 83.5403 68.5929C84.0975 66.8659 84.1419 63.8159 83.6343 62.1508C82.6535 58.9348 79.8289 56.1327 76.3386 54.9129C74.6048 54.3072 70.307 54.1574 68.4948 54.6399ZM96.6446 54.6505C93.5417 55.4491 90.7276 57.6446 89.4194 60.2867C86.2125 66.7646 89.5291 73.8343 96.7306 75.8703C98.5399 76.3818 102.239 76.3818 104.036 75.8703C107.29 74.9439 109.589 73.1395 111.033 70.3774C111.517 69.4511 111.914 68.5613 111.914 68.3996C111.914 68.1686 111.427 68.106 109.631 68.106H107.348L107.052 68.8906C106.56 70.1933 104.818 71.6309 103.127 72.131C99.104 73.3204 95.203 71.8261 93.617 68.4879C92.8262 66.8232 92.7253 64.4211 93.3717 62.6384C95.3621 57.1473 103.691 56.2681 106.728 61.2283L107.301 62.1653H109.607H111.912L111.491 61.1055C110.182 57.8082 107.504 55.5598 103.778 54.631C102.166 54.2289 98.2405 54.2395 96.6446 54.6505ZM158.017 54.7156C153.797 56.0232 150.534 59.3158 149.817 62.9897C149.099 66.6734 150.088 70.0354 152.643 72.5995C155.162 75.1279 157.842 76.2227 161.564 76.2439C164.255 76.2592 165.794 75.9002 167.95 74.7547C170.558 73.369 172.685 70.7653 173.447 68.0279C173.856 66.5548 173.834 63.7737 173.401 62.363C172.265 58.6617 169.212 55.8183 165.125 54.6571C163.451 54.1814 159.641 54.2128 158.017 54.7156ZM211.46 54.6505C208.362 55.448 205.368 57.7848 204.036 60.4467C201.272 65.9669 203.513 72.2668 209.211 74.9923C211.173 75.9305 212.722 76.2636 215.093 76.2573C220.432 76.2428 225.026 73.149 226.52 68.5621C227.105 66.7663 227.15 63.9948 226.624 62.2461C225.527 58.6068 222.293 55.6462 218.305 54.6301C216.753 54.2348 213.032 54.2459 211.46 54.6505ZM265.893 54.6337C263.094 55.37 260.167 57.5283 258.923 59.7718C257.765 61.8604 257.474 63.1949 257.582 65.9033C257.674 68.2008 257.715 68.3695 258.599 70.0772C260.28 73.3238 263.215 75.4258 266.959 76.0636C269.181 76.4421 270.057 76.4423 272.271 76.0646C275.691 75.4814 278.735 73.5352 280.018 71.1111C280.333 70.5162 280.591 69.931 280.591 69.8103C280.591 69.6733 279.74 69.5941 278.319 69.5994L276.047 69.6075L275.6 70.289C275.354 70.6637 274.665 71.2229 274.069 71.5319C270.949 73.1482 266.651 72.7864 264.167 70.6982C263.253 69.9302 262.295 68.3279 262.077 67.2043L261.923 66.4086H271.618H281.313L281.155 64.6767C280.683 59.499 277.847 56.0775 272.848 54.6571C271.376 54.2387 267.445 54.2253 265.893 54.6337ZM187.103 54.7525C185.861 54.9868 184.054 55.9392 183.366 56.7225C182.045 58.2255 181.517 59.6661 180.636 64.1809C180.271 66.048 179.816 68.0782 179.625 68.6924C179.162 70.1786 178.233 71.1618 176.972 71.4998L175.971 71.768V73.8621V75.9562H177.266C178.894 75.9562 180.971 75.0269 181.918 73.8748C183.383 72.0933 183.861 70.6985 184.841 65.3478C185.582 61.31 186.189 59.6814 187.189 59.0538C187.689 58.7398 188.358 58.6501 190.645 58.5902L193.482 58.5158V67.2361V75.9562H195.698H197.915V65.2417V54.5272L192.983 54.5506C190.271 54.5633 187.625 54.6541 187.103 54.7525ZM240.029 54.8635C238.36 55.2857 237.201 56.1058 236.141 57.6138C235.138 59.0403 234.625 60.4879 233.59 64.8174C232.777 68.2138 232.242 69.7403 231.413 71.0229L230.83 71.9242L229.334 71.9246L227.838 71.925V76.4866V81.0482H230.054H232.271V78.5022V75.9562H241.137H250.003V78.5022V81.0482H252.109H254.214V76.496V71.9437L252.607 71.8813L251 71.8189L250.943 63.1731L250.885 54.5272L246.066 54.5412C242.598 54.5512 240.906 54.6416 240.029 54.8635ZM116.79 65.3478V75.9562H118.893H120.997L121.054 67.3606L121.112 58.7651L124.68 65.9285L128.248 73.0919H130.763H133.278L136.837 65.9695L140.396 58.8472L140.454 67.4016L140.512 75.9562H142.726H144.94V65.3478V54.7394L141.449 54.7404L137.958 54.7417L134.432 61.8481C132.494 65.7566 130.842 68.9547 130.761 68.9547C130.681 68.9547 129.03 65.7562 127.092 61.847L123.568 54.7394H120.179H116.79V65.3478ZM284.204 54.8915C284.261 54.9827 285.682 57.2058 287.362 59.8314C289.042 62.457 290.413 64.7007 290.408 64.8174C290.403 64.9341 288.88 67.4164 287.024 70.3337C285.167 73.2511 283.603 75.7094 283.547 75.7971C283.492 75.8847 284.576 75.9562 285.956 75.9562H288.466L291.323 71.3865L294.18 66.8168L295.975 66.878L297.769 66.9391L297.829 71.4476L297.889 75.9562H299.99H302.091V71.3861V66.8158L303.92 66.8775L305.748 66.9391L308.59 71.4476L311.432 75.9562H313.878C315.942 75.9562 316.305 75.9072 316.199 75.6437C316.13 75.4718 314.609 73.0132 312.818 70.1804C311.027 67.3475 309.525 64.9638 309.479 64.8834C309.434 64.8029 310.032 63.7527 310.808 62.5495C311.585 61.3463 313.029 59.0969 314.019 57.5506L315.818 54.7394L313.332 54.7436L310.846 54.7481L308.307 58.8809L305.768 63.0139H303.93H302.091V58.8767V54.7394H299.986H297.88V58.8767V63.0139H296.019H294.159L291.627 58.9297L289.096 54.8455L286.599 54.7854C285.226 54.7523 284.148 54.8001 284.204 54.8915ZM319.428 61.5818C319.515 68.2855 319.529 68.4529 320.078 69.8341C321.114 72.4404 322.758 74.1345 325.399 75.3155C328.993 76.9231 333.878 76.5208 336.938 74.3654C339.356 72.6617 340.654 70.2784 340.828 67.2193C341.078 62.8315 338.591 59.3305 334.219 57.9168C333.041 57.536 332.42 57.4694 330.684 57.5381C328.141 57.6389 326.629 58.217 324.928 59.7395L323.813 60.7382V57.7388V54.7394H321.576H319.339L319.428 61.5818ZM41.8092 58.1402C39.1183 58.7895 37.1368 60.7357 36.4222 63.4313C35.7599 65.9293 36.4058 68.3135 38.2676 70.2429C39.8773 71.911 41.1844 72.4469 43.6449 72.4469C46.0348 72.4469 47.3851 71.9125 48.9193 70.3596C50.9444 68.3101 51.5632 65.2114 50.494 62.4753C49.8702 60.8797 48.2415 59.1936 46.7179 58.5663C45.4474 58.0431 43.0677 57.8364 41.8092 58.1402ZM70.1842 58.1528C65.8877 59.1217 63.4885 63.7001 65.0532 67.9449C66.8264 72.7559 73.6007 74.1271 77.2327 70.4101C78.8306 68.7749 79.2201 67.7621 79.2201 65.2417C79.2201 63.3475 79.1536 62.9904 78.5994 61.91C77.0893 58.9668 73.5609 57.3913 70.1842 58.1528ZM159.54 58.2539C157.274 58.9219 155.305 60.7792 154.641 62.8745C154.487 63.3596 154.366 64.5203 154.371 65.4539C154.378 66.8194 154.492 67.3844 154.954 68.3436C155.729 69.9525 156.914 71.1555 158.425 71.8656C159.516 72.3784 159.941 72.4552 161.675 72.4544C163.232 72.4535 163.891 72.3555 164.678 72.0075C168.938 70.1254 170.396 64.9952 167.789 61.0616C166.142 58.576 162.571 57.3605 159.54 58.2539ZM213.15 58.1528C208.047 59.3036 205.871 65.3476 208.995 69.6936C210.851 72.2766 214.802 73.2566 218.019 71.932C219.472 71.3335 221.189 69.626 221.759 68.2114C222.073 67.4319 222.186 66.6176 222.186 65.1356C222.186 63.3574 222.112 62.9775 221.565 61.91C220.055 58.9668 216.526 57.3913 213.15 58.1528ZM266.915 58.317C266.281 58.5266 265.344 58.976 264.832 59.3154C263.839 59.974 262.536 61.6813 262.293 62.6427L262.146 63.2261H269.364H276.581L276.258 62.3477C275.214 59.5149 272.73 57.9117 269.413 57.9289C268.673 57.9327 267.549 58.1073 266.915 58.317ZM241.732 58.548C239.717 58.9299 238.88 60.3285 237.728 65.2417C237.163 67.6534 236.687 69.1125 236.085 70.2807L235.237 71.925H240.961H246.684L246.626 65.1887L246.567 58.4523L244.572 58.4201C243.475 58.4023 242.197 58.4598 241.732 58.548ZM329.115 61.3391C324.815 61.9499 322.73 66.6601 325.214 70.1547C327.16 72.8938 331.599 73.3431 334.292 71.0736C336.814 68.9487 336.833 65.0225 334.332 62.8158C332.879 61.5341 331.163 61.0482 329.115 61.3391Z" fill="#222222"/>
</g>
<defs>
<clipPath id="clip0_900_4373">
<rect width="375" height="129" fill="white" transform="translate(0 0.5)"/>
</clipPath>
</defs>
</svg>
