<svg width="257" height="196" viewBox="0 0 257 196" fill="none" xmlns="http://www.w3.org/2000/svg">
<g clip-path="url(#clip0_727_1332)">
<path fill-rule="evenodd" clip-rule="evenodd" d="M101.67 196.001C106.315 196.02 110.906 192.724 113.643 188.543L110.603 180.802C109.143 183.91 106.236 187.356 102.091 187.676C95.5791 188.185 90.3956 180.84 90.3956 171.856C90.3956 156.413 104.117 150.443 110.353 162.421L113.353 154.755C110.669 150.782 106.446 147.712 101.868 147.731C92.2769 147.787 84.5938 158.127 84.5938 171.856C84.5938 185.605 92.2112 195.963 101.67 196.001Z" fill="#163E73"/>
<path d="M140.204 194.646H146.927L137.059 169.974L145.993 147.77H139.217L131.244 167.714L125.403 167.658L125.364 147.77H118.996L119.036 194.646H125.403V175.737L132.639 175.718L140.204 194.646Z" fill="#163E73"/>
<path d="M187.332 171.481C187.332 157.356 180.846 148.919 169.334 147.996H163.48C151.968 148.919 145.43 157.281 145.43 171.481C145.43 185.588 151.968 193.95 163.48 194.873H169.334C180.846 194.1 187.332 185.588 187.332 171.481ZM169.334 187.057V155.887C177.044 156.735 181.241 161.952 181.241 171.387C181.241 180.842 177.136 186.134 169.334 187.057ZM151.626 171.481C151.626 161.952 155.626 156.81 163.48 155.887V187.057C155.915 186.059 151.626 180.917 151.626 171.481Z" fill="#163E73"/>
<path d="M212.496 147.996C209.286 156.584 206.536 164.344 202.945 173.158L193.433 147.996H186.934L199.616 181.576C198.222 184.646 196.63 187.659 193.801 187.659C193.209 187.659 192.591 187.546 191.933 187.339L194.814 194.816C198.577 194.873 201.879 192.782 204.747 185.249L218.982 147.996H212.496Z" fill="#163E73"/>
<path fill-rule="evenodd" clip-rule="evenodd" d="M40.2344 95.1094C47.9307 108.481 58.5214 117.239 70.5198 119.518C70.1383 120.083 69.8357 120.911 69.52 121.42C60.337 122.55 52.0354 119.762 44.1549 112.851C42.5367 107.238 41.0895 101.249 40.2344 95.1094Z" fill="#163E73"/>
<path fill-rule="evenodd" clip-rule="evenodd" d="M73.9918 114.131C73.4918 114.79 72.6762 115.957 72.2946 116.617C58.2307 112.398 46.6665 100.081 39.1806 82.5656C38.6281 71.5292 39.3385 60.6246 41.3777 49.9648C44.2063 78.0832 56.0863 101.682 73.9918 114.131Z" fill="#163E73"/>
<path fill-rule="evenodd" clip-rule="evenodd" d="M79.6888 107.746C78.5443 108.801 76.8208 110.44 75.6762 111.909C56.8892 94.9961 46.5091 67.6122 44.9961 36.2168C50.8506 19.8505 55.9552 11.1683 65.4671 0C52.6924 40.6238 61.4939 83.0556 79.6888 107.746Z" fill="#163E73"/>
<path fill-rule="evenodd" clip-rule="evenodd" d="M94.2267 19.5508C108.606 32.7154 128.669 69.968 119.302 103.51C111.816 130.273 96.5685 137.015 91.3192 141.78C86.0567 146.526 75.7686 159.898 79.5839 180.558C68.5722 173.816 64.849 157.619 68.467 142.929C76.4922 110.253 94.5951 115.055 99.7391 71.3052C102.055 51.5865 97.1474 27.6303 94.2267 19.5508Z" fill="#163E73"/>
<path fill-rule="evenodd" clip-rule="evenodd" d="M46.4805 120.195C53.348 125.544 60.5839 127.107 68.175 124.32C67.9513 124.828 67.4514 126.203 67.2146 126.693C61.8863 130.535 56.295 130.648 50.401 129.235C48.8486 126.09 47.954 123.604 46.4805 120.195Z" fill="#163E73"/>
<path fill-rule="evenodd" clip-rule="evenodd" d="M52.7305 133.963C57.1115 134.999 62.0056 133.398 65.9392 130.215L65.2814 132.701C62.8212 136.731 58.8086 138.219 55.4933 138.445C54.2829 137.07 53.5988 135.394 52.7305 133.963Z" fill="#163E73"/>
</g>
<defs>
<clipPath id="clip0_727_1332">
<rect width="257" height="196" fill="white"/>
</clipPath>
</defs>
</svg>
