<svg width="232" height="172" viewBox="0 0 232 172" fill="none" xmlns="http://www.w3.org/2000/svg">
<path fill-rule="evenodd" clip-rule="evenodd" d="M105.111 11.3915C104.417 12.1196 104.394 13.0442 105.051 13.8622C106.034 15.0873 107.844 14.2773 107.844 12.6122C107.844 11.7271 107.026 10.8359 106.213 10.8359C105.823 10.8359 105.473 11.0123 105.111 11.3915ZM98.6004 11.2708C98.0017 11.5867 97.8821 12.5835 98.3883 13.0381C98.7389 13.3526 98.7387 13.3612 98.3814 13.9962C97.902 14.848 98.2789 14.825 98.7816 13.9718C99.0548 13.5083 99.3065 13.3067 99.6121 13.3067C99.9782 13.3067 100.05 13.4005 100.05 13.8768C100.05 14.1904 100.142 14.447 100.255 14.447C100.401 14.447 100.422 13.9983 100.329 12.8807C100.258 12.0194 100.161 11.2497 100.114 11.1702C99.9822 10.9467 99.1037 11.0051 98.6004 11.2708ZM109.443 11.1281C109.376 11.2364 109.262 12.3826 109.189 13.6752C109.092 15.4282 109.111 15.9908 109.267 15.8901C109.382 15.8158 109.475 15.4778 109.475 15.1392C109.475 14.5473 109.5 14.5264 110.109 14.6009C111.145 14.7277 111.647 14.5025 111.934 13.7812C112.45 12.4881 112.131 11.3839 111.171 11.1309C110.821 11.0389 110.54 11.1127 110.182 11.3907L109.681 11.7788L109.623 11.3548C109.592 11.1218 109.51 11.0197 109.443 11.1281ZM105.42 11.4603C105.245 11.5946 105.057 12.0551 105.002 12.4835C104.921 13.1115 104.976 13.3405 105.286 13.6647C106.128 14.5483 107.482 13.9177 107.482 12.6415C107.482 11.4722 106.293 10.7911 105.42 11.4603ZM98.7084 11.6543C98.5094 11.8069 98.4088 12.0816 98.4472 12.367C98.5013 12.7677 98.6189 12.8397 99.304 12.8912C99.9792 12.9419 100.081 12.9039 99.9837 12.638C99.9206 12.466 99.8691 12.1184 99.8691 11.8657C99.8691 11.5123 99.7724 11.4061 99.4506 11.4061C99.2204 11.4061 98.8866 11.5179 98.7084 11.6543ZM110.056 11.8746C109.669 12.391 109.376 13.8487 109.61 14.0941C109.692 14.1798 110.004 14.3012 110.304 14.3641C111.035 14.5175 111.629 13.9948 111.77 13.0727C111.986 11.6579 110.827 10.8475 110.056 11.8746ZM94.1145 11.7921C93.8902 11.8868 93.7066 12.0614 93.7066 12.1806C93.7066 12.3142 93.8279 12.3427 94.0238 12.2549C94.6482 11.9747 95.3457 11.9365 95.6114 12.1678C96.0672 12.5645 95.9143 12.8724 95.202 12.9927C94.2469 13.1537 93.7066 13.6007 93.7066 14.2298C93.7066 14.5165 93.8045 14.8537 93.9241 14.9791C94.2783 15.3505 95.2953 15.2519 95.7218 14.8047C96.0259 14.4858 96.1368 14.455 96.2557 14.6566C96.5436 15.1451 96.5775 14.7201 96.3513 13.4579C96.2258 12.7587 96.0181 12.0538 95.8896 11.8913C95.6346 11.5692 94.7595 11.5203 94.1145 11.7921ZM113.674 13.0691C113.419 14.826 113.409 15.1567 113.617 14.9126C113.701 14.8132 113.873 14.1037 113.999 13.3357L114.227 11.9392L115.023 12.0645C115.479 12.1361 115.819 12.1141 115.819 12.0128C115.819 11.8495 114.842 11.6032 114.174 11.5982C113.956 11.5967 113.837 11.9476 113.674 13.0691ZM91.7399 12.9127L91.8035 13.754L90.9027 13.9966C89.9203 14.2609 89.7271 14.1577 89.7219 13.3654C89.7204 13.1364 89.6376 12.8961 89.5379 12.8315C89.2849 12.6675 89.3104 13.0752 89.6564 14.7267C89.9767 16.255 90.3648 16.7143 90.1668 15.3307L90.0487 14.5042L90.9848 14.3101C91.8867 14.1231 91.9271 14.133 92.0888 14.5789C92.1811 14.8336 92.2566 15.1646 92.2566 15.3146C92.2566 15.4645 92.3382 15.5873 92.4379 15.5873C92.679 15.5873 92.6605 15.3581 92.2894 13.7451C91.9188 12.1327 91.65 11.7258 91.7399 12.9127ZM117.179 12.3564C117.113 12.4676 117.301 12.5464 117.633 12.5464C118.421 12.5464 118.9 12.8612 118.9 13.3793C118.9 13.7932 118.835 13.8175 117.773 13.8002C116.718 13.7829 116.631 13.8147 116.406 14.3008C115.945 15.2958 116.898 16.0794 118.026 15.6329C118.437 15.4701 118.538 15.483 118.538 15.6989C118.538 15.8466 118.605 15.9674 118.688 15.9674C118.88 15.9674 119.263 14.2417 119.263 13.3775C119.263 12.8036 119.181 12.681 118.634 12.4417C117.902 12.1207 117.337 12.0875 117.179 12.3564ZM120.712 14.7357C120.484 15.6263 120.347 16.4078 120.409 16.4726C120.533 16.6024 120.894 15.7219 120.894 15.2899C120.894 14.958 121.024 14.9533 122.07 15.2466C122.944 15.4917 123.042 15.7072 122.705 16.6366C122.568 17.0162 122.577 17.1214 122.743 17.0633C122.865 17.0207 123.099 16.511 123.263 15.9307C123.765 14.1598 123.813 13.8768 123.612 13.8768C123.508 13.8768 123.373 14.1351 123.313 14.451C123.253 14.7667 123.148 15.0612 123.079 15.1057C123.011 15.15 122.539 15.0584 122.03 14.902C121.107 14.6184 121.106 14.6167 121.272 14.011C121.478 13.259 121.479 13.1166 121.282 13.1166C121.197 13.1166 120.94 13.8453 120.712 14.7357ZM87.3245 14.1619C87.1064 14.6323 86.8694 15.0172 86.7974 15.0172C86.7254 15.0172 86.6132 14.7615 86.5478 14.4491C86.3519 13.5144 86.0352 13.5186 86.1859 14.4538L86.3173 15.269L85.4726 14.7499C85.0079 14.4645 84.5363 14.263 84.4243 14.3022C84.3123 14.3413 84.6217 14.6161 85.1119 14.9132C85.6024 15.2101 86.0276 15.4727 86.057 15.497C86.0865 15.5214 85.8659 15.9766 85.5667 16.5085C85.2675 17.0407 85.0913 17.5202 85.175 17.5745C85.2586 17.6287 85.5582 17.2102 85.8408 16.6446C86.1231 16.0788 86.4088 15.6514 86.4755 15.6945C86.5422 15.7378 86.6506 16.0735 86.7162 16.4405C86.7818 16.8075 86.9223 17.1078 87.0283 17.1078C87.2061 17.1078 87.1668 16.7123 86.8925 15.7415C86.8202 15.4858 86.9973 15.5335 87.762 15.9756C88.7788 16.5634 88.9941 16.6341 88.9941 16.38C88.9941 16.2934 88.5863 16.0222 88.0879 15.7774C87.5895 15.5326 87.1816 15.2553 87.1816 15.161C87.1816 15.0669 87.3933 14.6112 87.652 14.1482C87.9106 13.6854 88.0319 13.3067 87.9215 13.3067C87.8111 13.3067 87.5423 13.6915 87.3245 14.1619ZM94.4721 13.6026C93.6485 14.2073 94.1946 15.1502 95.1632 14.7961C95.6011 14.6361 96.0629 13.9644 96.0629 13.4878C96.0629 13.1966 94.9118 13.2795 94.4721 13.6026ZM116.846 14.27C116.64 14.5783 116.611 14.7925 116.74 15.0466C116.986 15.5282 118.018 15.5147 118.441 15.0242C118.814 14.5926 118.696 14.068 118.226 14.0642C118.049 14.0629 117.73 14.0127 117.517 13.9528C117.245 13.8764 117.046 13.9707 116.846 14.27ZM125.369 14.637C124.919 15.7719 124.373 17.5844 124.445 17.7055C124.492 17.7861 125.153 17.4267 125.912 16.9069C126.671 16.3871 127.321 15.9918 127.356 16.0284C127.391 16.0651 127.257 16.5929 127.057 17.2013C126.649 18.4463 126.624 18.6282 126.861 18.6282C127.048 18.6282 128.026 15.6871 127.933 15.4041C127.899 15.3036 127.238 15.6459 126.464 16.1645C125.689 16.6834 125.021 17.1078 124.978 17.1078C124.936 17.1078 125.062 16.617 125.259 16.0174C125.456 15.4178 125.586 14.7976 125.549 14.6395C125.489 14.3848 125.469 14.3846 125.369 14.637ZM81.2551 15.4925C80.015 16.4032 81.1386 19.0714 82.6185 18.7306C83.17 18.6035 84.0165 17.9066 83.8416 17.7233C83.7857 17.6648 83.5969 17.7488 83.4218 17.91C82.7138 18.5619 81.832 18.5537 81.4376 17.8914C81.2423 17.5631 81.3207 17.4928 82.299 17.1188C83.186 16.7797 83.3754 16.6305 83.3754 16.2717C83.3754 15.3402 82.1005 14.8716 81.2551 15.4925ZM81.9254 15.5387C81.2249 15.7918 80.7435 16.7554 81.1201 17.1501C81.314 17.3535 83.0261 16.4642 82.9734 16.1873C82.9034 15.8184 82.2574 15.4186 81.9254 15.5387ZM129.594 16.5376C129.594 16.6421 129.826 16.7277 130.11 16.7277C130.393 16.7277 130.76 16.8833 130.924 17.0736C131.184 17.3748 131.19 17.4668 130.967 17.7863C130.744 18.1057 130.639 18.1246 130.153 17.932C129.475 17.6637 129.421 17.895 130.058 18.3332C130.368 18.5463 130.504 18.7903 130.466 19.0678C130.389 19.6395 129.675 19.7127 129.033 19.2149C128.459 18.77 128.325 18.7314 128.325 19.0112C128.325 19.3128 129.451 19.9571 129.98 19.9578C130.62 19.9588 130.934 19.5224 130.799 18.8179C130.719 18.396 130.758 18.2481 130.952 18.2481C131.095 18.2481 131.3 18.077 131.407 17.868C131.766 17.1642 131.042 16.3475 130.059 16.3475C129.803 16.3475 129.594 16.4331 129.594 16.5376ZM77.6207 17.1026C77.1971 17.3043 76.8504 17.4949 76.8506 17.5261C76.8506 17.5572 77.0137 18.0328 77.2131 18.5828C77.6031 19.6589 77.6907 20.7188 77.3894 20.7188C77.2836 20.7188 77.3247 20.9644 77.4848 21.289C77.8279 21.9848 78.018 22.0298 77.8621 21.3783C77.7559 20.9347 77.84 20.8538 78.9469 20.333C79.6068 20.0226 80.1703 19.7685 80.1993 19.7685C80.2282 19.7685 80.2989 19.9573 80.3565 20.1878C80.4139 20.4185 80.5149 20.5508 80.5805 20.4818C80.8067 20.2446 80.4741 19.3884 80.1548 19.3856C79.9403 19.3837 79.669 18.9637 79.2973 18.058C78.9982 17.3294 78.672 16.7339 78.5723 16.7347C78.4726 16.7354 78.0443 16.901 77.6207 17.1026ZM77.8237 17.3814L77.2564 17.6403L77.5913 18.6569C77.7753 19.216 77.9286 19.8231 77.9319 20.0061C77.9352 20.1891 77.9687 20.3387 78.0064 20.3387C78.0907 20.3387 79.4595 19.7471 79.528 19.6809C79.5864 19.6247 78.5213 17.1043 78.4439 17.1152C78.4148 17.1194 78.1358 17.2391 77.8237 17.3814ZM133.038 18.0392C133.038 18.1375 133.274 18.2722 133.563 18.3387C134.274 18.5026 134.735 19.0629 134.579 19.5752C134.512 19.7976 134.403 19.9489 134.337 19.9115C132.791 19.0397 132.018 19.0775 131.713 20.0401C131.557 20.5307 131.597 20.6513 132.047 21.0573C132.439 21.4112 132.695 21.4946 133.15 21.4173C133.612 21.3386 133.72 21.3756 133.642 21.5877C133.588 21.7371 133.628 21.8591 133.732 21.8591C133.836 21.8591 134.179 21.3106 134.494 20.6401C135.116 19.3145 135.101 18.8 134.429 18.3606C133.902 18.0162 133.038 17.8167 133.038 18.0392ZM100.866 18.7576C90.2234 19.7208 81.5546 22.8125 73.1788 28.6325C70.9311 30.1944 68.1778 32.4171 66.5191 34.009L65.7035 34.7918L66.3379 34.5218C66.6868 34.3733 68.318 33.5941 69.9629 32.7904C71.6077 31.9866 74.1362 30.7881 75.5816 30.1269C77.0271 29.4659 79.3109 28.3948 80.6566 27.7469C87.0598 24.6642 92.0219 23.1183 97.9814 22.3499C111.497 20.6069 124.552 23.9783 135.666 32.0816C139.411 34.8118 143.687 38.7752 145.936 41.6011L146.75 42.6227L147.166 41.0908L147.582 39.5588L147.184 38.6965C146.717 37.6856 143.351 34.2253 140.469 31.7945C131.612 24.3219 121.141 19.9417 109.475 18.8283C107.551 18.6447 102.567 18.6039 100.866 18.7576ZM73.3657 19.3048C72.4119 19.8474 72.4081 21.4564 73.3586 22.2404C74.3803 23.0831 75.9242 22.3605 75.9383 21.0332C75.9494 20.0012 75.0656 18.9939 74.1684 19.0159C73.9986 19.0201 73.6374 19.1501 73.3657 19.3048ZM73.2905 19.8731C72.7572 20.4322 72.8123 21.0932 73.4516 21.8116C74.1451 22.5905 75.5816 22.1602 75.5816 21.1738C75.5816 19.6233 74.2496 18.8673 73.2905 19.8731ZM132.139 19.9449C131.737 20.7319 132.576 21.3428 133.56 20.9798C134.237 20.7302 134.256 20.2292 133.602 19.8746C132.869 19.4774 132.365 19.5015 132.139 19.9449ZM135.983 21.1677C135.56 21.9348 135.214 22.6393 135.215 22.7334C135.216 22.8275 135.713 23.1899 136.318 23.5387C137.293 24.0999 137.407 24.2257 137.309 24.6315C137.249 24.8837 137.27 25.0901 137.355 25.0901C137.602 25.0901 137.923 24.2067 137.744 24.0195C137.653 23.9237 137.89 23.3009 138.302 22.5568C139.083 21.1451 139.101 21.0989 138.847 21.0989C138.752 21.0989 138.378 21.6548 138.016 22.3343C137.653 23.0137 137.287 23.5696 137.201 23.5696C137.084 23.5696 136.12 23.0453 135.617 22.7077C135.59 22.6897 135.896 22.0864 136.297 21.3673C136.698 20.6481 137.025 19.9941 137.025 19.9141C137.025 19.4945 136.674 19.9172 135.983 21.1677ZM69.8438 21.5761L69.0902 22.0498L69.7278 23.353C70.2641 24.4488 70.3325 24.721 70.1579 25.0633C69.9875 25.397 70.0002 25.4702 70.2284 25.4702C70.6589 25.4702 70.5719 24.3895 70.0457 23.2045C69.5696 22.1319 69.5681 22.1389 70.3519 21.6666C70.5949 21.5201 70.7919 21.7149 71.4152 22.7184C72.0636 23.7616 72.5004 24.2215 72.5004 23.8606C72.5004 23.6719 70.8449 21.0991 70.7245 21.1006C70.6545 21.1018 70.2581 21.3156 69.8438 21.5761ZM139.772 23.8072C139.107 24.7839 138.909 25.2022 139.095 25.244C139.238 25.2763 140.014 25.0908 140.819 24.8318C141.623 24.5726 142.282 24.4076 142.282 24.4652C142.282 24.5226 141.996 24.9861 141.647 25.4955C141.039 26.3836 140.825 26.945 141.183 26.713C141.471 26.5258 143.03 24.101 142.929 23.9954C142.877 23.9406 142.119 24.1105 141.244 24.373C140.369 24.6355 139.626 24.8253 139.592 24.7947C139.558 24.7641 139.864 24.2757 140.272 23.7095C140.679 23.1432 141.013 22.6235 141.013 22.5546C141.013 22.1725 140.608 22.5814 139.772 23.8072ZM66.2117 24.1314C65.0671 24.8633 65.3115 26.7192 66.6286 27.2962C67.1854 27.5403 67.327 27.5374 67.8602 27.2721C68.4424 26.9825 68.8754 26.3275 68.8754 25.7368C68.8754 25.1961 68.3244 24.3358 67.7939 24.048C67.1053 23.6745 66.9103 23.685 66.2117 24.1314ZM66.2391 24.6064C65.7211 25.1494 65.6894 25.4666 66.0747 26.2481C66.3818 26.8707 67.0598 27.2375 67.5597 27.0515C68.6338 26.6518 68.8265 25.5797 67.9831 24.6953C67.3364 24.0174 66.8256 23.9912 66.2391 24.6064ZM143.829 26.0328C143.615 26.281 143.545 26.5611 143.619 26.8728C143.716 27.2759 143.656 27.3578 143.19 27.4654C142.892 27.534 142.594 27.6822 142.527 27.7951C142.411 27.9936 143.062 27.9282 143.732 27.6745C143.881 27.6178 144.155 27.6923 144.341 27.84C144.667 28.1002 144.666 28.1264 144.283 28.6899C144.066 29.0096 143.972 29.2713 144.074 29.2713C144.309 29.2713 146.088 26.9779 146.088 26.6746C146.088 26.3038 145.17 25.6602 144.642 25.6602C144.371 25.6602 144.006 25.8279 143.829 26.0328ZM144.101 26.3163C143.816 26.6765 144.018 27.3145 144.503 27.5866C144.831 27.7708 144.949 27.7263 145.315 27.2795C145.721 26.7842 145.728 26.738 145.435 26.3986C145.067 25.9721 144.406 25.9315 144.101 26.3163ZM63.4934 27.6319L63.6059 28.895L63.114 28.7796C62.8436 28.7161 62.3413 28.5894 61.998 28.4978C60.9896 28.2288 61.0015 28.2634 62.6081 30.2672C62.9991 30.7549 63.388 31.1091 63.4723 31.0546C63.5566 30.9998 63.238 30.4797 62.7645 29.8983L61.9034 28.8416L62.5347 28.9931C63.8452 29.3074 63.8736 29.2884 63.8209 28.131L63.7732 27.0857L64.6737 28.131C65.169 28.7059 65.6234 29.1267 65.6834 29.0662C65.8056 28.9431 63.8936 26.5569 63.5807 26.4421C63.441 26.391 63.4147 26.7489 63.4934 27.6319ZM86.366 27.1138C82.1536 27.8054 76.2787 30.3056 68.3316 34.7884C63.4154 37.5617 58.3678 39.7739 55.5764 40.3785C52.2423 41.1007 48.8239 40.4268 45.9114 38.473C45.3829 38.1186 44.9504 37.915 44.9504 38.0209C44.9504 38.4078 46.4336 40.6617 47.1096 41.3022C48.7904 42.8945 50.7767 43.6997 53.3975 43.8514C57.428 44.0846 62.1202 42.7671 67.702 39.8351C68.9455 39.1819 69.9629 38.675 69.9629 38.7087C69.9629 38.7423 69.608 39.2625 69.1743 39.8648C66.959 42.9403 64.5018 47.7135 63.5262 50.8371C62.2038 55.0696 62.3279 58.2013 63.9188 60.7452C64.2524 61.2785 64.5254 61.7592 64.5254 61.8131C64.5254 61.8671 64.0157 62.0159 63.3926 62.1438C60.1939 62.8001 56.7338 65.4198 54.3464 68.9928C50.781 74.3288 48.5328 82.6069 48.5395 90.3741C48.5455 97.3538 50.9842 103.888 55.1479 108.079C57.0503 109.994 58.5309 110.814 60.3307 110.949C61.9964 111.074 63.1437 110.665 64.3713 109.509C67.2606 106.788 68.8605 101.418 69.4327 92.523C69.6515 89.1216 69.5087 85.8215 68.9388 81.1028C68.7775 79.7665 68.6938 78.6227 68.7527 78.561C68.8116 78.4992 69.3838 78.6686 70.0243 78.9375C72.1997 79.8507 74.0831 80.2663 76.1254 80.2844C78.3051 80.3036 79.1876 79.9893 79.7711 78.9859C80.4078 77.8912 80.0406 75.6894 78.8601 73.522L78.3522 72.5896L78.1382 73.9814C77.7307 76.6302 76.6119 78.3057 75.2505 78.3054C74.2208 78.3052 72.6412 77.4049 69.8723 75.2403C65.9163 72.1476 64.6834 71.4636 63.0645 71.4636C60.2792 71.4636 58.662 74.3509 58.141 80.2531C57.5638 86.7948 59.4004 95.3172 62.2712 99.4178C63.2434 100.807 63.4716 100.921 63.0725 99.8198C61.4733 95.4067 60.4342 86.0258 61.1525 82.4868C61.4518 81.0117 62.2059 79.5936 62.7493 79.4839C63.8323 79.2651 65.0766 87.9624 65.0824 95.7906C65.0878 102.945 64.3244 106.805 62.5327 108.684C61.5748 109.688 60.1294 109.669 58.5597 108.63C53.815 105.489 51.877 92.822 54.4881 82.0143C56.0364 75.6054 59.7132 68.8283 63.4629 65.4721C64.6302 64.4271 66.4981 63.3974 67.7879 63.0878L68.7848 62.8485L68.1254 61.4767C67.2021 59.556 66.9357 57.8465 67.2077 55.5877C67.8861 49.9552 71.4176 43.5425 77.2098 37.4245C81.6073 32.7799 85.898 30.2157 89.2588 30.2244C91.2261 30.2294 91.9317 31.0221 91.5715 32.8225C91.1012 35.1746 89.2899 37.9568 84.5421 43.6205C80.9784 47.8716 77.7876 51.2314 75.7176 52.9123C74.8454 53.6206 74.1316 54.2719 74.1316 54.3597C74.1316 54.7003 75.1407 55.7534 75.7033 55.9999C76.6282 56.4051 77.3922 56.3108 78.7586 55.6232C84.5368 52.7148 92.4018 40.9578 93.5263 33.5475C93.9805 30.5536 93.094 28.3448 91.0785 27.4487C90.3528 27.126 87.5182 26.9245 86.366 27.1138ZM151.707 38.5707C149.494 39.0472 147.753 41.1505 146.661 44.6658C146.08 46.5367 145.77 48.1035 144.909 53.503C143.802 60.4493 143.007 62.7967 141.508 63.5424C139.602 64.4908 138.147 63.3742 138.664 61.3602C139.127 59.5574 140.839 56.7738 143.014 54.2869L143.991 53.17L143.363 53.3049C139.7 54.0914 136.481 58.2555 136.482 62.2069C136.482 63.8366 136.829 64.6955 137.75 65.3489C138.3 65.7385 138.543 65.7872 139.563 65.7115C142.727 65.4776 144.994 62.8807 146.624 57.6218C146.927 56.6467 147.549 54.0382 148.008 51.8252C149.59 44.1861 150.163 42.2475 151.23 40.9249C151.903 40.0913 152.84 39.7776 153.435 40.1867C153.794 40.4334 153.881 40.6503 153.878 41.2967C153.871 42.7289 152.882 44.5128 150.822 46.809L149.622 48.1466L150.438 48.0163C152.806 47.6379 154.037 46.6908 155.04 44.4757C155.78 42.8418 155.839 40.9262 155.18 39.9575C154.461 38.9003 152.96 38.3008 151.707 38.5707ZM140.469 40.2721C137.785 41.1908 136.095 43.5306 135.145 47.6445C134.745 49.3791 134.544 50.9918 133.933 57.3565C133.565 61.1907 132.683 63.6392 131.478 64.167C130.218 64.7191 129.232 63.9089 129.232 62.3219C129.232 60.4974 130.252 58.3532 132.286 55.9058C133.572 54.358 133.499 54.3071 131.458 55.3311C130.126 55.9997 128.068 57.9647 125.935 60.6055C122.778 64.5123 121.577 65.5718 120.303 65.5718C118.927 65.5718 118.37 64.9718 118.363 63.4812C118.357 62.1571 118.58 61.2903 119.404 59.4232L120.062 57.9311L120.886 58.0443C122.811 58.3093 125.415 57.3599 126.887 55.8562C129.292 53.4 131.413 48.5317 131.168 46.033C131.052 44.8556 130.714 44.2315 129.902 43.6944C128.997 43.0963 127.11 43.2706 125.649 44.0872C118.941 47.8365 113.521 61.3923 116.85 66.0947C118.477 68.3925 121.331 67.4388 125.244 63.29L127.147 61.2722L127.183 62.3027C127.259 64.4826 128.481 65.952 130.22 65.952C132.116 65.952 133.961 64.441 135.252 61.8318C136.398 59.5142 136.859 57.6863 137.929 51.2227C138.975 44.8946 139.402 43.4768 140.585 42.3874C141.236 41.7878 142.04 41.6374 142.427 42.043C142.546 42.1684 142.644 42.5871 142.644 42.9733C142.644 43.7501 141.494 45.5989 139.593 47.8781L138.578 49.0948L139.297 48.9618C141.171 48.6151 142.008 48.2426 142.761 47.4216C144.079 45.9829 144.665 43.35 144.024 41.7422C143.537 40.5197 141.82 39.8099 140.469 40.2721ZM43.1192 43.118C43.3318 43.4308 44.0363 44.1969 44.6852 44.8201C47.4799 47.5054 51.1245 48.5499 54.4921 47.6306C55.1047 47.4634 55.6893 47.3265 55.7913 47.3265C55.8932 47.3265 55.5673 48.0725 55.067 48.9842C51.6284 55.2503 49.3365 62.3248 48.1864 70.2223C47.781 73.007 47.5348 79.7272 47.7614 81.8326L47.9033 83.152L48.2475 81.7265C48.4367 80.9426 49.0312 78.6762 49.5688 76.6901C50.1064 74.704 50.8421 71.8389 51.2035 70.3232C53.8135 59.3816 56.3648 52.6713 60.1995 46.6614C61.1333 45.1979 61.9188 43.954 61.9453 43.8972C61.9716 43.8404 60.952 44.1579 59.6797 44.6029C56.6673 45.6563 55.069 45.9965 53.1402 45.9948C50.6402 45.9927 47.5486 45.0788 44.3401 43.3932L42.733 42.5489L43.1192 43.118ZM95.9424 43.5944C95.5601 44.0506 94.8878 45.0983 94.4487 45.9226C92.756 49.0994 91.4372 51.312 89.8486 53.6408C88.9412 54.9706 88.1754 56.0341 88.1468 56.0041C88.1182 55.9741 88.2563 55.0753 88.4538 54.007C88.8829 51.6864 88.8981 51.0915 88.5474 50.3804C88.1667 49.6085 87.5012 49.4943 86.4804 50.0255C85.4177 50.5788 85.3316 50.8458 84.835 55.1317C84.3592 59.2369 83.8613 61.5208 83.226 62.5121C82.3765 63.838 79.911 66.6915 77.6463 68.9702C76.0038 70.6228 74.9774 71.474 73.5681 72.3526C70.8284 74.0607 70.9491 73.9379 71.3029 74.6552C72.0335 76.1368 73.4146 75.9785 75.4225 74.1827C76.7619 72.9848 78.1055 71.3674 80.9854 67.4857L83.4434 64.173L83.7589 65.7106C84.1571 67.652 84.442 68.2241 85.3323 68.871C85.7248 69.1563 86.223 69.5873 86.4396 69.8291L86.8335 70.2687L85.8917 71.8612C84.6635 73.9375 83.4945 76.4888 82.7749 78.6632L82.1973 80.4085L80.4754 81.2193C75.6612 83.4861 73.2789 86.1206 71.9333 90.6658C71.3518 92.6298 71.3456 95.777 71.9202 97.3111C72.6833 99.3479 73.9825 100.465 75.8205 100.665L76.7598 100.767L76.1836 100.271C73.7724 98.196 74.1788 94.2827 77.196 90.5236C78.6283 88.7394 80.267 87.5067 83.5304 85.7586C86.8384 83.9863 90.7251 82.3125 94.8833 80.869C97.9562 79.8022 101.172 78.863 101.305 78.9934C101.397 79.0833 101.544 78.8765 95.5059 87.1752C85.734 100.606 82.0827 105.947 79.1124 111.155C78.4361 112.34 77.7119 113.387 77.5027 113.482C76.4545 113.956 72.4504 115.013 70.9859 115.202C68.2843 115.55 66.0365 114.954 63.7051 113.272C62.7198 112.561 62.714 112.594 63.3482 115.265C64.4728 120.004 66.406 122.314 70.2716 123.537L71.5769 123.95L71.2322 124.868C70.6444 126.431 67.5055 132.89 66.4193 134.77C62.1601 142.144 56.954 148.111 51.3298 152.064C49.2248 153.544 49.2683 153.608 52.0407 153.098C56.1971 152.335 59.8076 150.268 63.3353 146.63C66.8753 142.981 69.3533 139.196 75.0314 128.765C79.1389 121.22 81.8513 117.092 83.2779 116.216C84.8113 115.274 86.1574 114.948 88.1785 115.03C89.558 115.087 90.2152 115.208 90.9297 115.538C92.6019 116.311 92.5735 116.111 91.6281 120.428C89.4667 130.295 86.4456 139.936 83.3051 146.987C82.8452 148.019 82.4691 148.898 82.4691 148.94C82.4691 148.982 82.979 148.564 83.602 148.012C84.2251 147.459 86.2558 145.745 88.1147 144.202C89.9738 142.659 91.613 141.205 91.7578 140.972C91.9025 140.739 92.8183 139.009 93.7931 137.128C97.2111 130.53 99.2877 127.099 104.372 119.649C108.76 113.218 112.005 109.248 112.164 110.115C112.28 110.747 111.467 112.715 108.737 118.407C107.258 121.491 105.961 124.425 105.855 124.929C105.661 125.85 105.864 127.888 106.208 128.471C106.324 128.668 107.095 128.247 109.503 126.672C120.322 119.595 134.294 112.569 153.347 104.624C165.149 99.7025 169.033 98.8268 183.218 97.8885C186.244 97.6881 188.755 97.4871 188.799 97.4413C188.843 97.3957 187.917 97.2408 186.741 97.0971C183.848 96.7436 168.015 96.7324 164.666 97.0815C157.423 97.8366 151.83 99.1622 146.439 101.402C140.225 103.984 136.033 106.406 122.435 115.272C115.238 119.965 109.938 123.349 109.785 123.349C109.726 123.349 109.946 122.728 110.275 121.971C111.422 119.331 112.97 114.876 113.486 112.733C114.353 109.136 114.123 107.772 112.647 107.769C110.409 107.765 104.532 113.123 96.652 122.354C94.8849 124.424 94.9214 124.512 95.7111 120.088C98.4761 104.599 104.254 87.5217 110.812 75.4551C112.692 71.9971 112.716 71.9203 112.728 69.3127L112.738 67.0668L111.566 68.3136C109.43 70.5866 104.443 73.6338 100.504 75.0727C99.6063 75.4004 96.2623 76.3425 93.0723 77.1662C89.8823 77.9899 86.7456 78.8364 86.1019 79.0471C85.4583 79.2581 84.8977 79.3949 84.8562 79.3514C84.7523 79.2427 86.7164 75.839 89.2537 71.7298L91.3705 68.302L92.4025 68.8545C93.295 69.3321 93.5819 69.3948 94.5223 69.318C96.5412 69.1531 99.124 67.4325 101.282 64.8149C102.227 63.6688 102.638 63.3108 103.132 63.2059C104.128 62.9941 105.298 62.3941 106.162 61.6516C107.326 60.6519 108.546 58.7101 110.379 54.9451C111.922 51.7729 113.179 49.7022 113.561 49.7022C113.657 49.7022 113.759 50.1006 113.789 50.5877C113.865 51.8214 113.302 53.1348 110.748 57.6846C109.575 59.7752 108.39 61.953 108.116 62.5243C106.578 65.7262 106.301 67.8818 107.278 69.0288L107.8 69.6407L107.936 68.7942C108.209 67.0887 109.323 64.9977 112.067 61.0366C115.81 55.6316 117.088 53.2886 117.088 51.8269C117.088 51.445 116.846 50.8162 116.454 50.1774C115.503 48.6299 115.554 47.6915 116.719 45.3074C117.213 44.2948 117.576 43.3941 117.524 43.3057C117.355 43.0203 115.749 43.1438 115.002 43.4998C114.178 43.8923 113.175 45.001 112.806 45.9287C112.669 46.2727 112.553 47.0487 112.549 47.6531C112.544 48.2574 112.436 49.0597 112.308 49.436C111.902 50.6265 107.469 57.1007 105.684 59.11L104.755 60.1553L105.407 58.9199C107.769 54.4453 108.919 50.3876 108.496 48.0229C108.428 47.6447 108.129 47.0844 107.823 46.7638C106.366 45.2357 104.245 46.6425 101.321 51.0763C100.685 52.0412 100.136 52.8007 100.101 52.7644C100.066 52.7279 100.336 52.0241 100.701 51.2002C101.234 49.998 101.369 49.4584 101.387 48.4669L101.41 47.2315L100.594 47.2967C99.5846 47.3773 98.6566 47.8173 98.3737 48.349C98.2557 48.5706 97.9093 49.4362 97.6035 50.2724C97.0362 51.8244 94.8826 55.9522 91.2322 62.4842C88.5024 67.3694 87.3596 69.2135 87.1157 69.1282C87.0042 69.0892 86.7492 68.765 86.5489 68.4075C85.8215 67.1094 86.1703 63.7017 87.3589 60.4903C87.8001 59.2987 88.415 58.3203 90.5565 55.4039C94.0532 50.6415 95.4233 48.5598 96.468 46.4217C97.3505 44.615 97.5667 43.4679 97.1141 42.9933C96.7863 42.6495 96.6953 42.6962 95.9424 43.5944ZM128.164 45.3481C126.004 47.3847 120.384 56.3072 120.808 57.027C120.989 57.3335 122.221 57.2288 122.797 56.8578C124.068 56.0394 125.214 54.4536 127.02 51.0148C128.994 47.2545 129.877 44.7517 129.304 44.5373C129.194 44.4962 128.681 44.8611 128.164 45.3481ZM159.863 47.3041C159.863 47.4086 159.944 47.547 160.044 47.6116C160.144 47.6762 160.225 47.6436 160.225 47.539C160.225 47.4345 160.144 47.2961 160.044 47.2315C159.944 47.1669 159.863 47.1996 159.863 47.3041ZM104.626 47.9936C103.149 49.3233 99.1055 55.3484 94.4867 63.1011C92.0254 67.2327 91.9025 67.5709 92.6596 68.1268C93.6499 68.8541 94.954 68.3174 96.6797 66.4721C98.2484 64.7947 100.044 61.9977 101.69 58.6654C103.822 54.3489 105.59 49.2951 105.455 47.8996L105.397 47.2996L104.626 47.9936ZM150.8 48.5891C150.8 48.6562 151.408 49.8879 152.152 51.3264C155.133 57.0975 156.989 62.7636 158.03 69.2779C159.393 77.8008 158.875 86.8953 156.591 94.5553C156.186 95.9142 155.81 97.2126 155.755 97.4407L155.657 97.8554L156.717 97.5669C158.948 96.96 159.496 96.1565 160.389 92.1796C161.541 87.0462 161.946 82.6932 161.801 77.0029C161.578 68.2543 159.896 60.6477 156.517 53.1194C155.098 49.9562 154.407 48.9124 153.574 48.6697C152.823 48.4509 150.8 48.3922 150.8 48.5891ZM160.894 49.1684C160.839 49.2628 160.859 49.4523 160.94 49.5892C161.02 49.7258 161.132 49.7604 161.188 49.6659C161.243 49.5715 161.223 49.382 161.142 49.2452C161.062 49.1085 160.95 49.0739 160.894 49.1684ZM161.857 51.4127C161.857 51.5695 161.936 51.6978 162.032 51.6978C162.129 51.6978 162.161 51.5695 162.104 51.4127C162.046 51.2559 161.967 51.1277 161.928 51.1277C161.889 51.1277 161.857 51.2559 161.857 51.4127ZM47.241 51.7928C47.1838 51.9496 47.2158 52.0779 47.3123 52.0779C47.4089 52.0779 47.4879 51.9496 47.4879 51.7928C47.4879 51.636 47.4558 51.5078 47.4167 51.5078C47.3775 51.5078 47.2985 51.636 47.241 51.7928ZM162.623 53.444C162.663 53.5681 162.792 53.7035 162.91 53.7449C163.043 53.7913 163.083 53.7042 163.016 53.5193C162.889 53.1738 162.514 53.1019 162.623 53.444ZM46.329 53.8994C46.2614 54.0843 46.3018 54.1714 46.4343 54.125C46.7053 54.0304 46.8544 53.5984 46.6161 53.5984C46.5187 53.5984 46.3897 53.7339 46.329 53.8994ZM163.491 55.5352C163.489 55.712 163.569 55.9094 163.669 55.9741C163.899 56.1227 163.899 55.871 163.669 55.4989C163.518 55.2532 163.493 55.2583 163.491 55.5352ZM45.6205 55.9537C45.5463 56.1516 45.5284 56.3584 45.5804 56.4131C45.7459 56.5864 45.8913 56.3023 45.822 55.9414C45.7586 55.6107 45.7488 55.6112 45.6205 55.9537ZM148.655 57.7796C147.362 61.6392 146.336 63.184 143.913 64.9203C143.216 65.4192 142.67 65.852 142.698 65.8818C142.727 65.9117 143.202 65.826 143.754 65.6912C147.491 64.7805 149.469 61.8547 149.313 57.4713L149.26 55.9741L148.655 57.7796ZM164.213 57.8634C164.213 58.0263 164.294 58.1597 164.394 58.1597C164.494 58.1597 164.575 58.0793 164.575 57.9809C164.575 57.8824 164.494 57.7492 164.394 57.6846C164.294 57.6199 164.213 57.7005 164.213 57.8634ZM44.8748 58.1342C44.7967 58.2667 44.7818 58.4263 44.8416 58.4891C45.0039 58.6592 45.1808 58.409 45.093 58.1335C45.0318 57.9404 44.989 57.9404 44.8748 58.1342ZM164.87 59.8318C164.821 59.9152 164.855 60.1076 164.947 60.2594C165.077 60.4749 165.114 60.4417 165.116 60.1078C165.119 59.6682 165.027 59.565 164.87 59.8318ZM44.2254 60.5354C44.2254 60.6922 44.2575 60.8205 44.2966 60.8205C44.3358 60.8205 44.4148 60.6922 44.4723 60.5354C44.5295 60.3786 44.4974 60.2503 44.401 60.2503C44.3044 60.2503 44.2254 60.3786 44.2254 60.5354ZM165.482 62.2459C165.482 62.4027 165.561 62.531 165.657 62.531C165.754 62.531 165.786 62.4027 165.729 62.2459C165.671 62.0891 165.592 61.9608 165.553 61.9608C165.514 61.9608 165.482 62.0891 165.482 62.2459ZM43.6816 62.6372C43.6816 62.8001 43.7632 62.8807 43.8629 62.816C43.9626 62.7514 44.0441 62.6182 44.0441 62.5198C44.0441 62.4213 43.9626 62.3409 43.8629 62.3409C43.7632 62.3409 43.6816 62.4743 43.6816 62.6372ZM165.96 64.5265C166.017 64.6833 166.096 64.8116 166.135 64.8116C166.175 64.8116 166.207 64.6833 166.207 64.5265C166.207 64.3698 166.128 64.2415 166.031 64.2415C165.935 64.2415 165.903 64.3698 165.96 64.5265ZM43.1379 64.9067C43.1379 65.0635 43.2195 65.1917 43.3191 65.1917C43.4188 65.1917 43.5004 65.0635 43.5004 64.9067C43.5004 64.7499 43.4188 64.6216 43.3191 64.6216C43.2195 64.6216 43.1379 64.7499 43.1379 64.9067ZM166.391 66.6647C166.389 66.9 166.469 67.0923 166.569 67.0923C166.796 67.0923 166.796 66.8906 166.569 66.5221C166.427 66.2916 166.393 66.319 166.391 66.6647ZM42.7754 67.1873C42.7754 67.3441 42.8075 67.4724 42.8466 67.4724C42.8858 67.4724 42.9648 67.3441 43.0223 67.1873C43.0795 67.0305 43.0474 66.9022 42.951 66.9022C42.8544 66.9022 42.7754 67.0305 42.7754 67.1873ZM129.694 69.1006C129.517 70.0898 128.184 74.2467 127.773 75.0923L127.42 75.8177L124.384 75.7052C119.739 75.533 116.705 76.1133 113.465 77.793C111.926 78.5903 111.925 78.5916 110.519 80.739C109.746 81.9206 109.113 82.9266 109.113 82.9743C109.113 83.0222 109.664 82.642 110.336 82.1298C113.239 79.9201 115.255 79.0783 117.994 78.9318C120.444 78.8008 125.788 79.2834 125.788 79.6357C125.788 79.7133 125.043 81.1349 124.132 82.7948C119.899 90.5118 117.064 97.1828 115.862 102.253C115.299 104.629 115.185 108.213 115.626 109.665L115.886 110.52L116.026 109.17C116.289 106.641 117.216 104.767 119.243 102.665C120.272 101.599 122.002 100.323 126.547 97.279C128.5 95.9708 129.333 95.1446 129.88 93.9718C130.719 92.1733 130.451 89.6931 129.194 87.6183L128.791 86.9531L128.679 88.1116C128.459 90.39 126.767 93.2562 124.012 96.0155C122.52 97.5108 119.961 99.6267 119.822 99.4806C119.641 99.2915 122.447 93.7546 124.823 89.6138C128.252 83.6345 130.171 80.59 130.512 80.5879C130.669 80.587 132.096 80.8008 133.684 81.0631C146.988 83.2599 154.394 81.9487 156.561 77.0124C157.198 75.5613 157.324 73.0853 156.869 70.9544C156.586 69.6309 156.532 69.5201 156.371 69.9431C155.207 73.0213 153.77 74.7449 151.323 76.0013C148.547 77.4264 146.069 77.8392 141.285 77.6734C138.551 77.5788 134.08 77.077 132.552 76.6937L132.157 76.5945L132.598 75.4583C133.204 73.8944 133.185 72.6972 132.539 71.7046C131.911 70.7379 130.086 68.4487 129.931 68.4339C129.868 68.4278 129.761 68.7277 129.694 69.1006ZM166.75 69.0041C166.75 69.2192 166.828 69.3448 166.924 69.2831C167.019 69.2213 167.051 69.0451 166.995 68.8917C166.851 68.4989 166.75 68.5451 166.75 69.0041ZM42.4129 69.4792C42.4129 69.6421 42.4945 69.7227 42.5941 69.658C42.6938 69.5934 42.7754 69.4602 42.7754 69.3617C42.7754 69.2633 42.6938 69.1829 42.5941 69.1829C42.4945 69.1829 42.4129 69.3163 42.4129 69.4792ZM167.045 71.0451C166.996 71.1285 167.03 71.3208 167.122 71.4727C167.252 71.6882 167.289 71.6549 167.291 71.321C167.294 70.8814 167.202 70.7782 167.045 71.0451ZM42.1684 71.5525C42.1122 71.7059 42.1443 71.8821 42.2396 71.9438C42.335 72.0056 42.4129 71.88 42.4129 71.6648C42.4129 71.2058 42.3121 71.1597 42.1684 71.5525ZM167.323 73.5542C167.323 73.8155 167.364 73.9225 167.414 73.7917C167.465 73.6612 167.465 73.4474 167.414 73.3166C167.364 73.186 167.323 73.2928 167.323 73.5542ZM41.9955 73.8189C41.9213 74.0168 41.9034 74.2235 41.9554 74.2783C42.1209 74.4516 42.2663 74.1675 42.197 73.8066C42.1336 73.4759 42.1238 73.4764 41.9955 73.8189ZM167.375 75.6613C167.308 75.775 167.344 75.9631 167.455 76.0794C167.603 76.2347 167.657 76.1798 167.657 75.8728C167.657 75.4139 167.563 75.3432 167.375 75.6613ZM41.8835 76.3257C41.8922 76.5472 41.9351 76.5922 41.9929 76.4407C42.0453 76.3035 42.0388 76.1395 41.9786 76.0764C41.9184 76.0133 41.8757 76.1254 41.8835 76.3257ZM167.504 78.1155C167.504 78.3768 167.545 78.4838 167.595 78.3531C167.646 78.2225 167.646 78.0087 167.595 77.8779C167.545 77.7474 167.504 77.8542 167.504 78.1155ZM41.8835 78.6064C41.8922 78.8278 41.9351 78.8729 41.9929 78.7214C42.0453 78.5842 42.0388 78.4202 41.9786 78.3571C41.9184 78.294 41.8757 78.4061 41.8835 78.6064ZM167.294 80.3849C167.294 80.4834 167.376 80.6166 167.475 80.6812C167.575 80.7459 167.657 80.6653 167.657 80.5024C167.657 80.3395 167.575 80.2061 167.475 80.2061C167.376 80.2061 167.294 80.2865 167.294 80.3849ZM41.8835 80.8871C41.8922 81.1085 41.9351 81.1535 41.9929 81.0021C42.0453 80.8648 42.0388 80.7008 41.9786 80.6377C41.9184 80.5746 41.8757 80.6868 41.8835 80.8871ZM155.15 81.5616C154.154 81.9818 150.416 82.8342 148.571 83.0624C146.59 83.3074 143.023 83.2189 141.406 82.8846C140.212 82.6379 140.73 82.9438 142.629 83.609C146.625 85.0075 150.194 85.135 152.783 83.9717C153.746 83.5387 155.235 82.3845 155.615 81.7769C155.908 81.3069 155.835 81.2729 155.15 81.5616ZM115.592 81.7991C113.868 82.4659 112.738 84.165 112.738 86.0889C112.738 87.7129 112.536 88.1812 110.543 91.1879C108.102 94.8694 106.701 96.743 105.202 98.3298C104.049 99.5486 101.925 101.368 101.442 101.55C101.325 101.594 101.291 101.7 101.366 101.785C101.583 102.028 104.146 101.539 104.974 101.096C105.886 100.609 107.283 99.2612 108.127 98.0563C108.472 97.5635 109.5 95.6333 110.413 93.7671C112.037 90.4459 113.357 88.1884 113.675 88.1884C113.763 88.1884 113.908 88.3906 113.997 88.6379C114.367 89.6564 113.66 91.3739 110.742 96.5509C107.739 101.877 106.938 103.802 106.938 105.689C106.938 106.591 107.021 106.888 107.407 107.369C107.665 107.691 107.93 107.954 107.996 107.954C108.062 107.954 108.138 107.634 108.165 107.243C108.264 105.789 109.728 103.142 113.181 98.1663C115.208 95.2471 116.496 93.0943 116.965 91.8432C117.438 90.5803 117.357 89.8197 116.612 88.5547C116.025 87.5578 115.963 87.3307 116.034 86.4354C116.111 85.4665 116.625 84.1077 117.473 82.6329C117.697 82.2429 117.842 81.8833 117.794 81.8339C117.558 81.5855 116.2 81.564 115.592 81.7991ZM167.294 82.7719C167.294 82.9286 167.326 83.0569 167.365 83.0569C167.405 83.0569 167.484 82.9286 167.541 82.7719C167.598 82.6151 167.566 82.4868 167.47 82.4868C167.373 82.4868 167.294 82.6151 167.294 82.7719ZM41.8691 83.0457C41.8691 83.1442 41.9507 83.2774 42.0504 83.342C42.1501 83.4066 42.2316 83.326 42.2316 83.1632C42.2316 83.0003 42.1501 82.8669 42.0504 82.8669C41.9507 82.8669 41.8691 82.9473 41.8691 83.0457ZM103.213 85.1C98.8917 90.4094 92.4948 99.4595 88.5365 105.864C86.8503 108.591 85.0066 111.785 85.0066 111.977C85.0066 112.064 85.6651 112.135 86.4701 112.135C88.1566 112.135 90.0075 112.697 91.8291 113.761L92.9419 114.411L94.3416 109.995C96.2414 103.999 96.9554 102.079 100.684 92.9375C104.356 83.9337 104.254 84.1973 104.079 84.1973C104.006 84.1975 103.617 84.6036 103.213 85.1ZM167.113 85.0637C167.113 85.2266 167.194 85.3072 167.294 85.2426C167.394 85.1779 167.475 85.0447 167.475 84.9463C167.475 84.8478 167.394 84.7674 167.294 84.7674C167.194 84.7674 167.113 84.9008 167.113 85.0637ZM42.166 85.4326C42.2235 85.5894 42.3025 85.7177 42.3417 85.7177C42.3808 85.7177 42.4129 85.5894 42.4129 85.4326C42.4129 85.2758 42.3339 85.1475 42.2373 85.1475C42.1408 85.1475 42.1088 85.2758 42.166 85.4326ZM166.946 87.349C166.955 87.5704 166.998 87.6154 167.055 87.4639C167.108 87.3267 167.101 87.1627 167.041 87.0996C166.981 87.0365 166.938 87.1486 166.946 87.349ZM42.4129 87.7021C42.4129 87.865 42.4945 87.9984 42.5941 87.9984C42.6938 87.9984 42.7754 87.918 42.7754 87.8195C42.7754 87.7211 42.6938 87.5879 42.5941 87.5232C42.4945 87.4586 42.4129 87.5392 42.4129 87.7021ZM166.569 89.5076C166.569 89.9666 166.67 90.0128 166.814 89.6199C166.87 89.4665 166.838 89.2904 166.742 89.2286C166.647 89.1668 166.569 89.2925 166.569 89.5076ZM42.7897 90.0097C42.7984 90.2311 42.8414 90.2762 42.8992 90.1247C42.9516 89.9875 42.945 89.8235 42.8849 89.7604C42.8247 89.6973 42.7819 89.8094 42.7897 90.0097ZM166.143 91.6984C166.087 91.8517 166.119 92.0279 166.215 92.0897C166.31 92.1515 166.388 92.0258 166.388 91.8107C166.388 91.3517 166.287 91.3055 166.143 91.6984ZM43.1379 92.1684C43.1379 92.3835 43.2195 92.5597 43.3191 92.5597C43.4188 92.5597 43.5004 92.4365 43.5004 92.2858C43.5004 92.1351 43.4188 91.9591 43.3191 91.8945C43.2195 91.8299 43.1379 91.9532 43.1379 92.1684ZM43.6816 94.3652C43.6816 94.522 43.7607 94.6503 43.8573 94.6503C43.9537 94.6503 43.9858 94.522 43.9285 94.3652C43.871 94.2084 43.792 94.0801 43.7529 94.0801C43.7137 94.0801 43.6816 94.2084 43.6816 94.3652ZM44.2254 96.6459C44.2254 96.8027 44.3044 96.931 44.401 96.931C44.4974 96.931 44.5295 96.8027 44.4723 96.6459C44.4148 96.4891 44.3358 96.3608 44.2966 96.3608C44.2575 96.3608 44.2254 96.4891 44.2254 96.6459ZM44.7691 98.7141C44.7691 98.8709 44.8507 99.052 44.9504 99.1166C45.0501 99.1812 45.1316 99.1058 45.1316 98.949C45.1316 98.7922 45.0501 98.6111 44.9504 98.5464C44.8507 98.4818 44.7691 98.5573 44.7691 98.7141ZM45.4941 100.911C45.4941 101.009 45.5757 101.143 45.6754 101.207C45.7751 101.272 45.8566 101.191 45.8566 101.028C45.8566 100.865 45.7751 100.732 45.6754 100.732C45.5757 100.732 45.4941 100.812 45.4941 100.911ZM46.2191 103.002C46.2191 103.1 46.3007 103.233 46.4004 103.298C46.5001 103.362 46.5816 103.282 46.5816 103.119C46.5816 102.956 46.5001 102.823 46.4004 102.823C46.3007 102.823 46.2191 102.903 46.2191 103.002ZM154.756 104.617C153.433 105.194 152.341 105.987 151.406 107.051C149.931 108.728 149.99 108.782 152.369 107.944C153.53 107.535 154.64 107.049 154.835 106.865C155.143 106.574 156.238 104.535 156.238 104.254C156.238 104.06 155.775 104.173 154.756 104.617ZM47.1254 105.187C47.1254 105.35 47.207 105.483 47.3066 105.483C47.4063 105.483 47.4879 105.403 47.4879 105.305C47.4879 105.206 47.4063 105.073 47.3066 105.008C47.207 104.944 47.1254 105.024 47.1254 105.187ZM158.037 107.006C155.826 107.398 148.411 109.92 142.611 112.251C136.276 114.798 129.507 118.04 126.121 120.149C124.845 120.944 124.595 121.249 125.536 120.864C126.13 120.622 132.945 118.13 137.297 116.566C144.481 113.983 158.754 109.004 161.222 108.221C162.718 107.746 164.063 107.307 164.213 107.245C165.042 106.899 159.784 106.696 158.037 107.006ZM48.0316 107.172C48.0316 107.276 48.1132 107.414 48.2129 107.479C48.3126 107.544 48.3941 107.511 48.3941 107.406C48.3941 107.302 48.3126 107.164 48.2129 107.099C48.1132 107.034 48.0316 107.067 48.0316 107.172ZM49.0535 109.38C49.111 109.536 49.2283 109.665 49.3142 109.665C49.3999 109.665 49.4233 109.536 49.366 109.38C49.3085 109.223 49.1913 109.095 49.1054 109.095C49.0196 109.095 48.9963 109.223 49.0535 109.38ZM50.0254 111.151C50.0254 111.38 50.3692 111.648 50.495 111.516C50.5405 111.468 50.4535 111.321 50.3016 111.189C50.1294 111.039 50.0254 111.025 50.0254 111.151ZM150.257 112.692C148.245 113.362 147.385 113.992 144.571 116.856C140.596 120.9 137.082 123.925 133.67 126.24C127.056 130.727 120.451 133.348 112.647 134.584C109.443 135.091 103.514 135.264 100.133 134.948C97.5325 134.705 97.5258 134.705 96.6606 135.156C95.7734 135.618 94.469 137.156 94.7392 137.421C95.0822 137.758 99.5043 138.22 103.264 138.313C110.365 138.488 116.053 137.629 122.555 135.4C131.099 132.472 138.093 127.966 145.065 120.897C147.226 118.707 151.221 113.876 151.957 112.563C152.143 112.232 151.488 112.282 150.257 112.692ZM51.2227 113.355C51.2834 113.52 51.4125 113.656 51.5098 113.656C51.7482 113.656 51.599 113.224 51.328 113.129C51.1955 113.083 51.1551 113.17 51.2227 113.355ZM52.3816 115.154C52.3816 115.258 52.4632 115.397 52.5629 115.461C52.6626 115.526 52.7441 115.493 52.7441 115.389C52.7441 115.284 52.6626 115.146 52.5629 115.081C52.4632 115.017 52.3816 115.049 52.3816 115.154ZM53.6504 117.054C53.6504 117.159 53.732 117.297 53.8316 117.362C53.9313 117.427 54.0129 117.394 54.0129 117.289C54.0129 117.185 53.9313 117.046 53.8316 116.982C53.732 116.917 53.6504 116.95 53.6504 117.054ZM54.9191 118.753C54.9191 118.982 55.263 119.25 55.3888 119.119C55.4343 119.071 55.3473 118.923 55.1954 118.791C55.0232 118.641 54.9191 118.627 54.9191 118.753ZM56.3728 120.787C56.4989 120.947 56.6394 121.038 56.6851 120.99C56.8107 120.858 56.5553 120.498 56.3363 120.498C56.216 120.498 56.2298 120.607 56.3728 120.787ZM150.652 122.541C151.768 123.765 151.981 124.55 151.357 125.142C150.9 125.576 150.544 125.433 149.465 124.38C148.98 123.907 148.532 123.573 148.471 123.638C148.286 123.831 150.376 125.819 150.764 125.819C151.348 125.819 151.934 125.191 151.957 124.54C151.974 124.087 152.031 123.998 152.209 124.153C152.336 124.263 152.499 124.292 152.569 124.218C152.73 124.05 150.562 121.828 150.238 121.828C150.108 121.828 150.294 122.149 150.652 122.541ZM57.7477 122.477C57.8084 122.643 57.9375 122.778 58.0348 122.778C58.2732 122.778 58.124 122.346 57.853 122.252C57.7205 122.205 57.6801 122.293 57.7477 122.477ZM59.2728 124.208C59.3989 124.368 59.5394 124.459 59.5851 124.411C59.7107 124.279 59.4553 123.919 59.2363 123.919C59.116 123.919 59.1298 124.028 59.2728 124.208ZM147.182 124.857C147.079 125.059 146.994 125.355 146.994 125.516C146.994 125.706 146.892 125.767 146.701 125.69C146.226 125.498 146.656 126.161 147.701 127.233C148.747 128.306 149.209 128.271 148.227 127.194C147.334 126.214 147.115 125.723 147.357 125.249C147.463 125.04 147.629 124.869 147.725 124.869C147.822 124.869 147.9 124.784 147.9 124.679C147.9 124.346 147.376 124.475 147.182 124.857ZM60.7191 125.595C60.7191 125.824 61.063 126.092 61.1888 125.961C61.2343 125.913 61.1473 125.765 60.9954 125.633C60.8232 125.483 60.7191 125.469 60.7191 125.595ZM62.3504 127.34C62.3504 127.444 62.4776 127.53 62.633 127.53C62.7883 127.53 62.8651 127.444 62.8035 127.34C62.7419 127.235 62.6148 127.15 62.5209 127.15C62.4271 127.15 62.3504 127.235 62.3504 127.34ZM142.825 128.087C142.825 128.185 143.316 128.912 143.915 129.703C145.1 131.267 145.639 131.512 146.164 130.725C146.515 130.199 146.378 130.029 145.939 130.445C145.442 130.916 145.286 130.849 144.45 129.802L143.684 128.843L144.102 128.376C144.572 127.852 144.384 127.756 143.771 128.207C143.404 128.476 143.356 128.476 143.258 128.207C143.14 127.885 142.825 127.798 142.825 128.087ZM64.0723 128.86C64.1339 128.965 64.2658 129.05 64.3655 129.05C64.4652 129.05 64.4964 128.965 64.4348 128.86C64.3731 128.756 64.2412 128.67 64.1415 128.67C64.0418 128.67 64.0106 128.756 64.0723 128.86ZM146.994 129.351C146.994 129.517 147.091 129.618 147.209 129.577C147.546 129.459 147.601 129.05 147.281 129.05C147.123 129.05 146.994 129.186 146.994 129.351ZM141.841 129.729C141.685 129.893 141.557 130.147 141.557 130.293C141.557 130.451 141.446 130.514 141.285 130.449C141.135 130.389 141.013 130.403 141.013 130.48C141.013 130.693 142.892 133.232 143.05 133.232C143.294 133.232 143.201 133.016 142.567 132.11C141.73 130.915 141.59 130.291 142.084 129.967C142.477 129.71 142.587 129.43 142.295 129.43C142.202 129.43 141.998 129.565 141.841 129.729ZM138.576 132.27C137.933 132.974 138.068 133.262 138.72 132.578C139.223 132.051 139.943 131.941 140.261 132.343C140.416 132.538 140.279 132.729 139.649 133.194C138.658 133.927 138.528 134.721 139.312 135.259C139.737 135.551 139.835 135.556 140.263 135.304C140.526 135.15 140.852 134.78 140.988 134.484C141.173 134.081 141.274 134.009 141.386 134.2C141.469 134.341 141.593 134.397 141.661 134.326C141.729 134.254 141.465 133.658 141.074 133.001C140.446 131.946 140.289 131.799 139.733 131.75C139.229 131.705 138.998 131.809 138.576 132.27ZM139.873 133.379C139.288 133.758 139.06 134.441 139.384 134.849C139.905 135.508 140.891 134.747 140.797 133.758C140.729 133.035 140.53 132.954 139.873 133.379ZM136.949 134.993C136.558 135.226 136.2 135.538 136.153 135.687C136.096 135.87 136.293 135.816 136.774 135.515C138.164 134.645 138.322 134.173 136.949 134.993ZM133.805 135.227C133.125 135.537 132.95 135.879 133.117 136.575C133.226 137.032 133.3 137.064 134.178 137.026C135.499 136.969 135.575 136.989 135.575 137.383C135.575 137.826 135.098 138.266 134.397 138.469L133.854 138.627L134.38 138.7C135.442 138.849 136.356 137.498 135.676 136.785C135.461 136.559 135.16 136.515 134.397 136.598C133.484 136.697 133.4 136.673 133.4 136.322C133.4 135.861 133.686 135.587 134.352 135.412C134.625 135.34 134.803 135.205 134.748 135.112C134.618 134.891 134.514 134.903 133.805 135.227ZM130.542 136.886C130.051 137.134 129.83 137.879 130.133 138.262C130.262 138.425 130.762 138.558 131.376 138.592C132.333 138.644 132.404 138.68 132.404 139.118C132.404 139.499 132.25 139.649 131.588 139.915C130.897 140.193 130.847 140.245 131.262 140.253C132.003 140.269 132.671 139.874 132.797 139.346C132.983 138.568 132.658 138.278 131.48 138.173C130.67 138.101 130.399 138.001 130.355 137.758C130.295 137.424 130.753 137.077 131.388 136.975C131.593 136.943 131.816 136.856 131.885 136.784C132.085 136.574 130.995 136.657 130.542 136.886ZM126.958 138.64C125.951 139.695 126.775 141.784 128.198 141.784C128.662 141.784 129.594 141.131 129.594 140.806C129.594 140.702 129.379 140.793 129.117 141.01C128.512 141.509 127.752 141.514 127.327 141.023C126.933 140.565 126.902 140.599 128.144 140.121C128.692 139.909 129.165 139.614 129.193 139.465C129.222 139.315 129.073 138.963 128.863 138.683C128.365 138.019 127.567 138.001 126.958 138.64ZM127.175 138.901C126.818 139.314 126.76 140.352 127.102 140.21C129.063 139.391 129.082 139.374 128.584 138.852C128.202 138.451 127.543 138.474 127.175 138.901ZM124.345 139.729C124.099 140.006 123.975 140.057 123.975 139.881C123.975 139.705 123.915 139.681 123.794 139.808C123.673 139.935 123.78 140.482 124.118 141.453C124.903 143.712 125.119 143.653 124.502 141.348C124.227 140.318 124.388 139.829 125.036 139.728C125.523 139.652 125.551 139.313 125.07 139.313C124.874 139.313 124.548 139.501 124.345 139.729ZM120.871 140.683C120.709 140.818 120.487 141.1 120.378 141.309C120.206 141.639 120.179 141.646 120.175 141.356C120.172 141.174 120.088 141.024 119.988 141.024C119.888 141.024 119.807 141.108 119.807 141.21C119.807 141.588 120.933 145.496 121.092 145.671C121.311 145.91 121.307 145.368 121.085 144.757C120.924 144.313 120.957 144.277 121.628 144.158C122.983 143.918 123.48 142.482 122.656 141.194C122.2 140.483 121.39 140.25 120.871 140.683ZM120.832 141.181C120.513 141.551 120.459 142.115 120.648 143.107C120.779 143.791 121.05 143.97 121.697 143.8C122.356 143.627 122.707 143.161 122.707 142.461C122.707 141.19 121.522 140.382 120.832 141.181ZM118.17 142.009L117.752 142.899L117.117 142.351C116.768 142.049 116.416 141.845 116.335 141.897C116.225 141.968 117.159 142.955 117.598 143.231C117.63 143.25 117.445 143.703 117.188 144.236C116.93 144.769 116.807 145.205 116.914 145.205C117.021 145.205 117.271 144.82 117.469 144.35C117.668 143.879 117.864 143.495 117.906 143.495C117.947 143.495 118.273 143.762 118.628 144.09C118.984 144.417 119.334 144.622 119.405 144.546C119.476 144.468 119.191 144.106 118.77 143.74L118.006 143.075L118.373 142.32C118.575 141.905 118.706 141.465 118.664 141.342C118.623 141.219 118.4 141.519 118.17 142.009ZM113.063 143.827L112.807 145.3L112.28 144.205C111.991 143.603 111.67 143.139 111.567 143.175C111.465 143.211 111.299 143.676 111.198 144.209C111.098 144.743 110.967 145.229 110.906 145.291C110.846 145.353 110.526 144.782 110.194 144.022C109.863 143.261 109.563 142.773 109.527 142.937C109.453 143.272 110.706 146.155 110.926 146.155C111.118 146.155 111.235 145.798 111.385 144.754C111.454 144.27 111.566 143.875 111.633 143.875C111.701 143.875 111.976 144.345 112.245 144.92C112.514 145.495 112.808 145.965 112.898 145.965C112.989 145.965 113.155 145.388 113.268 144.682C113.38 143.977 113.517 143.164 113.572 142.877C113.628 142.589 113.593 142.354 113.496 142.354C113.399 142.354 113.204 143.017 113.063 143.827ZM99.7013 143.056C99.7272 143.721 100.509 146.221 100.714 146.292C100.83 146.333 101.058 145.922 101.233 145.357C101.405 144.803 101.603 144.283 101.673 144.201C101.744 144.119 101.951 144.568 102.133 145.199C102.315 145.83 102.557 146.345 102.67 146.345C102.783 146.345 103.096 145.635 103.366 144.766C103.907 143.025 103.925 142.924 103.703 142.924C103.619 142.924 103.364 143.587 103.136 144.397L102.722 145.87L102.333 144.668C102.119 144.007 101.866 143.465 101.77 143.464C101.674 143.463 101.432 143.94 101.232 144.524C101.032 145.107 100.822 145.585 100.766 145.585C100.71 145.585 100.515 144.985 100.334 144.251C100.019 142.978 99.6727 142.324 99.7013 143.056ZM104.688 143.087C104.562 143.301 105.676 146.535 105.876 146.535C105.961 146.535 106.166 146.022 106.333 145.395C106.499 144.768 106.683 144.255 106.742 144.255C106.801 144.255 107.042 144.775 107.277 145.411C107.531 146.098 107.771 146.498 107.868 146.396C108.144 146.107 108.924 142.895 108.699 142.974C108.587 143.013 108.356 143.623 108.186 144.329C108.016 145.036 107.841 145.652 107.796 145.699C107.751 145.746 107.535 145.269 107.317 144.639C107.098 144.01 106.844 143.495 106.754 143.495C106.663 143.495 106.435 144.02 106.247 144.663C106.058 145.305 105.863 145.754 105.811 145.66C105.76 145.567 105.537 144.913 105.316 144.207C104.905 142.895 104.855 142.805 104.688 143.087ZM115.004 145.015C114.856 145.266 115.072 145.622 115.288 145.482C115.508 145.339 115.507 144.825 115.286 144.825C115.192 144.825 115.065 144.91 115.004 145.015Z" fill="white"/>
</svg>
