<svg width="312" height="84" viewBox="0 0 312 84" fill="none" xmlns="http://www.w3.org/2000/svg">
<path fill-rule="evenodd" clip-rule="evenodd" d="M303.986 0.448956C303.987 1.16629 304.736 2.1945 305.486 2.50617C306.409 2.89028 307.871 2.86952 308.737 2.46028C309.51 2.09493 310.195 1.15152 310.196 0.448956C310.196 0.0604594 310.092 0 309.42 0C308.729 0 308.631 0.0618561 308.531 0.560895C308.461 0.906491 308.218 1.21278 307.895 1.35904C306.823 1.84531 305.953 1.55618 305.619 0.602798C305.438 0.0846032 305.308 0 304.697 0C304.092 0 303.985 0.0674431 303.986 0.448956ZM149.738 3.77542C147.9 4.24233 146.496 6.00782 146.068 8.39008C145.755 10.1352 145.921 14.7591 146.338 15.924C147.153 18.1973 148.776 19.3901 151.055 19.3901C152.77 19.3901 153.912 18.9375 154.798 17.9067C155.986 16.5254 156.203 15.5446 156.203 11.5731C156.203 8.75523 156.135 7.88745 155.851 7.07714C155.409 5.81607 154.491 4.69448 153.481 4.18167C152.597 3.73232 150.713 3.52779 149.738 3.77542ZM186.608 3.77542C184.738 4.25051 183.355 6.01581 182.941 8.45673C182.622 10.3421 182.798 14.7684 183.24 15.9629C184.087 18.2529 185.641 19.3901 187.925 19.3901C189.638 19.3901 190.782 18.9377 191.665 17.9115C192.762 16.6345 193.018 15.6504 193.124 12.3024C193.282 7.33693 192.591 5.3318 190.321 4.1691C189.465 3.73092 187.573 3.53019 186.608 3.77542ZM54.9344 5.03828C54.626 5.72428 50.8298 14.2095 46.4982 23.8944C42.1665 33.5793 38.5628 41.5035 38.4901 41.5035C38.4174 41.5035 36.6807 38.0688 34.631 33.8712L30.9041 26.239L15.452 26.1879L0 26.1368L0.768864 27.6844C1.19187 28.5356 7.57102 41.5559 14.9449 56.6183C22.3189 71.6809 28.3989 84.0026 28.4562 84C28.5133 83.9974 35.8733 67.6331 44.8115 47.6346L61.0627 11.2738L67.3044 11.2211C70.7371 11.192 73.5459 11.2067 73.5459 11.2536C73.5459 11.3007 68.8569 21.8196 63.126 34.629C57.3951 47.4384 52.7062 57.9967 52.7062 58.0917C52.7062 58.1866 54.6755 58.2645 57.0823 58.2645H61.4586L61.7111 57.7157C62.2305 56.5864 85.6231 4.27964 85.7156 4.0406C85.7922 3.84246 82.6981 3.79118 70.6534 3.79118H55.4947L54.9344 5.03828ZM96.3894 11.4861V19.1812L99.8614 19.1183C103.149 19.0591 103.371 19.0301 104.038 18.5748C105.022 17.902 105.566 17.0294 105.837 15.6873C106.282 13.4784 105.465 11.5469 103.714 10.6718C102.842 10.2356 102.464 10.1763 100.558 10.1763H98.3932V7.7819V5.38747H101.399H104.405V4.58932V3.79118H100.397H96.3894V11.4861ZM110.742 4.41473C110.673 4.75773 110.615 6.08205 110.613 7.35788C110.612 8.63372 110.521 10.9773 110.412 12.5662C110.178 15.9916 109.771 17.1258 108.663 17.4508C108.071 17.6242 108.012 17.7136 108.012 18.4239V19.2061L109.023 19.1095C110.283 18.9888 111.055 18.3142 111.603 16.855C112.05 15.6656 112.419 12.722 112.421 10.3338C112.422 9.42408 112.48 7.93614 112.552 7.02725L112.681 5.3745L114.805 5.43097L116.928 5.48724L116.981 12.3213L117.034 19.1554H117.933H118.832V11.4733V3.79118H114.85H110.867L110.742 4.41473ZM124.154 11.2245C122.839 15.3122 121.724 18.7689 121.678 18.906C121.619 19.083 121.881 19.1554 122.58 19.1554H123.565L124.157 17.21L124.749 15.2645L127.371 15.209L129.992 15.1536L130.573 17.1545L131.153 19.1554H132.106C132.63 19.1554 133.061 19.088 133.063 19.0058C133.065 18.9236 131.967 15.4666 130.624 11.3237L128.182 3.79118L127.364 3.79178L126.547 3.79258L124.154 11.2245ZM135.865 11.4733V19.1554H136.866H137.868V12.2715V5.38747H140.874H143.88V4.58932V3.79118H139.872H135.865V11.4733ZM158.307 4.58932V5.38747H160.311H162.315V12.2715V19.1554H163.317H164.319V12.2715V5.38747H166.323H168.326V4.58932V3.79118H163.317H158.307V4.58932ZM171.132 11.4653V19.183L174.303 19.1193C177.35 19.0583 177.506 19.0347 178.28 18.5247C179.29 17.8583 179.802 16.8165 179.911 15.206C180.025 13.5327 179.568 12.3333 178.533 11.5868C177.776 11.0403 177.77 11.0279 178.206 10.7957C179.095 10.3222 179.641 9.22135 179.645 7.89623C179.649 6.18222 179.129 5.11191 177.959 4.4277C177.098 3.92467 176.866 3.88816 174.087 3.82011L171.132 3.74768V11.4653ZM196.38 11.4558V19.1554H197.382H198.384V16.1624V13.1694H200.549C202.477 13.1694 202.827 13.1129 203.757 12.6512C205.339 11.8662 205.898 10.7999 205.898 8.56448C205.898 7.00949 205.843 6.76367 205.295 5.88152C204.867 5.19252 204.403 4.76252 203.698 4.40076C202.778 3.92886 202.469 3.88596 199.542 3.82351L196.38 3.75606V11.4558ZM208.803 11.4733V19.1554H209.79H210.776L213.747 13.3549L216.719 7.55443L216.772 13.3549L216.825 19.1554H217.826H218.827L218.775 11.5232L218.722 3.89095L217.782 3.83069L216.842 3.77023L213.875 9.61723L210.907 15.464L210.854 9.6276L210.801 3.79118H209.802H208.803V11.4733ZM221.428 4.57895V5.3735L223.481 5.43037L225.535 5.48724L225.588 12.3213L225.641 19.1554H226.537H227.434L227.486 12.3213L227.539 5.48724L229.605 5.43017L231.67 5.3733L231.609 4.63203L231.547 3.89095L226.487 3.83767L221.428 3.7844V4.57895ZM234.252 11.4733V19.1554H238.36H242.468V18.3573V17.5592H239.362H236.256V14.8654V12.1717H238.961H241.666V11.3735V10.5754H238.961H236.256V7.98143V5.38747H239.362H242.468V4.58932V3.79118H238.36H234.252V11.4733ZM247.671 4.73898C247.649 7.71026 247.264 14.4244 247.062 15.3549C246.801 16.5527 245.992 17.5592 245.288 17.5592C244.936 17.5592 244.872 17.6823 244.872 18.3573V19.1554L245.724 19.1546C248.366 19.1524 249.111 17.1138 249.44 8.97911L249.581 5.48724H251.685H253.789L253.842 12.3213L253.895 19.1554H254.894H255.893V11.4733V3.79118H251.785H247.678L247.671 4.73898ZM259.5 11.4733V19.1554L262.656 19.1511C265.304 19.1475 265.945 19.0866 266.637 18.7737C268.232 18.0522 269.031 16.3873 268.868 14.1212C268.789 13.0131 268.652 12.5704 268.189 11.9141C267.232 10.5574 266.573 10.2964 263.809 10.1789L261.404 10.0766L261.349 6.93387L261.293 3.79118H260.397H259.5V11.4733ZM271.723 11.4733V19.1554H272.725H273.727V15.6636V12.1717H276.833H279.939V15.6636V19.1554H280.941H281.943V11.4733V3.79118H280.946H279.949L279.894 7.13341L279.839 10.4756L276.783 10.5307L273.727 10.5858V7.18848V3.79118H272.725H271.723V11.4733ZM285.55 11.4623V19.1554H288.764C291.529 19.1554 292.082 19.1024 292.721 18.7757C294.272 17.9836 294.968 16.7119 294.968 14.6659C294.968 12.5795 294.238 11.2772 292.663 10.5535C292.044 10.2691 291.372 10.1841 289.713 10.1807L287.564 10.1763L287.508 7.03364L287.453 3.89095L286.501 3.83009L285.55 3.76923V11.4623ZM296.37 11.4733V19.1554H297.372H298.374V11.4733V3.79118H297.372H296.37V11.4733ZM302.115 3.92427C302.041 3.9973 301.981 7.45426 301.981 11.6064V19.1554H303.035H304.088L307.031 13.319L309.974 7.48259L309.985 13.319L309.996 19.1554H310.998H312V11.4733V3.79118L311.048 3.79497L310.096 3.79896L307.047 9.73116L303.997 15.6636L303.991 9.72737L303.985 3.79118H303.116C302.639 3.79118 302.188 3.85104 302.115 3.92427ZM149.487 5.83642C148.169 6.72895 147.988 7.42094 147.988 11.5731C147.988 15.1434 148.004 15.2932 148.489 16.1427C149.15 17.3016 150.087 17.8098 151.359 17.699C152.464 17.6029 153.22 17.12 153.799 16.1415C154.163 15.5265 154.199 15.1053 154.199 11.5731C154.199 8.00737 154.165 7.62387 153.788 6.98435C152.866 5.42239 150.882 4.89262 149.487 5.83642ZM173.085 5.49781C173.003 5.58341 172.935 6.71598 172.935 8.01476V10.3759H174.635C176.215 10.3759 176.38 10.3364 176.965 9.81537C178.041 8.8578 177.993 6.6186 176.88 5.89269C176.359 5.55248 173.336 5.23782 173.085 5.49781ZM186.419 5.77956C186.065 5.99426 185.569 6.55515 185.317 7.02586C184.886 7.82919 184.858 8.10774 184.858 11.5731C184.858 15.1434 184.874 15.2932 185.359 16.1427C186.02 17.3016 186.957 17.8098 188.229 17.699C189.334 17.6029 190.09 17.12 190.669 16.1415C191.033 15.5265 191.07 15.1053 191.07 11.5731C191.07 8.00737 191.035 7.62387 190.658 6.98435C189.763 5.46648 187.836 4.91896 186.419 5.77956ZM198.384 8.49843V11.6094L200.484 11.5414C202.552 11.4743 202.595 11.4631 203.239 10.821C203.869 10.1937 203.894 10.1079 203.894 8.58004C203.894 7.07095 203.863 6.96061 203.275 6.37517C202.556 5.65864 201.621 5.39884 199.736 5.39226L198.384 5.38747V8.49843ZM127.183 7.10088C126.48 9.47017 125.372 13.1229 125.297 13.319C125.224 13.509 125.712 13.5684 127.34 13.5684C129.283 13.5684 129.47 13.5363 129.376 13.2192C128.359 9.76449 127.572 7.22539 127.45 7.00111C127.327 6.77724 127.273 6.79779 127.183 7.10088ZM98.3932 14.6659V17.5592H100.37C102.094 17.5592 102.417 17.5039 102.899 17.1266C104.05 16.2251 104.369 14.1676 103.547 12.9523C102.883 11.9714 102.344 11.7788 100.247 11.7756L98.3932 11.7726V14.6659ZM261.303 14.6659V17.5592H263.217C266.12 17.5592 266.914 16.9374 266.914 14.6659C266.914 12.3944 266.12 11.7726 263.217 11.7726H261.303V14.6659ZM287.553 14.6659V17.5592H289.573C291.524 17.5592 291.611 17.5402 292.161 16.9921C292.844 16.3123 293.247 14.9694 293.063 13.9893C292.734 12.2447 291.958 11.7744 289.407 11.7734L287.553 11.7726V14.6659ZM172.935 14.7419V17.5592H174.735C176.417 17.5592 176.576 17.5228 177.151 17.0104C178.272 16.0096 178.336 13.6674 177.27 12.6061C176.801 12.1398 176.571 12.0829 174.844 12.0077L172.935 11.9245V14.7419ZM101.199 23.8445V24.942H100.536C100.172 24.942 99.3981 25.1784 98.816 25.4674C96.8132 26.461 95.6327 28.9143 95.8307 31.6713C96.0445 34.6464 97.8279 36.8275 100.379 37.2336L101.199 37.3643V38.3364V39.3086H102.2H103.202V38.3364V37.3643L104.022 37.2336C106.643 36.8164 108.385 34.6243 108.57 31.5097C108.777 28.0428 106.896 25.3047 104.092 24.9899L103.202 24.8901V23.8186V22.7471H102.2H101.199V23.8445ZM114.626 23.4087C113.584 23.7392 112.343 25.088 111.833 26.4463C111.515 27.2919 111.364 28.2501 111.283 29.9196C110.984 36.1086 112.661 38.9095 116.665 38.9095C118.95 38.9095 120.914 37.2581 121.42 34.9122C121.539 34.3563 121.637 32.567 121.637 30.936C121.637 26.4634 120.913 24.6259 118.755 23.6254C117.625 23.1013 115.884 23.0099 114.626 23.4087ZM125.044 31.0278V38.71H125.946H126.847V35.1183V31.5267H129.953H133.059V35.1183V38.71H134.061H135.063V31.0278V23.3457H134.061H133.059V26.638V29.9304H129.953H126.847V26.638V23.3457H125.946H125.044V31.0278ZM140.994 24.1937C140.937 24.6602 140.834 26.4335 140.766 28.1346C140.637 31.3852 140.298 33.8347 139.771 35.3206C139.277 36.7152 138.941 37.1137 138.258 37.1137H137.654L137.711 39.2587L137.768 41.4037L138.72 41.4645L139.672 41.5254V40.1177V38.71H144.281H148.889V40.1177V41.5254L149.841 41.4645L150.793 41.4037L150.85 39.2587L150.907 37.1137H149.998H149.09V30.2297V23.3457H145.094H141.099L140.994 24.1937ZM162.315 31.0272V38.7423L165.872 38.6762C169.301 38.6126 169.461 38.5912 170.332 38.081C171.67 37.298 172.219 36.209 172.227 34.3202C172.235 32.6582 171.792 31.6398 170.843 31.1338L170.34 30.8658L171.026 30.1102C172.768 28.1896 172.272 25.1026 170.036 23.9561C169.105 23.4784 168.823 23.4411 165.678 23.3788L162.315 23.312V31.0272ZM176.653 27.4861C176.441 34.0376 176.138 35.527 174.921 35.9841C174.362 36.1944 174.338 36.2559 174.338 37.4567V38.71H175.197C175.69 38.71 176.438 38.5184 176.95 38.261C178.024 37.7219 178.785 36.4668 179.149 34.6354C179.347 33.6385 179.705 28.7012 179.74 26.4884C179.748 25.9429 179.756 25.9397 181.151 25.9397H182.553V32.3248V38.71H184.157H185.76V31.0278V23.3457H181.273H176.786L176.653 27.4861ZM192.298 24.2935C192.13 24.8147 191.082 28.1595 189.969 31.7262C188.856 35.2929 187.907 38.3235 187.861 38.4605C187.797 38.6467 188.195 38.71 189.427 38.71H191.078L191.482 37.1636L191.887 35.6171L194.024 35.5607L196.16 35.504L196.357 36.2591C196.465 36.6741 196.653 37.3954 196.775 37.8619L196.996 38.71H198.662H200.327L197.903 31.0292L195.478 23.3483L194.041 23.3471L192.605 23.3457L192.298 24.2935ZM204.913 24.5928C204.85 25.2788 204.71 27.2317 204.602 28.9327C204.369 32.592 204.143 33.9063 203.54 35.1183C203.191 35.8197 202.961 36.0386 202.491 36.118C202.083 36.187 201.896 36.3311 201.907 36.5669C201.916 36.7579 201.939 38.1712 201.957 39.7076L201.99 42.5011H203.493H204.996V40.601V38.701L208.653 38.7552L212.31 38.8097L212.368 40.6554L212.425 42.5011H213.79H215.154L215.284 40.2564C215.356 39.0218 215.415 37.5852 215.415 37.0638L215.416 36.116H214.615H213.813V29.7308V23.3457H209.421H205.028L204.913 24.5928ZM217.42 31.0358V38.7261L219.046 38.668L220.672 38.6102L222.903 33.6218L225.135 28.6334L225.188 33.6717L225.242 38.71H226.741H228.24V31.0278V23.3457L226.688 23.3499L225.135 23.3541L222.93 28.3365L220.726 33.3189L220.673 28.3323L220.619 23.3457H219.02H217.42V31.0358ZM231.246 31.0278V38.71H232.78H234.315L234.203 33.5719L234.09 28.4339L234.542 29.9304C234.791 30.7535 235.472 33.0657 236.055 35.0684L237.115 38.71H238.18H239.244L239.642 37.3631C239.86 36.6222 240.497 34.4449 241.056 32.5243C241.615 30.6038 242.111 28.9427 242.157 28.8329C242.203 28.7232 242.188 30.9007 242.122 33.6717L242.003 38.71H243.638H245.273V31.0278V23.3457H243.169C242.012 23.3457 241.065 23.385 241.065 23.4331C241.065 23.6165 238.271 34.1753 238.206 34.2408C238.168 34.2787 237.608 32.2693 236.962 29.7755C236.316 27.2817 235.664 24.8147 235.513 24.2935L235.238 23.3457H233.242H231.246V31.0278ZM248.078 31.0278V38.71H249.641H251.204L253.398 33.7756L255.593 28.8415L255.646 33.7756L255.7 38.71H257.299H258.899V31.0278V23.3457H257.32H255.741L253.588 28.1844C252.404 30.8458 251.356 33.1084 251.26 33.2127C251.159 33.3215 251.084 31.2613 251.084 28.374V23.3457H249.581H248.078V31.0278ZM261.704 31.0278V38.71H263.307H264.91V36.0162V33.3225H266.381C270.104 33.3225 271.999 31.6749 271.984 28.4518C271.975 26.6504 271.531 25.5577 270.41 24.5748C269.196 23.5109 268.447 23.3457 264.837 23.3457H261.704V31.0278ZM276.859 24.2935C276.691 24.8147 275.643 28.1595 274.53 31.7262C273.417 35.2929 272.468 38.3235 272.422 38.4605C272.359 38.6467 272.756 38.71 273.988 38.71H275.639L276.043 37.1636L276.448 35.6171L278.585 35.5607L280.721 35.504L280.918 36.2591C281.026 36.6741 281.214 37.3954 281.336 37.8619L281.557 38.71H283.229H284.901L283.327 33.7714C282.462 31.0552 281.373 27.5984 280.906 26.0893L280.059 23.3457H278.612H277.166L276.859 24.2935ZM115.225 25.0835C114.706 25.2736 114.196 25.8116 113.751 26.638C113.358 27.3693 113.322 27.7373 113.322 31.0278C113.322 34.4912 113.339 34.651 113.823 35.4996C114.556 36.7878 115.176 37.1707 116.528 37.1707C117.909 37.1707 118.543 36.7687 119.191 35.4835C120.053 33.775 120.007 28.0218 119.118 26.3108C118.665 25.4384 117.712 24.9408 116.528 24.9585C115.977 24.9667 115.391 25.023 115.225 25.0835ZM142.794 27.4861C142.572 32.0471 142.154 34.4471 141.178 36.7645C141.042 37.0881 141.253 37.1137 144.059 37.1137H147.086V31.0278V24.942H145.002H142.918L142.794 27.4861ZM165.521 27.8353V29.7308H166.732C168.323 29.7308 168.928 29.2091 168.928 27.8353C168.928 26.4614 168.323 25.9397 166.732 25.9397H165.521V27.8353ZM207.923 26.2553C207.856 26.4289 207.802 27.0928 207.802 27.7307C207.802 30.4887 207.259 33.7718 206.462 35.84C206.376 36.0647 206.77 36.116 208.582 36.116H210.807V31.0278V25.9397H209.426C208.351 25.9397 208.018 26.0097 207.923 26.2553ZM264.91 28.3341V30.7285H266.322C267.543 30.7285 267.798 30.6641 268.212 30.252C269.117 29.3515 269.121 27.4294 268.222 26.4628C267.785 25.9937 267.589 25.9397 266.323 25.9397H264.91V28.3341ZM99.7959 26.6791C99.2697 26.8707 98.5679 27.6104 98.1313 28.4339C97.5213 29.584 97.5139 32.4405 98.1175 33.7399C98.6044 34.7881 99.4766 35.4908 100.495 35.6555L101.199 35.7692V31.1537V26.5383L100.647 26.554C100.345 26.5626 99.9612 26.6191 99.7959 26.6791ZM103.202 31.1274V35.7692L103.906 35.6555C105.499 35.3981 106.553 33.95 106.754 31.7444C106.998 29.0658 105.825 26.8292 104.054 26.5973L103.202 26.4858V31.1274ZM193.804 28.3706C193.688 28.7346 193.408 29.7662 193.183 30.6629C192.957 31.5598 192.718 32.4352 192.651 32.6083C192.548 32.8771 192.739 32.9234 193.954 32.9234C194.737 32.9234 195.378 32.8468 195.378 32.7532C195.378 32.5339 194.154 27.8556 194.075 27.772C194.042 27.7373 193.92 28.0067 193.804 28.3706ZM278.257 28.7617C278.09 29.3495 277.778 30.5266 277.564 31.377L277.174 32.9234H278.557C279.317 32.9234 279.939 32.8468 279.939 32.7532C279.939 32.5198 278.713 27.8528 278.628 27.764C278.591 27.7247 278.423 28.1737 278.257 28.7617ZM165.521 34.0209V36.116H166.909C168.17 36.116 168.335 36.0679 168.713 35.5902C169.183 34.9948 169.272 33.6557 168.896 32.8336C168.633 32.2596 167.712 31.9285 166.373 31.9269L165.521 31.9257V34.0209ZM12.8302 33.6811C12.8302 33.8836 27.834 64.499 28.0314 64.6989C28.1761 64.8456 34.0707 51.9132 34.0707 51.4493C34.0707 51.3184 32.1178 47.2313 29.731 42.3668L25.3912 33.522H19.1108C15.6564 33.522 12.8302 33.5935 12.8302 33.6811ZM112.793 43.2568C111.604 43.8719 110.6 45.1378 110.172 46.5603C110.02 47.0687 109.922 48.6255 109.919 50.5823C109.914 54.4511 110.17 55.4137 111.593 56.8747C113.575 58.91 117.022 58.9832 119.144 57.0353C120.617 55.6833 120.919 54.6098 120.928 50.6821C120.935 48.0069 120.868 47.196 120.574 46.3566C119.698 43.855 118.067 42.7007 115.409 42.7007C114.114 42.7007 113.697 42.7893 112.793 43.2568ZM96.3894 50.5823V58.2645H97.9924H99.5955V51.773V45.2815L101.85 45.3379L104.104 45.3944L104.157 51.8294L104.21 58.2645H105.71H107.21V50.5823V42.9002H101.8H96.3894V50.5823ZM122.639 44.0898V45.2797L124.493 45.3369L126.346 45.3944L126.399 51.8294L126.452 58.2645H127.949H129.447L129.5 51.8294L129.553 45.3944L131.506 45.3373L133.46 45.2803V44.0902V42.9002H128.05H122.639V44.0898ZM135.409 50.4251C134.113 54.5723 133.054 58.0324 133.056 58.1148C133.058 58.1972 133.777 58.2645 134.654 58.2645H136.25L136.471 57.4164C136.593 56.9501 136.781 56.2318 136.888 55.8202L137.082 55.0719H139.235H141.388L141.782 56.6183L142.177 58.1647L143.836 58.2228C145.477 58.2802 145.493 58.2758 145.378 57.8237C145.315 57.5723 144.24 54.1341 142.989 50.1833L140.716 43L139.241 42.9425L137.766 42.8852L135.409 50.4251ZM147.487 50.5907V58.2812L149.04 58.223L150.593 58.1647L150.648 54.9222L150.703 51.6798H153.002H155.302V54.9721V58.2645H156.804H158.307V50.5823V42.9002H156.804H155.302V45.993V49.0858H152.997H150.693V45.993V42.9002H149.09H147.487V50.5907ZM161.313 50.5907V58.2812L162.839 58.223L164.365 58.1647L166.596 53.1763L168.827 48.1879L168.881 53.2262L168.934 58.2645H170.434H171.933V50.5823V42.9002L170.38 42.9044L168.827 42.9086L166.623 47.891L164.419 52.8734L164.365 47.8868L164.312 42.9002H162.812H161.313V50.5907ZM174.939 50.5823V58.2645H176.442H177.945V54.9721V51.6798H180.349H182.754V54.9721V58.2645H184.257H185.76V50.5823V42.9002H184.262H182.764L182.709 45.9431L182.654 48.986H180.349H178.045L177.99 45.9431L177.934 42.9002H176.437H174.939V50.5823ZM192.2 44.1473C191.109 47.6526 187.916 57.7574 187.825 57.9933C187.742 58.2086 188.067 58.2645 189.399 58.2645H191.078L191.482 56.7181L191.887 55.1717L194.017 55.1152L196.147 55.0587L196.451 56.1129C196.618 56.6927 196.816 57.414 196.89 57.7157C197.023 58.2597 197.039 58.2645 198.69 58.2645H200.356L199.904 56.8178C199.654 56.0221 198.564 52.5653 197.48 49.1357L195.509 42.9002H194.049H192.589L192.2 44.1473ZM114.634 45.3575C113.403 45.7783 113.132 46.5495 113.052 49.8572C112.965 53.464 113.089 54.3196 113.82 55.1343C114.318 55.6887 114.519 55.7703 115.393 55.7703C117.428 55.7703 117.901 54.6469 117.799 50.0606C117.736 47.2708 117.688 46.9235 117.269 46.2528C116.853 45.5862 116.598 45.4213 115.626 45.1921C115.461 45.153 115.014 45.2276 114.634 45.3575ZM138.513 49.6483C138.155 51.0399 137.863 52.2459 137.865 52.3283C137.867 52.4107 138.506 52.4779 139.284 52.4779C140.539 52.4779 140.689 52.4382 140.597 52.1287C140.54 51.9368 140.221 50.7575 139.889 49.5084C139.557 48.2593 139.258 47.2106 139.225 47.1777C139.192 47.1447 138.872 48.2565 138.513 49.6483ZM193.992 47.1136C193.965 47.3123 192.839 51.5565 192.686 52.0376C192.55 52.4634 192.592 52.4779 193.962 52.4779C194.962 52.4779 195.377 52.4047 195.376 52.2285C195.375 51.9424 194.017 46.9268 193.992 47.1136Z" fill="white"/>
</svg>
